M48
; DRILL file {KiCad 6.0.2+dfsg-1} date Fri 10 Mar 2023 06:17:50 PM PST
; FORMAT={-:-/ absolute / inch / decimal}
; #@! TF.CreationDate,2023-03-10T18:17:50-08:00
; #@! TF.GenerationSoftware,Kicad,Pcbnew,6.0.2+dfsg-1
; #@! TF.FileFunction,Plated,1,2,PTH
FMAT,2
INCH
; #@! TA.AperFunction,Plated,PTH,ViaDrill
T1C0.0157
; #@! TA.AperFunction,Plated,PTH,ComponentDrill
T2C0.0354
; #@! TA.AperFunction,Plated,PTH,ComponentDrill
T3C0.0394
; #@! TA.AperFunction,Plated,PTH,ComponentDrill
T4C0.0402
; #@! TA.AperFunction,Plated,PTH,ComponentDrill
T5C0.0433
; #@! TA.AperFunction,Plated,PTH,ComponentDrill
T6C0.0472
%
G90
G05
T1
X2.0331Y-4.5709
X2.3287Y-2.9937
X2.4776Y-5.1417
X2.8811Y-3.8311
T2
X4.626Y-1.2421
X4.726Y-1.2421
T3
X1.5436Y-3.8705
X1.5436Y-3.9705
X1.5436Y-4.0705
X1.5436Y-4.1705
X1.5436Y-4.2705
X1.5436Y-4.3705
X1.5436Y-4.4705
X1.5436Y-4.5705
X1.5436Y-4.6705
X1.5436Y-4.7705
X1.5436Y-4.8705
X1.5436Y-4.9705
X1.5436Y-5.0705
X1.5436Y-5.1705
X1.5436Y-5.2705
X1.5436Y-5.3705
X1.5436Y-5.4705
X1.5436Y-5.5705
X1.5436Y-5.6705
X1.5436Y-5.7705
X2.1436Y-3.8705
X2.1436Y-3.9705
X2.1436Y-4.0705
X2.1436Y-4.1705
X2.1436Y-4.2705
X2.1436Y-4.3705
X2.1436Y-4.4705
X2.1436Y-4.5705
X2.1436Y-4.6705
X2.1436Y-4.7705
X2.1436Y-4.8705
X2.1436Y-4.9705
X2.1436Y-5.0705
X2.1436Y-5.1705
X2.1436Y-5.2705
X2.1436Y-5.3705
X2.1436Y-5.4705
X2.1436Y-5.5705
X2.1436Y-5.6705
X2.1436Y-5.7705
X2.4862Y-6.0063
X2.5862Y-6.0063
X2.6862Y-6.0063
X2.7736Y-3.0622
X2.7736Y-3.1622
X2.7736Y-3.2622
X2.7736Y-3.3622
X2.7736Y-3.4622
X2.7736Y-3.5622
X2.7736Y-3.6622
X2.7736Y-3.7622
X2.7736Y-3.8622
X2.7736Y-3.9622
X2.7736Y-4.0622
X2.7736Y-4.1622
X2.7736Y-4.2622
X2.7736Y-4.3622
X2.7736Y-4.4622
X2.7736Y-4.5622
X2.7736Y-4.6622
X2.7736Y-4.7622
X2.7736Y-4.8622
X2.7736Y-4.9622
X2.7736Y-5.0622
X2.7736Y-5.1622
X2.7736Y-5.2622
X2.7736Y-5.3622
X2.7736Y-5.4622
X2.7736Y-5.5622
X4.0053Y-2.5433
X4.1053Y-2.5433
X4.2053Y-2.5433
X5.3508Y-3.878
X5.3508Y-3.978
X5.3508Y-4.078
X5.3508Y-4.178
X5.3508Y-4.278
X5.3508Y-4.378
X5.3508Y-4.478
X5.3508Y-4.578
X5.3508Y-4.678
X5.3508Y-4.778
X5.4417Y-2.0843
X5.4417Y-2.1843
X5.4417Y-2.2843
X5.4417Y-2.3843
X5.4508Y-3.878
X5.4508Y-3.978
X5.4508Y-4.078
X5.4508Y-4.178
X5.4508Y-4.278
X5.4508Y-4.378
X5.4508Y-4.478
X5.4508Y-4.578
X5.4508Y-4.678
X5.4508Y-4.778
T4
X1.428Y-1.4295
X1.428Y-2.1295
X1.528Y-1.4295
X1.528Y-2.1295
X1.628Y-1.4295
X1.628Y-2.1295
X1.728Y-1.4295
X1.728Y-2.1295
X1.828Y-1.4295
X1.828Y-2.1295
X1.928Y-1.4295
X1.928Y-2.1295
X2.028Y-1.4295
X2.028Y-2.1295
X2.128Y-1.4295
X2.128Y-2.1295
X2.228Y-1.4295
X2.228Y-2.1295
X2.328Y-1.4295
X2.328Y-2.1295
X2.428Y-1.4295
X2.428Y-2.1295
X2.528Y-1.4295
X2.528Y-2.1295
X2.628Y-1.4295
X2.628Y-2.1295
X2.728Y-1.4295
X2.728Y-2.1295
X2.828Y-1.4295
X2.828Y-2.1295
X2.928Y-1.4295
X2.928Y-2.1295
X3.028Y-1.4295
X3.028Y-2.1295
X3.128Y-1.4295
X3.128Y-2.1295
X3.228Y-1.4295
X3.228Y-2.1295
X3.3189Y-1.6795
X3.3189Y-1.7795
X3.3189Y-1.8795
X3.328Y-1.4295
X3.328Y-2.1295
T5
X3.6114Y-1.6516
X3.6114Y-1.9075
X3.7886Y-1.6516
X3.7886Y-1.9075
T6
X3.7839Y-1.2417
X4.3839Y-1.2417
T5
G00X5.0236Y-1.2323
M15
G01X5.0236Y-1.252
M16
G05
G00X5.2087Y-1.2327
M15
G01X5.2087Y-1.2524
M16
G05
G00X5.3937Y-1.2327
M15
G01X5.3937Y-1.2524
M16
G05
T0
M30
