M48
; DRILL file {KiCad 6.0.2+dfsg-1} date Sun 26 Feb 2023 04:06:52 PM PST
; FORMAT={-:-/ absolute / inch / decimal}
; #@! TF.CreationDate,2023-02-26T16:06:52-08:00
; #@! TF.GenerationSoftware,Kicad,Pcbnew,6.0.2+dfsg-1
; #@! TF.FileFunction,Plated,1,2,PTH
FMAT,2
INCH
; #@! TA.AperFunction,Plated,PTH,ComponentDrill
T1C0.0256
; #@! TA.AperFunction,Plated,PTH,ComponentDrill
T2C0.0354
; #@! TA.AperFunction,Plated,PTH,ComponentDrill
T3C0.0394
; #@! TA.AperFunction,Plated,PTH,ComponentDrill
T4C0.0402
; #@! TA.AperFunction,Plated,PTH,ComponentDrill
T5C0.0433
; #@! TA.AperFunction,Plated,PTH,ComponentDrill
T6C0.0472
%
G90
G05
T1
X2.4303Y-5.9961
X2.4803Y-5.9961
X2.5303Y-5.9961
X2.685Y-3.7136
X2.685Y-3.7636
X2.685Y-3.8136
X2.685Y-3.8636
X2.685Y-3.9136
X2.685Y-3.9636
X2.685Y-4.0136
X2.685Y-4.0636
X2.685Y-4.1136
X2.685Y-4.1636
X2.685Y-4.2136
X2.685Y-4.2636
X2.685Y-4.3136
X2.685Y-4.3636
X2.685Y-4.4136
X2.685Y-4.4636
X2.685Y-4.5136
X2.685Y-4.5636
X2.685Y-4.6136
X2.685Y-4.6636
X2.685Y-4.7136
X2.685Y-4.7636
X2.685Y-4.8136
X2.685Y-4.8636
X2.685Y-4.9136
X2.685Y-4.9636
X4.0053Y-2.5433
X4.0553Y-2.5433
X4.1053Y-2.5433
X5.44Y-4.1093
X5.44Y-4.1593
X5.44Y-4.2093
X5.44Y-4.2593
X5.44Y-4.3093
X5.44Y-4.3593
X5.44Y-4.4093
X5.44Y-4.4593
X5.44Y-4.5093
X5.44Y-4.5593
X5.49Y-4.1093
X5.49Y-4.1593
X5.49Y-4.2093
X5.49Y-4.2593
X5.49Y-4.3093
X5.49Y-4.3593
X5.49Y-4.4093
X5.49Y-4.4593
X5.49Y-4.5093
X5.49Y-4.5593
T2
X3.6846Y-1.1463
X3.6846Y-1.2463
T3
X1.5436Y-3.8705
X1.5436Y-3.9705
X1.5436Y-4.0705
X1.5436Y-4.1705
X1.5436Y-4.2705
X1.5436Y-4.3705
X1.5436Y-4.4705
X1.5436Y-4.5705
X1.5436Y-4.6705
X1.5436Y-4.7705
X1.5436Y-4.8705
X1.5436Y-4.9705
X1.5436Y-5.0705
X1.5436Y-5.1705
X1.5436Y-5.2705
X1.5436Y-5.3705
X1.5436Y-5.4705
X1.5436Y-5.5705
X1.5436Y-5.6705
X1.5436Y-5.7705
X2.1436Y-3.8705
X2.1436Y-3.9705
X2.1436Y-4.0705
X2.1436Y-4.1705
X2.1436Y-4.2705
X2.1436Y-4.3705
X2.1436Y-4.4705
X2.1436Y-4.5705
X2.1436Y-4.6705
X2.1436Y-4.7705
X2.1436Y-4.8705
X2.1436Y-4.9705
X2.1436Y-5.0705
X2.1436Y-5.1705
X2.1436Y-5.2705
X2.1436Y-5.3705
X2.1436Y-5.4705
X2.1436Y-5.5705
X2.1436Y-5.6705
X2.1436Y-5.7705
T4
X1.428Y-1.4295
X1.428Y-2.1295
X1.528Y-1.4295
X1.528Y-2.1295
X1.628Y-1.4295
X1.628Y-2.1295
X1.728Y-1.4295
X1.728Y-2.1295
X1.828Y-1.4295
X1.828Y-2.1295
X1.928Y-1.4295
X1.928Y-2.1295
X2.028Y-1.4295
X2.028Y-2.1295
X2.128Y-1.4295
X2.128Y-2.1295
X2.228Y-1.4295
X2.228Y-2.1295
X2.328Y-1.4295
X2.328Y-2.1295
X2.428Y-1.4295
X2.428Y-2.1295
X2.528Y-1.4295
X2.528Y-2.1295
X2.628Y-1.4295
X2.628Y-2.1295
X2.728Y-1.4295
X2.728Y-2.1295
X2.828Y-1.4295
X2.828Y-2.1295
X2.928Y-1.4295
X2.928Y-2.1295
X3.028Y-1.4295
X3.028Y-2.1295
X3.128Y-1.4295
X3.128Y-2.1295
X3.228Y-1.4295
X3.228Y-2.1295
X3.3189Y-1.6795
X3.3189Y-1.7795
X3.3189Y-1.8795
X3.328Y-1.4295
X3.328Y-2.1295
T5
X3.6114Y-1.6516
X3.6114Y-1.9075
X3.7886Y-1.6516
X3.7886Y-1.9075
T6
X3.9508Y-1.1772
X4.5508Y-1.1772
T0
M30
