%TF.GenerationSoftware,KiCad,Pcbnew,6.0.2+dfsg-1*%
%TF.CreationDate,2023-03-10T18:21:51-08:00*%
%TF.ProjectId,pico-devboard,7069636f-2d64-4657-9662-6f6172642e6b,A*%
%TF.SameCoordinates,Original*%
%TF.FileFunction,Copper,L1,Top*%
%TF.FilePolarity,Positive*%
%FSLAX46Y46*%
G04 Gerber Fmt 4.6, Leading zero omitted, Abs format (unit mm)*
G04 Created by KiCad (PCBNEW 6.0.2+dfsg-1) date 2023-03-10 18:21:51*
%MOMM*%
%LPD*%
G01*
G04 APERTURE LIST*
%TA.AperFunction,ComponentPad*%
%ADD10R,1.700000X1.700000*%
%TD*%
%TA.AperFunction,ComponentPad*%
%ADD11O,1.700000X1.700000*%
%TD*%
%TA.AperFunction,ComponentPad*%
%ADD12C,2.400000*%
%TD*%
%TA.AperFunction,ComponentPad*%
%ADD13O,2.400000X2.400000*%
%TD*%
%TA.AperFunction,ComponentPad*%
%ADD14R,1.800000X1.800000*%
%TD*%
%TA.AperFunction,ComponentPad*%
%ADD15C,1.800000*%
%TD*%
%TA.AperFunction,SMDPad,CuDef*%
%ADD16R,1.700000X3.500000*%
%TD*%
%TA.AperFunction,SMDPad,CuDef*%
%ADD17R,3.500000X1.700000*%
%TD*%
%TA.AperFunction,ComponentPad*%
%ADD18C,2.000000*%
%TD*%
%TA.AperFunction,ComponentPad*%
%ADD19R,2.000000X1.440000*%
%TD*%
%TA.AperFunction,ComponentPad*%
%ADD20O,2.000000X1.440000*%
%TD*%
%TA.AperFunction,ComponentPad*%
%ADD21C,2.500000*%
%TD*%
%TA.AperFunction,ViaPad*%
%ADD22C,0.800000*%
%TD*%
%TA.AperFunction,Conductor*%
%ADD23C,0.250000*%
%TD*%
%TA.AperFunction,Conductor*%
%ADD24C,0.350000*%
%TD*%
G04 APERTURE END LIST*
D10*
%TO.P,J3,1,Pin_1*%
%TO.N,/a*%
X135910000Y-98500000D03*
D11*
%TO.P,J3,2,Pin_2*%
X138450000Y-98500000D03*
%TO.P,J3,3,Pin_3*%
%TO.N,/b*%
X135910000Y-101040000D03*
%TO.P,J3,4,Pin_4*%
X138450000Y-101040000D03*
%TO.P,J3,5,Pin_5*%
%TO.N,/c*%
X135910000Y-103580000D03*
%TO.P,J3,6,Pin_6*%
X138450000Y-103580000D03*
%TO.P,J3,7,Pin_7*%
%TO.N,/d*%
X135910000Y-106120000D03*
%TO.P,J3,8,Pin_8*%
X138450000Y-106120000D03*
%TO.P,J3,9,Pin_9*%
%TO.N,/e*%
X135910000Y-108660000D03*
%TO.P,J3,10,Pin_10*%
X138450000Y-108660000D03*
%TO.P,J3,11,Pin_11*%
%TO.N,/f*%
X135910000Y-111200000D03*
%TO.P,J3,12,Pin_12*%
X138450000Y-111200000D03*
%TO.P,J3,13,Pin_13*%
%TO.N,/g*%
X135910000Y-113740000D03*
%TO.P,J3,14,Pin_14*%
X138450000Y-113740000D03*
%TO.P,J3,15,Pin_15*%
%TO.N,/h*%
X135910000Y-116280000D03*
%TO.P,J3,16,Pin_16*%
X138450000Y-116280000D03*
%TO.P,J3,17,Pin_17*%
%TO.N,/i*%
X135910000Y-118820000D03*
%TO.P,J3,18,Pin_18*%
X138450000Y-118820000D03*
%TO.P,J3,19,Pin_19*%
%TO.N,/j*%
X135910000Y-121360000D03*
%TO.P,J3,20,Pin_20*%
X138450000Y-121360000D03*
%TD*%
D12*
%TO.P,R1,1*%
%TO.N,GND*%
X96110000Y-31540000D03*
D13*
%TO.P,R1,2*%
%TO.N,Net-(D1-Pad1)*%
X111350000Y-31540000D03*
%TD*%
D10*
%TO.P,J5,1,Pin_1*%
%TO.N,/SWDIO*%
X68230000Y-152560000D03*
D11*
%TO.P,J5,2,Pin_2*%
%TO.N,GND*%
X65690000Y-152560000D03*
%TO.P,J5,3,Pin_3*%
%TO.N,/SWCLK*%
X63150000Y-152560000D03*
%TD*%
D10*
%TO.P,J1,1,Pin_1*%
%TO.N,/5V_switched*%
X101735000Y-64600000D03*
D11*
%TO.P,J1,2,Pin_2*%
%TO.N,+3V3*%
X104275000Y-64600000D03*
%TO.P,J1,3,Pin_3*%
%TO.N,GND*%
X106815000Y-64600000D03*
%TD*%
D10*
%TO.P,J6,1,Pin_1*%
%TO.N,+5V*%
X138220000Y-52940000D03*
D11*
%TO.P,J6,2,Pin_2*%
%TO.N,/5V_switched*%
X138220000Y-55480000D03*
%TO.P,J6,3,Pin_3*%
%TO.N,+3V3*%
X138220000Y-58020000D03*
%TO.P,J6,4,Pin_4*%
%TO.N,GND*%
X138220000Y-60560000D03*
%TD*%
D14*
%TO.P,D1,1,K*%
%TO.N,Net-(D1-Pad1)*%
X117500000Y-31550000D03*
D15*
%TO.P,D1,2,A*%
%TO.N,/5V_switched*%
X120040000Y-31550000D03*
%TD*%
D10*
%TO.P,J2,1,Pin_1*%
%TO.N,/RUN*%
X70450000Y-77780000D03*
D11*
%TO.P,J2,2,Pin_2*%
%TO.N,/GPIO_2*%
X70450000Y-80320000D03*
%TO.P,J2,3,Pin_3*%
%TO.N,/GPIO_3*%
X70450000Y-82860000D03*
%TO.P,J2,4,Pin_4*%
%TO.N,/GPIO_4*%
X70450000Y-85400000D03*
%TO.P,J2,5,Pin_5*%
%TO.N,/GPIO_5*%
X70450000Y-87940000D03*
%TO.P,J2,6,Pin_6*%
%TO.N,/GPIO_6*%
X70450000Y-90480000D03*
%TO.P,J2,7,Pin_7*%
%TO.N,/GPIO_7*%
X70450000Y-93020000D03*
%TO.P,J2,8,Pin_8*%
%TO.N,/GPIO_8*%
X70450000Y-95560000D03*
%TO.P,J2,9,Pin_9*%
%TO.N,/GPIO_9*%
X70450000Y-98100000D03*
%TO.P,J2,10,Pin_10*%
%TO.N,/GPIO_10*%
X70450000Y-100640000D03*
%TO.P,J2,11,Pin_11*%
%TO.N,/GPIO_11*%
X70450000Y-103180000D03*
%TO.P,J2,12,Pin_12*%
%TO.N,/GPIO_12*%
X70450000Y-105720000D03*
%TO.P,J2,13,Pin_13*%
%TO.N,/GPIO_13*%
X70450000Y-108260000D03*
%TO.P,J2,14,Pin_14*%
%TO.N,/GPIO_14*%
X70450000Y-110800000D03*
%TO.P,J2,15,Pin_15*%
%TO.N,/GPIO_15*%
X70450000Y-113340000D03*
%TO.P,J2,16,Pin_16*%
%TO.N,/GPIO_16*%
X70450000Y-115880000D03*
%TO.P,J2,17,Pin_17*%
%TO.N,/GPIO_17*%
X70450000Y-118420000D03*
%TO.P,J2,18,Pin_18*%
%TO.N,/GPIO_18*%
X70450000Y-120960000D03*
%TO.P,J2,19,Pin_19*%
%TO.N,/GPIO_19*%
X70450000Y-123500000D03*
%TO.P,J2,20,Pin_20*%
%TO.N,/GPIO_20*%
X70450000Y-126040000D03*
%TO.P,J2,21,Pin_21*%
%TO.N,/GPIO_21*%
X70450000Y-128580000D03*
%TO.P,J2,22,Pin_22*%
%TO.N,/GPIO_22*%
X70450000Y-131120000D03*
%TO.P,J2,23,Pin_23*%
%TO.N,/GPIO_26*%
X70450000Y-133660000D03*
%TO.P,J2,24,Pin_24*%
%TO.N,/GPIO_27*%
X70450000Y-136200000D03*
%TO.P,J2,25,Pin_25*%
%TO.N,/GPIO_28*%
X70450000Y-138740000D03*
%TO.P,J2,26,Pin_26*%
%TO.N,/ADC_VREF*%
X70450000Y-141280000D03*
%TD*%
D16*
%TO.P,U1,1,GPIO0*%
%TO.N,unconnected-(U1-Pad1)*%
X36270000Y-54990000D03*
D11*
X36270000Y-54090000D03*
%TO.P,U1,2,GPIO1*%
%TO.N,unconnected-(U1-Pad2)*%
X38810000Y-54090000D03*
D16*
X38810000Y-54990000D03*
%TO.P,U1,3,GND*%
%TO.N,GND*%
X41350000Y-54990000D03*
D10*
X41350000Y-54090000D03*
D11*
%TO.P,U1,4,GPIO2*%
%TO.N,/SWDIO*%
X43890000Y-54090000D03*
D16*
X43890000Y-54990000D03*
D11*
%TO.P,U1,5,GPIO3*%
%TO.N,/SWCLK*%
X46430000Y-54090000D03*
D16*
X46430000Y-54990000D03*
%TO.P,U1,6,GPIO4*%
%TO.N,/UART_RX*%
X48970000Y-54990000D03*
D11*
X48970000Y-54090000D03*
D16*
%TO.P,U1,7,GPIO5*%
%TO.N,/UART_TX*%
X51510000Y-54990000D03*
D11*
X51510000Y-54090000D03*
D10*
%TO.P,U1,8,GND*%
%TO.N,GND*%
X54050000Y-54090000D03*
D16*
X54050000Y-54990000D03*
D11*
%TO.P,U1,9,GPIO6*%
%TO.N,unconnected-(U1-Pad9)*%
X56590000Y-54090000D03*
D16*
X56590000Y-54990000D03*
%TO.P,U1,10,GPIO7*%
%TO.N,unconnected-(U1-Pad10)*%
X59130000Y-54990000D03*
D11*
X59130000Y-54090000D03*
%TO.P,U1,11,GPIO8*%
%TO.N,unconnected-(U1-Pad11)*%
X61670000Y-54090000D03*
D16*
X61670000Y-54990000D03*
D11*
%TO.P,U1,12,GPIO9*%
%TO.N,unconnected-(U1-Pad12)*%
X64210000Y-54090000D03*
D16*
X64210000Y-54990000D03*
%TO.P,U1,13,GND*%
%TO.N,GND*%
X66750000Y-54990000D03*
D10*
X66750000Y-54090000D03*
D16*
%TO.P,U1,14,GPIO10*%
%TO.N,unconnected-(U1-Pad14)*%
X69290000Y-54990000D03*
D11*
X69290000Y-54090000D03*
D16*
%TO.P,U1,15,GPIO11*%
%TO.N,unconnected-(U1-Pad15)*%
X71830000Y-54990000D03*
D11*
X71830000Y-54090000D03*
D16*
%TO.P,U1,16,GPIO12*%
%TO.N,unconnected-(U1-Pad16)*%
X74370000Y-54990000D03*
D11*
X74370000Y-54090000D03*
D16*
%TO.P,U1,17,GPIO13*%
%TO.N,unconnected-(U1-Pad17)*%
X76910000Y-54990000D03*
D11*
X76910000Y-54090000D03*
D16*
%TO.P,U1,18,GND*%
%TO.N,GND*%
X79450000Y-54990000D03*
D10*
X79450000Y-54090000D03*
D11*
%TO.P,U1,19,GPIO14*%
%TO.N,unconnected-(U1-Pad19)*%
X81990000Y-54090000D03*
D16*
X81990000Y-54990000D03*
%TO.P,U1,20,GPIO15*%
%TO.N,unconnected-(U1-Pad20)*%
X84530000Y-54990000D03*
D11*
X84530000Y-54090000D03*
D16*
%TO.P,U1,21,GPIO16*%
%TO.N,unconnected-(U1-Pad21)*%
X84530000Y-35410000D03*
D11*
X84530000Y-36310000D03*
%TO.P,U1,22,GPIO17*%
%TO.N,unconnected-(U1-Pad22)*%
X81990000Y-36310000D03*
D16*
X81990000Y-35410000D03*
%TO.P,U1,23,GND*%
%TO.N,GND*%
X79450000Y-35410000D03*
D10*
X79450000Y-36310000D03*
D16*
%TO.P,U1,24,GPIO18*%
%TO.N,unconnected-(U1-Pad24)*%
X76910000Y-35410000D03*
D11*
X76910000Y-36310000D03*
D16*
%TO.P,U1,25,GPIO19*%
%TO.N,unconnected-(U1-Pad25)*%
X74370000Y-35410000D03*
D11*
X74370000Y-36310000D03*
D16*
%TO.P,U1,26,GPIO20*%
%TO.N,unconnected-(U1-Pad26)*%
X71830000Y-35410000D03*
D11*
X71830000Y-36310000D03*
%TO.P,U1,27,GPIO21*%
%TO.N,unconnected-(U1-Pad27)*%
X69290000Y-36310000D03*
D16*
X69290000Y-35410000D03*
D10*
%TO.P,U1,28,GND*%
%TO.N,GND*%
X66750000Y-36310000D03*
D16*
X66750000Y-35410000D03*
%TO.P,U1,29,GPIO22*%
%TO.N,unconnected-(U1-Pad29)*%
X64210000Y-35410000D03*
D11*
X64210000Y-36310000D03*
D16*
%TO.P,U1,30,RUN*%
%TO.N,Net-(SW1-Pad1)*%
X61670000Y-35410000D03*
D11*
X61670000Y-36310000D03*
%TO.P,U1,31,GPIO26_ADC0*%
%TO.N,unconnected-(U1-Pad31)*%
X59130000Y-36310000D03*
D16*
X59130000Y-35410000D03*
D11*
%TO.P,U1,32,GPIO27_ADC1*%
%TO.N,unconnected-(U1-Pad32)*%
X56590000Y-36310000D03*
D16*
X56590000Y-35410000D03*
D10*
%TO.P,U1,33,AGND*%
%TO.N,GND*%
X54050000Y-36310000D03*
D16*
X54050000Y-35410000D03*
%TO.P,U1,34,GPIO28_ADC2*%
%TO.N,unconnected-(U1-Pad34)*%
X51510000Y-35410000D03*
D11*
X51510000Y-36310000D03*
D16*
%TO.P,U1,35,ADC_VREF*%
%TO.N,unconnected-(U1-Pad35)*%
X48970000Y-35410000D03*
D11*
X48970000Y-36310000D03*
D16*
%TO.P,U1,36,3V3*%
%TO.N,unconnected-(U1-Pad36)*%
X46430000Y-35410000D03*
D11*
X46430000Y-36310000D03*
D16*
%TO.P,U1,37,3V3_EN*%
%TO.N,unconnected-(U1-Pad37)*%
X43890000Y-35410000D03*
D11*
X43890000Y-36310000D03*
D10*
%TO.P,U1,38,GND*%
%TO.N,GND*%
X41350000Y-36310000D03*
D16*
X41350000Y-35410000D03*
%TO.P,U1,39,VSYS*%
%TO.N,+5V*%
X38810000Y-35410000D03*
D11*
X38810000Y-36310000D03*
%TO.P,U1,40,VBUS*%
%TO.N,unconnected-(U1-Pad40)*%
X36270000Y-36310000D03*
D16*
X36270000Y-35410000D03*
D17*
%TO.P,U1,41,SWCLK*%
%TO.N,unconnected-(U1-Pad41)*%
X85200000Y-47740000D03*
D11*
X84300000Y-47740000D03*
D17*
%TO.P,U1,42,GND*%
%TO.N,GND*%
X85200000Y-45200000D03*
D10*
X84300000Y-45200000D03*
D17*
%TO.P,U1,43,SWDIO*%
%TO.N,unconnected-(U1-Pad43)*%
X85200000Y-42660000D03*
D11*
X84300000Y-42660000D03*
%TD*%
D18*
%TO.P,SW1,1,1*%
%TO.N,Net-(SW1-Pad1)*%
X91730000Y-48450000D03*
X91730000Y-41950000D03*
%TO.P,SW1,2,2*%
%TO.N,GND*%
X96230000Y-48450000D03*
X96230000Y-41950000D03*
%TD*%
D19*
%TO.P,J4,1,Pin_1*%
%TO.N,/UART_RX*%
X39207500Y-98310000D03*
D20*
%TO.P,J4,2,Pin_2*%
%TO.N,/UART_TX*%
X39207500Y-100850000D03*
%TO.P,J4,3,Pin_3*%
%TO.N,GND*%
X39207500Y-103390000D03*
%TO.P,J4,4,Pin_4*%
%TO.N,/GPIO_2*%
X39207500Y-105930000D03*
%TO.P,J4,5,Pin_5*%
%TO.N,/GPIO_3*%
X39207500Y-108470000D03*
%TO.P,J4,6,Pin_6*%
%TO.N,/GPIO_4*%
X39207500Y-111010000D03*
%TO.P,J4,7,Pin_7*%
%TO.N,/GPIO_5*%
X39207500Y-113550000D03*
%TO.P,J4,8,Pin_8*%
%TO.N,GND*%
X39207500Y-116090000D03*
%TO.P,J4,9,Pin_9*%
%TO.N,/GPIO_6*%
X39207500Y-118630000D03*
%TO.P,J4,10,Pin_10*%
%TO.N,/GPIO_7*%
X39207500Y-121170000D03*
%TO.P,J4,11,Pin_11*%
%TO.N,/GPIO_8*%
X39207500Y-123710000D03*
%TO.P,J4,12,Pin_12*%
%TO.N,/GPIO_9*%
X39207500Y-126250000D03*
%TO.P,J4,13,Pin_13*%
%TO.N,GND*%
X39207500Y-128790000D03*
%TO.P,J4,14,Pin_14*%
%TO.N,/GPIO_10*%
X39207500Y-131330000D03*
%TO.P,J4,15,Pin_15*%
%TO.N,/GPIO_11*%
X39207500Y-133870000D03*
%TO.P,J4,16,Pin_16*%
%TO.N,/GPIO_12*%
X39207500Y-136410000D03*
%TO.P,J4,17,Pin_17*%
%TO.N,/GPIO_13*%
X39207500Y-138950000D03*
%TO.P,J4,18,Pin_18*%
%TO.N,GND*%
X39207500Y-141490000D03*
%TO.P,J4,19,Pin_19*%
%TO.N,/GPIO_14*%
X39207500Y-144030000D03*
%TO.P,J4,20,Pin_20*%
%TO.N,/GPIO_15*%
X39207500Y-146570000D03*
%TO.P,J4,21,Pin_21*%
%TO.N,/GPIO_16*%
X54447500Y-146570000D03*
%TO.P,J4,22,Pin_22*%
%TO.N,/GPIO_17*%
X54447500Y-144030000D03*
%TO.P,J4,23,Pin_23*%
%TO.N,GND*%
X54447500Y-141490000D03*
%TO.P,J4,24,Pin_24*%
%TO.N,/GPIO_18*%
X54447500Y-138950000D03*
%TO.P,J4,25,Pin_25*%
%TO.N,/GPIO_19*%
X54447500Y-136410000D03*
%TO.P,J4,26,Pin_26*%
%TO.N,/GPIO_20*%
X54447500Y-133870000D03*
%TO.P,J4,27,Pin_27*%
%TO.N,/GPIO_21*%
X54447500Y-131330000D03*
%TO.P,J4,28,Pin_28*%
%TO.N,GND*%
X54447500Y-128790000D03*
%TO.P,J4,29,Pin_29*%
%TO.N,/GPIO_22*%
X54447500Y-126250000D03*
%TO.P,J4,30,Pin_30*%
%TO.N,/RUN*%
X54447500Y-123710000D03*
%TO.P,J4,31,Pin_31*%
%TO.N,/GPIO_26*%
X54447500Y-121170000D03*
%TO.P,J4,32,Pin_32*%
%TO.N,/GPIO_27*%
X54447500Y-118630000D03*
%TO.P,J4,33,Pin_33*%
%TO.N,GND*%
X54447500Y-116090000D03*
%TO.P,J4,34,Pin_34*%
%TO.N,/GPIO_28*%
X54447500Y-113550000D03*
%TO.P,J4,35,Pin_35*%
%TO.N,/ADC_VREF*%
X54447500Y-111010000D03*
%TO.P,J4,36,Pin_36*%
%TO.N,+3V3*%
X54447500Y-108470000D03*
%TO.P,J4,37,Pin_37*%
%TO.N,unconnected-(J4-Pad37)*%
X54447500Y-105930000D03*
%TO.P,J4,38,Pin_38*%
%TO.N,GND*%
X54447500Y-103390000D03*
%TO.P,J4,39,Pin_39*%
%TO.N,/5V_switched*%
X54447500Y-100850000D03*
%TO.P,J4,40,Pin_40*%
%TO.N,unconnected-(J4-Pad40)*%
X54447500Y-98310000D03*
%TD*%
D21*
%TO.P,SW2,1,A*%
%TO.N,/5V_switched*%
X127600000Y-31550000D03*
%TO.P,SW2,2,B*%
%TO.N,+5V*%
X132300000Y-31560000D03*
%TO.P,SW2,3,C*%
%TO.N,unconnected-(SW2-Pad3)*%
X137000000Y-31560000D03*
%TD*%
D22*
%TO.N,/GPIO_22*%
X62930200Y-130598900D03*
%TO.N,+3V3*%
X73180000Y-97310000D03*
%TO.N,GND*%
X51640000Y-116100000D03*
%TO.N,/5V_switched*%
X59150000Y-76040000D03*
%TD*%
D23*
%TO.N,/a*%
X138450000Y-98500000D02*
X135910000Y-98500000D01*
%TO.N,/b*%
X138450000Y-101040000D02*
X135910000Y-101040000D01*
%TO.N,/c*%
X138450000Y-103580000D02*
X135910000Y-103580000D01*
%TO.N,/d*%
X138450000Y-106120000D02*
X135910000Y-106120000D01*
%TO.N,/e*%
X138450000Y-108660000D02*
X135910000Y-108660000D01*
%TO.N,/f*%
X138450000Y-111200000D02*
X135910000Y-111200000D01*
%TO.N,/g*%
X138450000Y-113740000D02*
X135910000Y-113740000D01*
%TO.N,/h*%
X138450000Y-116280000D02*
X135910000Y-116280000D01*
%TO.N,/i*%
X138450000Y-118820000D02*
X135910000Y-118820000D01*
%TO.N,/j*%
X138450000Y-121360000D02*
X135910000Y-121360000D01*
%TO.N,/RUN*%
X67010000Y-110038990D02*
X70053600Y-106995390D01*
X70053600Y-106995390D02*
X70053600Y-106990000D01*
X71625300Y-78955300D02*
X70450000Y-77780000D01*
X54447500Y-123710000D02*
X59224282Y-123710000D01*
X70937800Y-106990000D02*
X71625300Y-106302500D01*
X67010000Y-115924282D02*
X67010000Y-110038990D01*
X71625300Y-106302500D02*
X71625300Y-78955300D01*
X70053600Y-106990000D02*
X70937800Y-106990000D01*
X59224282Y-123710000D02*
X67010000Y-115924282D01*
%TO.N,/GPIO_2*%
X69274700Y-80320000D02*
X43664700Y-105930000D01*
X70450000Y-80320000D02*
X69274700Y-80320000D01*
X43664700Y-105930000D02*
X39207500Y-105930000D01*
%TO.N,/GPIO_3*%
X41865600Y-108470000D02*
X39207500Y-108470000D01*
X67475600Y-82860000D02*
X41865600Y-108470000D01*
X70450000Y-82860000D02*
X67475600Y-82860000D01*
%TO.N,/GPIO_4*%
X65572500Y-85400000D02*
X70450000Y-85400000D01*
X40532800Y-110439700D02*
X65572500Y-85400000D01*
X39777800Y-110439700D02*
X39207500Y-111010000D01*
X40532800Y-110439700D02*
X39777800Y-110439700D01*
%TO.N,/GPIO_5*%
X55094700Y-102120000D02*
X50637500Y-102120000D01*
X70450000Y-87940000D02*
X69274700Y-87940000D01*
X50637500Y-102120000D02*
X39207500Y-113550000D01*
X69274700Y-87940000D02*
X55094700Y-102120000D01*
%TO.N,/GPIO_7*%
X70450000Y-93020000D02*
X69274700Y-93020000D01*
X55094700Y-107200000D02*
X53177500Y-107200000D01*
X69274700Y-93020000D02*
X55094700Y-107200000D01*
X53177500Y-107200000D02*
X39207500Y-121170000D01*
%TO.N,/GPIO_8*%
X70450000Y-95560000D02*
X69274700Y-95560000D01*
X53177500Y-109740000D02*
X39207500Y-123710000D01*
X55094700Y-109740000D02*
X53177500Y-109740000D01*
X69274700Y-95560000D02*
X55094700Y-109740000D01*
%TO.N,/GPIO_9*%
X55094700Y-112280000D02*
X53177500Y-112280000D01*
X70450000Y-98100000D02*
X69274700Y-98100000D01*
X53177500Y-112280000D02*
X39207500Y-126250000D01*
X69274700Y-98100000D02*
X55094700Y-112280000D01*
%TO.N,/GPIO_10*%
X53177500Y-117360000D02*
X39207500Y-131330000D01*
X53177500Y-117360000D02*
X63588564Y-117360000D01*
X65640960Y-115307604D02*
X65640960Y-105449040D01*
X63588564Y-117360000D02*
X65640960Y-115307604D01*
X65640960Y-105449040D02*
X70450000Y-100640000D01*
%TO.N,/GPIO_11*%
X53177500Y-119900000D02*
X39207500Y-133870000D01*
X61684282Y-119900000D02*
X66090480Y-115493802D01*
X53177500Y-119900000D02*
X61684282Y-119900000D01*
X66090480Y-115493802D02*
X66090480Y-107539520D01*
X66090480Y-107539520D02*
X70450000Y-103180000D01*
%TO.N,/GPIO_12*%
X59780000Y-122440000D02*
X66540000Y-115680000D01*
X66540000Y-115680000D02*
X66540000Y-109630000D01*
X53177500Y-122440000D02*
X39207500Y-136410000D01*
X59780000Y-122440000D02*
X53177500Y-122440000D01*
X66540000Y-109630000D02*
X70450000Y-105720000D01*
%TO.N,/GPIO_13*%
X67460000Y-111250000D02*
X70450000Y-108260000D01*
X58590000Y-124980000D02*
X67460000Y-116110000D01*
X67460000Y-116110000D02*
X67460000Y-111250000D01*
X53177500Y-124980000D02*
X39207500Y-138950000D01*
X58590000Y-124980000D02*
X53177500Y-124980000D01*
%TO.N,/GPIO_14*%
X67940000Y-113310000D02*
X67940000Y-116270000D01*
X67940000Y-116270000D02*
X56690000Y-127520000D01*
X70450000Y-110800000D02*
X67940000Y-113310000D01*
X56690000Y-127520000D02*
X53780000Y-127520000D01*
X53780000Y-127520000D02*
X41540000Y-139760000D01*
X41540000Y-141697500D02*
X39207500Y-144030000D01*
X41540000Y-139760000D02*
X41540000Y-141697500D01*
%TO.N,/GPIO_15*%
X58048100Y-126950000D02*
X54938100Y-130060000D01*
X70450000Y-113340000D02*
X68390000Y-115400000D01*
X58060000Y-126950000D02*
X58048100Y-126950000D01*
X42300000Y-143477500D02*
X39207500Y-146570000D01*
X54938100Y-130060000D02*
X53924800Y-130060000D01*
X42300000Y-141684800D02*
X42300000Y-143477500D01*
X68390000Y-115400000D02*
X68390000Y-116620000D01*
X68390000Y-116620000D02*
X58060000Y-126950000D01*
X53924800Y-130060000D02*
X42300000Y-141684800D01*
%TO.N,/GPIO_16*%
X70851200Y-140010000D02*
X73503100Y-137358100D01*
X61007500Y-140010000D02*
X70851200Y-140010000D01*
X57210000Y-146570000D02*
X59020000Y-144760000D01*
X73503100Y-118933100D02*
X70450000Y-115880000D01*
X54447500Y-146570000D02*
X57210000Y-146570000D01*
X59020000Y-144760000D02*
X59020000Y-141997500D01*
X73503100Y-137358100D02*
X73503100Y-118933100D01*
X59020000Y-141997500D02*
X61007500Y-140010000D01*
%TO.N,/GPIO_17*%
X73052700Y-121022700D02*
X70450000Y-118420000D01*
X73052700Y-135267500D02*
X73052700Y-121022700D01*
X61007500Y-137470000D02*
X70850200Y-137470000D01*
X70850200Y-137470000D02*
X73052700Y-135267500D01*
X54447500Y-144030000D02*
X61007500Y-137470000D01*
%TO.N,/GPIO_18*%
X72599000Y-133181200D02*
X72599000Y-123109000D01*
X70850200Y-134930000D02*
X72599000Y-133181200D01*
X72599000Y-123109000D02*
X70450000Y-120960000D01*
X54447500Y-138950000D02*
X58467500Y-134930000D01*
X58467500Y-134930000D02*
X70850200Y-134930000D01*
%TO.N,/GPIO_19*%
X72138600Y-125188600D02*
X70450000Y-123500000D01*
X70851700Y-132390000D02*
X72138600Y-131103100D01*
X54447500Y-136410000D02*
X58467500Y-132390000D01*
X72138600Y-131103100D02*
X72138600Y-125188600D01*
X58467500Y-132390000D02*
X70851700Y-132390000D01*
%TO.N,/GPIO_20*%
X70934800Y-129780200D02*
X71636700Y-129078300D01*
X71636700Y-127226700D02*
X70450000Y-126040000D01*
X54447500Y-133870000D02*
X55084300Y-133870000D01*
X59174100Y-129780200D02*
X70934800Y-129780200D01*
X71636700Y-129078300D02*
X71636700Y-127226700D01*
X55084300Y-133870000D02*
X59174100Y-129780200D01*
%TO.N,/GPIO_21*%
X57197500Y-128580000D02*
X54447500Y-131330000D01*
X70450000Y-128580000D02*
X57197500Y-128580000D01*
%TO.N,/GPIO_22*%
X70450000Y-131120000D02*
X69274700Y-131120000D01*
X69274700Y-131120000D02*
X63451300Y-131120000D01*
X63451300Y-131120000D02*
X62930200Y-130598900D01*
%TO.N,+5V*%
X138220000Y-52940000D02*
X138220000Y-37480000D01*
D24*
X38810000Y-34701000D02*
X46911000Y-26600000D01*
X38810000Y-36310000D02*
X38810000Y-34701000D01*
X127340000Y-26600000D02*
X132300000Y-31560000D01*
D23*
X138220000Y-37480000D02*
X132300000Y-31560000D01*
D24*
X46911000Y-26600000D02*
X127340000Y-26600000D01*
D23*
%TO.N,+3V3*%
X103650000Y-66880000D02*
X73220000Y-97310000D01*
X73220000Y-97310000D02*
X73180000Y-97310000D01*
X138220000Y-58020000D02*
X110855000Y-58020000D01*
X110855000Y-58020000D02*
X104275000Y-64600000D01*
X104275000Y-66255000D02*
X103650000Y-66880000D01*
X104275000Y-64600000D02*
X104275000Y-66255000D01*
%TO.N,GND*%
X51650000Y-116090000D02*
X51640000Y-116100000D01*
X54447500Y-116090000D02*
X51650000Y-116090000D01*
%TO.N,Net-(SW1-Pad1)*%
X91730000Y-41950000D02*
X90730000Y-40950000D01*
X66310000Y-40950000D02*
X61670000Y-36310000D01*
X90730000Y-40950000D02*
X66310000Y-40950000D01*
X91730000Y-41950000D02*
X91730000Y-48450000D01*
%TO.N,/SWDIO*%
X43890000Y-86310000D02*
X33050000Y-97150000D01*
X66750000Y-155790000D02*
X68230000Y-154310000D01*
X43890000Y-54090000D02*
X43890000Y-86310000D01*
X33050000Y-154030000D02*
X34810000Y-155790000D01*
X68230000Y-154310000D02*
X68230000Y-152560000D01*
X34810000Y-155790000D02*
X66750000Y-155790000D01*
X33050000Y-97150000D02*
X33050000Y-154030000D01*
%TO.N,/SWCLK*%
X46430000Y-84920000D02*
X33750000Y-97600000D01*
X46430000Y-54090000D02*
X46430000Y-84920000D01*
X33750000Y-154060000D02*
X35030500Y-155340000D01*
X35030500Y-155340000D02*
X60369500Y-155340000D01*
X60369500Y-155340000D02*
X63150000Y-152560000D01*
X33750000Y-97600000D02*
X33750000Y-154060000D01*
%TO.N,/UART_RX*%
X39207500Y-98310000D02*
X48970000Y-88547500D01*
X48970000Y-88547500D02*
X48970000Y-54090000D01*
%TO.N,/UART_TX*%
X39207500Y-100850000D02*
X51510000Y-88547500D01*
X51510000Y-88547500D02*
X51510000Y-54090000D01*
%TO.N,Net-(D1-Pad1)*%
X111360000Y-31550000D02*
X111350000Y-31540000D01*
X117500000Y-31550000D02*
X111360000Y-31550000D01*
D24*
%TO.N,/5V_switched*%
X101735000Y-64600000D02*
X70590000Y-64600000D01*
X101735000Y-62865000D02*
X127600000Y-37000000D01*
X101735000Y-64600000D02*
X101735000Y-62865000D01*
X120040000Y-31550000D02*
X127600000Y-31550000D01*
X70590000Y-64600000D02*
X59150000Y-76040000D01*
X133135000Y-37085000D02*
X127600000Y-31550000D01*
X127600000Y-37000000D02*
X127600000Y-31550000D01*
X133135000Y-50395000D02*
X133135000Y-37085000D01*
X138220000Y-55480000D02*
X133135000Y-50395000D01*
%TD*%
M02*
