%TF.GenerationSoftware,KiCad,Pcbnew,6.0.2+dfsg-1*%
%TF.CreationDate,2023-02-26T16:07:04-08:00*%
%TF.ProjectId,pico-devboard,7069636f-2d64-4657-9662-6f6172642e6b,rev?*%
%TF.SameCoordinates,Original*%
%TF.FileFunction,Legend,Top*%
%TF.FilePolarity,Positive*%
%FSLAX46Y46*%
G04 Gerber Fmt 4.6, Leading zero omitted, Abs format (unit mm)*
G04 Created by KiCad (PCBNEW 6.0.2+dfsg-1) date 2023-02-26 16:07:04*
%MOMM*%
%LPD*%
G01*
G04 APERTURE LIST*
%ADD10C,0.100000*%
%ADD11C,0.150000*%
%ADD12C,0.120000*%
G04 APERTURE END LIST*
D10*
X73800000Y-67020000D02*
X132220000Y-67020000D01*
X132220000Y-67020000D02*
X132220000Y-153380000D01*
X132220000Y-153380000D02*
X73800000Y-153380000D01*
X73800000Y-153380000D02*
X73800000Y-67020000D01*
D11*
%TO.C,SW1*%
X90134761Y-46533333D02*
X90182380Y-46390476D01*
X90182380Y-46152380D01*
X90134761Y-46057142D01*
X90087142Y-46009523D01*
X89991904Y-45961904D01*
X89896666Y-45961904D01*
X89801428Y-46009523D01*
X89753809Y-46057142D01*
X89706190Y-46152380D01*
X89658571Y-46342857D01*
X89610952Y-46438095D01*
X89563333Y-46485714D01*
X89468095Y-46533333D01*
X89372857Y-46533333D01*
X89277619Y-46485714D01*
X89230000Y-46438095D01*
X89182380Y-46342857D01*
X89182380Y-46104761D01*
X89230000Y-45961904D01*
X89182380Y-45628571D02*
X90182380Y-45390476D01*
X89468095Y-45200000D01*
X90182380Y-45009523D01*
X89182380Y-44771428D01*
X90182380Y-43866666D02*
X90182380Y-44438095D01*
X90182380Y-44152380D02*
X89182380Y-44152380D01*
X89325238Y-44247619D01*
X89420476Y-44342857D01*
X89468095Y-44438095D01*
%TO.C,R1*%
X107803333Y-27432380D02*
X107470000Y-26956190D01*
X107231904Y-27432380D02*
X107231904Y-26432380D01*
X107612857Y-26432380D01*
X107708095Y-26480000D01*
X107755714Y-26527619D01*
X107803333Y-26622857D01*
X107803333Y-26765714D01*
X107755714Y-26860952D01*
X107708095Y-26908571D01*
X107612857Y-26956190D01*
X107231904Y-26956190D01*
X108755714Y-27432380D02*
X108184285Y-27432380D01*
X108470000Y-27432380D02*
X108470000Y-26432380D01*
X108374761Y-26575238D01*
X108279523Y-26670476D01*
X108184285Y-26718095D01*
%TO.C,J3*%
X138476666Y-102132380D02*
X138476666Y-102846666D01*
X138429047Y-102989523D01*
X138333809Y-103084761D01*
X138190952Y-103132380D01*
X138095714Y-103132380D01*
X138857619Y-102132380D02*
X139476666Y-102132380D01*
X139143333Y-102513333D01*
X139286190Y-102513333D01*
X139381428Y-102560952D01*
X139429047Y-102608571D01*
X139476666Y-102703809D01*
X139476666Y-102941904D01*
X139429047Y-103037142D01*
X139381428Y-103084761D01*
X139286190Y-103132380D01*
X139000476Y-103132380D01*
X138905238Y-103084761D01*
X138857619Y-103037142D01*
%TO.C,D1*%
X98002380Y-31123095D02*
X97002380Y-31123095D01*
X97002380Y-30885000D01*
X97050000Y-30742142D01*
X97145238Y-30646904D01*
X97240476Y-30599285D01*
X97430952Y-30551666D01*
X97573809Y-30551666D01*
X97764285Y-30599285D01*
X97859523Y-30646904D01*
X97954761Y-30742142D01*
X98002380Y-30885000D01*
X98002380Y-31123095D01*
X98002380Y-29599285D02*
X98002380Y-30170714D01*
X98002380Y-29885000D02*
X97002380Y-29885000D01*
X97145238Y-29980238D01*
X97240476Y-30075476D01*
X97288095Y-30170714D01*
%TO.C,J5*%
X61396666Y-149212380D02*
X61396666Y-149926666D01*
X61349047Y-150069523D01*
X61253809Y-150164761D01*
X61110952Y-150212380D01*
X61015714Y-150212380D01*
X62349047Y-149212380D02*
X61872857Y-149212380D01*
X61825238Y-149688571D01*
X61872857Y-149640952D01*
X61968095Y-149593333D01*
X62206190Y-149593333D01*
X62301428Y-149640952D01*
X62349047Y-149688571D01*
X62396666Y-149783809D01*
X62396666Y-150021904D01*
X62349047Y-150117142D01*
X62301428Y-150164761D01*
X62206190Y-150212380D01*
X61968095Y-150212380D01*
X61872857Y-150164761D01*
X61825238Y-150117142D01*
%TO.C,J4*%
X46494166Y-86202380D02*
X46494166Y-86916666D01*
X46446547Y-87059523D01*
X46351309Y-87154761D01*
X46208452Y-87202380D01*
X46113214Y-87202380D01*
X47398928Y-86535714D02*
X47398928Y-87202380D01*
X47160833Y-86154761D02*
X46922738Y-86869047D01*
X47541785Y-86869047D01*
%TO.C,J2*%
X67866666Y-92082380D02*
X67866666Y-92796666D01*
X67819047Y-92939523D01*
X67723809Y-93034761D01*
X67580952Y-93082380D01*
X67485714Y-93082380D01*
X68295238Y-92177619D02*
X68342857Y-92130000D01*
X68438095Y-92082380D01*
X68676190Y-92082380D01*
X68771428Y-92130000D01*
X68819047Y-92177619D01*
X68866666Y-92272857D01*
X68866666Y-92368095D01*
X68819047Y-92510952D01*
X68247619Y-93082380D01*
X68866666Y-93082380D01*
%TO.C,J1*%
X99492380Y-64933333D02*
X100206666Y-64933333D01*
X100349523Y-64980952D01*
X100444761Y-65076190D01*
X100492380Y-65219047D01*
X100492380Y-65314285D01*
X100492380Y-63933333D02*
X100492380Y-64504761D01*
X100492380Y-64219047D02*
X99492380Y-64219047D01*
X99635238Y-64314285D01*
X99730476Y-64409523D01*
X99778095Y-64504761D01*
%TO.C,U1*%
X59852380Y-45961904D02*
X60661904Y-45961904D01*
X60757142Y-45914285D01*
X60804761Y-45866666D01*
X60852380Y-45771428D01*
X60852380Y-45580952D01*
X60804761Y-45485714D01*
X60757142Y-45438095D01*
X60661904Y-45390476D01*
X59852380Y-45390476D01*
X60852380Y-44390476D02*
X60852380Y-44961904D01*
X60852380Y-44676190D02*
X59852380Y-44676190D01*
X59995238Y-44771428D01*
X60090476Y-44866666D01*
X60138095Y-44961904D01*
X36391218Y-58686903D02*
X36418155Y-58767715D01*
X36498967Y-58848528D01*
X36606717Y-58902402D01*
X36714467Y-58902402D01*
X36795279Y-58875465D01*
X36929966Y-58794653D01*
X37010778Y-58713841D01*
X37091590Y-58579154D01*
X37118528Y-58498341D01*
X37118528Y-58390592D01*
X37064653Y-58282842D01*
X37010778Y-58228967D01*
X36903028Y-58175093D01*
X36849154Y-58175093D01*
X36660592Y-58363654D01*
X36768341Y-58471404D01*
X36660592Y-57878781D02*
X36094906Y-58444467D01*
X35879407Y-58228967D01*
X35852470Y-58148155D01*
X35852470Y-58094280D01*
X35879407Y-58013468D01*
X35960219Y-57932656D01*
X36041032Y-57905719D01*
X36094906Y-57905719D01*
X36175719Y-57932656D01*
X36391218Y-58148155D01*
X35421471Y-57771032D02*
X35367597Y-57717157D01*
X35340659Y-57636345D01*
X35340659Y-57582470D01*
X35367597Y-57501658D01*
X35448409Y-57366971D01*
X35583096Y-57232284D01*
X35717783Y-57151471D01*
X35798595Y-57124534D01*
X35852470Y-57124534D01*
X35933282Y-57151471D01*
X35987157Y-57205346D01*
X36014094Y-57286158D01*
X36014094Y-57340033D01*
X35987157Y-57420845D01*
X35906345Y-57555532D01*
X35771658Y-57690219D01*
X35636971Y-57771032D01*
X35556158Y-57797969D01*
X35502284Y-57797969D01*
X35421471Y-57771032D01*
X49933773Y-33045211D02*
X49664399Y-32775837D01*
X50149272Y-32937462D02*
X49395025Y-33314585D01*
X49772149Y-32560338D01*
X49583587Y-32371776D02*
X49017902Y-32937462D01*
X48883215Y-32802775D01*
X48829340Y-32695025D01*
X48829340Y-32587276D01*
X48856277Y-32506463D01*
X48937089Y-32371776D01*
X49017902Y-32290964D01*
X49152589Y-32210152D01*
X49233401Y-32183215D01*
X49341150Y-32183215D01*
X49448900Y-32237089D01*
X49583587Y-32371776D01*
X48640778Y-31536717D02*
X48694653Y-31536717D01*
X48802402Y-31590592D01*
X48856277Y-31644467D01*
X48910152Y-31752216D01*
X48910152Y-31859966D01*
X48883215Y-31940778D01*
X48802402Y-32075465D01*
X48721590Y-32156277D01*
X48586903Y-32237089D01*
X48506091Y-32264027D01*
X48398341Y-32264027D01*
X48290592Y-32210152D01*
X48236717Y-32156277D01*
X48182842Y-32048528D01*
X48182842Y-31994653D01*
X48640778Y-31321218D02*
X48209780Y-30890219D01*
X47536345Y-31455905D02*
X47913468Y-30701658D01*
X47159221Y-31078781D01*
X47213096Y-30001285D02*
X47132284Y-30459221D01*
X47536345Y-30324534D02*
X46970659Y-30890219D01*
X46755160Y-30674720D01*
X46728223Y-30593908D01*
X46728223Y-30540033D01*
X46755160Y-30459221D01*
X46835972Y-30378409D01*
X46916784Y-30351471D01*
X46970659Y-30351471D01*
X47051471Y-30378409D01*
X47266971Y-30593908D01*
X46674348Y-30055160D02*
X46485786Y-29866598D01*
X46701285Y-29489475D02*
X46970659Y-29758849D01*
X46404974Y-30324534D01*
X46135600Y-30055160D01*
X45973975Y-29354788D02*
X46162537Y-29543349D01*
X46458849Y-29247038D02*
X45893163Y-29812723D01*
X45623789Y-29543349D01*
X79598155Y-58713841D02*
X79625093Y-58794653D01*
X79705905Y-58875465D01*
X79813654Y-58929340D01*
X79921404Y-58929340D01*
X80002216Y-58902402D01*
X80136903Y-58821590D01*
X80217715Y-58740778D01*
X80298528Y-58606091D01*
X80325465Y-58525279D01*
X80325465Y-58417529D01*
X80271590Y-58309780D01*
X80217715Y-58255905D01*
X80109966Y-58202030D01*
X80056091Y-58202030D01*
X79867529Y-58390592D01*
X79975279Y-58498341D01*
X79867529Y-57905719D02*
X79301844Y-58471404D01*
X79544280Y-57582470D01*
X78978595Y-58148155D01*
X79274906Y-57313096D02*
X78709221Y-57878781D01*
X78574534Y-57744094D01*
X78520659Y-57636345D01*
X78520659Y-57528595D01*
X78547597Y-57447783D01*
X78628409Y-57313096D01*
X78709221Y-57232284D01*
X78843908Y-57151471D01*
X78924720Y-57124534D01*
X79032470Y-57124534D01*
X79140219Y-57178409D01*
X79274906Y-57313096D01*
X79598155Y-33113841D02*
X79625093Y-33194653D01*
X79705905Y-33275465D01*
X79813654Y-33329340D01*
X79921404Y-33329340D01*
X80002216Y-33302402D01*
X80136903Y-33221590D01*
X80217715Y-33140778D01*
X80298528Y-33006091D01*
X80325465Y-32925279D01*
X80325465Y-32817529D01*
X80271590Y-32709780D01*
X80217715Y-32655905D01*
X80109966Y-32602030D01*
X80056091Y-32602030D01*
X79867529Y-32790592D01*
X79975279Y-32898341D01*
X79867529Y-32305719D02*
X79301844Y-32871404D01*
X79544280Y-31982470D01*
X78978595Y-32548155D01*
X79274906Y-31713096D02*
X78709221Y-32278781D01*
X78574534Y-32144094D01*
X78520659Y-32036345D01*
X78520659Y-31928595D01*
X78547597Y-31847783D01*
X78628409Y-31713096D01*
X78709221Y-31632284D01*
X78843908Y-31551471D01*
X78924720Y-31524534D01*
X79032470Y-31524534D01*
X79140219Y-31578409D01*
X79274906Y-31713096D01*
X56990592Y-33102277D02*
X57017529Y-33183089D01*
X57098341Y-33263902D01*
X57206091Y-33317776D01*
X57313841Y-33317776D01*
X57394653Y-33290839D01*
X57529340Y-33210027D01*
X57610152Y-33129215D01*
X57690964Y-32994528D01*
X57717902Y-32913715D01*
X57717902Y-32805966D01*
X57664027Y-32698216D01*
X57610152Y-32644341D01*
X57502402Y-32590467D01*
X57448528Y-32590467D01*
X57259966Y-32779028D01*
X57367715Y-32886778D01*
X57259966Y-32294155D02*
X56694280Y-32859841D01*
X56478781Y-32644341D01*
X56451844Y-32563529D01*
X56451844Y-32509654D01*
X56478781Y-32428842D01*
X56559593Y-32348030D01*
X56640406Y-32321093D01*
X56694280Y-32321093D01*
X56775093Y-32348030D01*
X56990592Y-32563529D01*
X56209407Y-32267218D02*
X56155532Y-32267218D01*
X56074720Y-32240280D01*
X55940033Y-32105593D01*
X55913096Y-32024781D01*
X55913096Y-31970906D01*
X55940033Y-31890094D01*
X55993908Y-31836219D01*
X56101658Y-31782345D01*
X56748155Y-31782345D01*
X56397969Y-31432158D01*
X55643722Y-31809282D02*
X55266598Y-31432158D01*
X56074720Y-31108910D01*
X69680592Y-59210277D02*
X69707529Y-59291089D01*
X69788341Y-59371902D01*
X69896091Y-59425776D01*
X70003841Y-59425776D01*
X70084653Y-59398839D01*
X70219340Y-59318027D01*
X70300152Y-59237215D01*
X70380964Y-59102528D01*
X70407902Y-59021715D01*
X70407902Y-58913966D01*
X70354027Y-58806216D01*
X70300152Y-58752341D01*
X70192402Y-58698467D01*
X70138528Y-58698467D01*
X69949966Y-58887028D01*
X70057715Y-58994778D01*
X69949966Y-58402155D02*
X69384280Y-58967841D01*
X69168781Y-58752341D01*
X69141844Y-58671529D01*
X69141844Y-58617654D01*
X69168781Y-58536842D01*
X69249593Y-58456030D01*
X69330406Y-58429093D01*
X69384280Y-58429093D01*
X69465093Y-58456030D01*
X69680592Y-58671529D01*
X69087969Y-57540158D02*
X69411218Y-57863407D01*
X69249593Y-57701783D02*
X68683908Y-58267468D01*
X68818595Y-58240531D01*
X68926345Y-58240531D01*
X69007157Y-58267468D01*
X68172097Y-57755658D02*
X68118223Y-57701783D01*
X68091285Y-57620971D01*
X68091285Y-57567096D01*
X68118223Y-57486284D01*
X68199035Y-57351597D01*
X68333722Y-57216910D01*
X68468409Y-57136097D01*
X68549221Y-57109160D01*
X68603096Y-57109160D01*
X68683908Y-57136097D01*
X68737783Y-57189972D01*
X68764720Y-57270784D01*
X68764720Y-57324659D01*
X68737783Y-57405471D01*
X68656971Y-57540158D01*
X68522284Y-57674845D01*
X68387597Y-57755658D01*
X68306784Y-57782595D01*
X68252910Y-57782595D01*
X68172097Y-57755658D01*
X66898155Y-58713841D02*
X66925093Y-58794653D01*
X67005905Y-58875465D01*
X67113654Y-58929340D01*
X67221404Y-58929340D01*
X67302216Y-58902402D01*
X67436903Y-58821590D01*
X67517715Y-58740778D01*
X67598528Y-58606091D01*
X67625465Y-58525279D01*
X67625465Y-58417529D01*
X67571590Y-58309780D01*
X67517715Y-58255905D01*
X67409966Y-58202030D01*
X67356091Y-58202030D01*
X67167529Y-58390592D01*
X67275279Y-58498341D01*
X67167529Y-57905719D02*
X66601844Y-58471404D01*
X66844280Y-57582470D01*
X66278595Y-58148155D01*
X66574906Y-57313096D02*
X66009221Y-57878781D01*
X65874534Y-57744094D01*
X65820659Y-57636345D01*
X65820659Y-57528595D01*
X65847597Y-57447783D01*
X65928409Y-57313096D01*
X66009221Y-57232284D01*
X66143908Y-57151471D01*
X66224720Y-57124534D01*
X66332470Y-57124534D01*
X66440219Y-57178409D01*
X66574906Y-57313096D01*
X62343435Y-32361624D02*
X62262622Y-32819560D01*
X62666683Y-32684873D02*
X62100998Y-33250558D01*
X61885499Y-33035059D01*
X61858561Y-32954247D01*
X61858561Y-32900372D01*
X61885499Y-32819560D01*
X61966311Y-32738748D01*
X62047123Y-32711810D01*
X62100998Y-32711810D01*
X62181810Y-32738748D01*
X62397309Y-32954247D01*
X61535312Y-32684873D02*
X61993248Y-32226937D01*
X62020186Y-32146125D01*
X62020186Y-32092250D01*
X61993248Y-32011438D01*
X61885499Y-31903688D01*
X61804687Y-31876751D01*
X61750812Y-31876751D01*
X61670000Y-31903688D01*
X61212064Y-32361624D01*
X61508375Y-31526564D02*
X60942690Y-32092250D01*
X61185126Y-31203316D01*
X60619441Y-31769001D01*
X86923809Y-52709523D02*
X86961904Y-52595238D01*
X86961904Y-52404761D01*
X86923809Y-52328571D01*
X86885714Y-52290476D01*
X86809523Y-52252380D01*
X86733333Y-52252380D01*
X86657142Y-52290476D01*
X86619047Y-52328571D01*
X86580952Y-52404761D01*
X86542857Y-52557142D01*
X86504761Y-52633333D01*
X86466666Y-52671428D01*
X86390476Y-52709523D01*
X86314285Y-52709523D01*
X86238095Y-52671428D01*
X86200000Y-52633333D01*
X86161904Y-52557142D01*
X86161904Y-52366666D01*
X86200000Y-52252380D01*
X86161904Y-51985714D02*
X86961904Y-51795238D01*
X86390476Y-51642857D01*
X86961904Y-51490476D01*
X86161904Y-51300000D01*
X86885714Y-50538095D02*
X86923809Y-50576190D01*
X86961904Y-50690476D01*
X86961904Y-50766666D01*
X86923809Y-50880952D01*
X86847619Y-50957142D01*
X86771428Y-50995238D01*
X86619047Y-51033333D01*
X86504761Y-51033333D01*
X86352380Y-50995238D01*
X86276190Y-50957142D01*
X86200000Y-50880952D01*
X86161904Y-50766666D01*
X86161904Y-50690476D01*
X86200000Y-50576190D01*
X86238095Y-50538095D01*
X86961904Y-49814285D02*
X86961904Y-50195238D01*
X86161904Y-50195238D01*
X86961904Y-49547619D02*
X86161904Y-49547619D01*
X86961904Y-49090476D02*
X86504761Y-49433333D01*
X86161904Y-49090476D02*
X86619047Y-49547619D01*
X59221218Y-58586903D02*
X59248155Y-58667715D01*
X59328967Y-58748528D01*
X59436717Y-58802402D01*
X59544467Y-58802402D01*
X59625279Y-58775465D01*
X59759966Y-58694653D01*
X59840778Y-58613841D01*
X59921590Y-58479154D01*
X59948528Y-58398341D01*
X59948528Y-58290592D01*
X59894653Y-58182842D01*
X59840778Y-58128967D01*
X59733028Y-58075093D01*
X59679154Y-58075093D01*
X59490592Y-58263654D01*
X59598341Y-58371404D01*
X59490592Y-57778781D02*
X58924906Y-58344467D01*
X58709407Y-58128967D01*
X58682470Y-58048155D01*
X58682470Y-57994280D01*
X58709407Y-57913468D01*
X58790219Y-57832656D01*
X58871032Y-57805719D01*
X58924906Y-57805719D01*
X59005719Y-57832656D01*
X59221218Y-58048155D01*
X58413096Y-57832656D02*
X58035972Y-57455532D01*
X58844094Y-57132284D01*
X38921218Y-58786903D02*
X38948155Y-58867715D01*
X39028967Y-58948528D01*
X39136717Y-59002402D01*
X39244467Y-59002402D01*
X39325279Y-58975465D01*
X39459966Y-58894653D01*
X39540778Y-58813841D01*
X39621590Y-58679154D01*
X39648528Y-58598341D01*
X39648528Y-58490592D01*
X39594653Y-58382842D01*
X39540778Y-58328967D01*
X39433028Y-58275093D01*
X39379154Y-58275093D01*
X39190592Y-58463654D01*
X39298341Y-58571404D01*
X39190592Y-57978781D02*
X38624906Y-58544467D01*
X38409407Y-58328967D01*
X38382470Y-58248155D01*
X38382470Y-58194280D01*
X38409407Y-58113468D01*
X38490219Y-58032656D01*
X38571032Y-58005719D01*
X38624906Y-58005719D01*
X38705719Y-58032656D01*
X38921218Y-58248155D01*
X38328595Y-57116784D02*
X38651844Y-57440033D01*
X38490219Y-57278409D02*
X37924534Y-57844094D01*
X38059221Y-57817157D01*
X38166971Y-57817157D01*
X38247783Y-57844094D01*
X72220592Y-33102277D02*
X72247529Y-33183089D01*
X72328341Y-33263902D01*
X72436091Y-33317776D01*
X72543841Y-33317776D01*
X72624653Y-33290839D01*
X72759340Y-33210027D01*
X72840152Y-33129215D01*
X72920964Y-32994528D01*
X72947902Y-32913715D01*
X72947902Y-32805966D01*
X72894027Y-32698216D01*
X72840152Y-32644341D01*
X72732402Y-32590467D01*
X72678528Y-32590467D01*
X72489966Y-32779028D01*
X72597715Y-32886778D01*
X72489966Y-32294155D02*
X71924280Y-32859841D01*
X71708781Y-32644341D01*
X71681844Y-32563529D01*
X71681844Y-32509654D01*
X71708781Y-32428842D01*
X71789593Y-32348030D01*
X71870406Y-32321093D01*
X71924280Y-32321093D01*
X72005093Y-32348030D01*
X72220592Y-32563529D01*
X71439407Y-32267218D02*
X71385532Y-32267218D01*
X71304720Y-32240280D01*
X71170033Y-32105593D01*
X71143096Y-32024781D01*
X71143096Y-31970906D01*
X71170033Y-31890094D01*
X71223908Y-31836219D01*
X71331658Y-31782345D01*
X71978155Y-31782345D01*
X71627969Y-31432158D01*
X70712097Y-31647658D02*
X70658223Y-31593783D01*
X70631285Y-31512971D01*
X70631285Y-31459096D01*
X70658223Y-31378284D01*
X70739035Y-31243597D01*
X70873722Y-31108910D01*
X71008409Y-31028097D01*
X71089221Y-31001160D01*
X71143096Y-31001160D01*
X71223908Y-31028097D01*
X71277783Y-31081972D01*
X71304720Y-31162784D01*
X71304720Y-31216659D01*
X71277783Y-31297471D01*
X71196971Y-31432158D01*
X71062284Y-31566845D01*
X70927597Y-31647658D01*
X70846784Y-31674595D01*
X70792910Y-31674595D01*
X70712097Y-31647658D01*
X49091218Y-58686903D02*
X49118155Y-58767715D01*
X49198967Y-58848528D01*
X49306717Y-58902402D01*
X49414467Y-58902402D01*
X49495279Y-58875465D01*
X49629966Y-58794653D01*
X49710778Y-58713841D01*
X49791590Y-58579154D01*
X49818528Y-58498341D01*
X49818528Y-58390592D01*
X49764653Y-58282842D01*
X49710778Y-58228967D01*
X49603028Y-58175093D01*
X49549154Y-58175093D01*
X49360592Y-58363654D01*
X49468341Y-58471404D01*
X49360592Y-57878781D02*
X48794906Y-58444467D01*
X48579407Y-58228967D01*
X48552470Y-58148155D01*
X48552470Y-58094280D01*
X48579407Y-58013468D01*
X48660219Y-57932656D01*
X48741032Y-57905719D01*
X48794906Y-57905719D01*
X48875719Y-57932656D01*
X49091218Y-58148155D01*
X48175346Y-57447783D02*
X48552470Y-57070659D01*
X48094534Y-57797969D02*
X48633282Y-57528595D01*
X48283096Y-57178409D01*
X86923809Y-41295238D02*
X86961904Y-41180952D01*
X86961904Y-40990476D01*
X86923809Y-40914285D01*
X86885714Y-40876190D01*
X86809523Y-40838095D01*
X86733333Y-40838095D01*
X86657142Y-40876190D01*
X86619047Y-40914285D01*
X86580952Y-40990476D01*
X86542857Y-41142857D01*
X86504761Y-41219047D01*
X86466666Y-41257142D01*
X86390476Y-41295238D01*
X86314285Y-41295238D01*
X86238095Y-41257142D01*
X86200000Y-41219047D01*
X86161904Y-41142857D01*
X86161904Y-40952380D01*
X86200000Y-40838095D01*
X86161904Y-40571428D02*
X86961904Y-40380952D01*
X86390476Y-40228571D01*
X86961904Y-40076190D01*
X86161904Y-39885714D01*
X86961904Y-39580952D02*
X86161904Y-39580952D01*
X86161904Y-39390476D01*
X86200000Y-39276190D01*
X86276190Y-39200000D01*
X86352380Y-39161904D01*
X86504761Y-39123809D01*
X86619047Y-39123809D01*
X86771428Y-39161904D01*
X86847619Y-39200000D01*
X86923809Y-39276190D01*
X86961904Y-39390476D01*
X86961904Y-39580952D01*
X86961904Y-38780952D02*
X86161904Y-38780952D01*
X86161904Y-38247619D02*
X86161904Y-38095238D01*
X86200000Y-38019047D01*
X86276190Y-37942857D01*
X86428571Y-37904761D01*
X86695238Y-37904761D01*
X86847619Y-37942857D01*
X86923809Y-38019047D01*
X86961904Y-38095238D01*
X86961904Y-38247619D01*
X86923809Y-38323809D01*
X86847619Y-38400000D01*
X86695238Y-38438095D01*
X86428571Y-38438095D01*
X86276190Y-38400000D01*
X86200000Y-38323809D01*
X86161904Y-38247619D01*
X84920592Y-33102277D02*
X84947529Y-33183089D01*
X85028341Y-33263902D01*
X85136091Y-33317776D01*
X85243841Y-33317776D01*
X85324653Y-33290839D01*
X85459340Y-33210027D01*
X85540152Y-33129215D01*
X85620964Y-32994528D01*
X85647902Y-32913715D01*
X85647902Y-32805966D01*
X85594027Y-32698216D01*
X85540152Y-32644341D01*
X85432402Y-32590467D01*
X85378528Y-32590467D01*
X85189966Y-32779028D01*
X85297715Y-32886778D01*
X85189966Y-32294155D02*
X84624280Y-32859841D01*
X84408781Y-32644341D01*
X84381844Y-32563529D01*
X84381844Y-32509654D01*
X84408781Y-32428842D01*
X84489593Y-32348030D01*
X84570406Y-32321093D01*
X84624280Y-32321093D01*
X84705093Y-32348030D01*
X84920592Y-32563529D01*
X84327969Y-31432158D02*
X84651218Y-31755407D01*
X84489593Y-31593783D02*
X83923908Y-32159468D01*
X84058595Y-32132531D01*
X84166345Y-32132531D01*
X84247157Y-32159468D01*
X83277410Y-31512971D02*
X83385160Y-31620720D01*
X83465972Y-31647658D01*
X83519847Y-31647658D01*
X83654534Y-31620720D01*
X83789221Y-31539908D01*
X84004720Y-31324409D01*
X84031658Y-31243597D01*
X84031658Y-31189722D01*
X84004720Y-31108910D01*
X83896971Y-31001160D01*
X83816158Y-30974223D01*
X83762284Y-30974223D01*
X83681471Y-31001160D01*
X83546784Y-31135847D01*
X83519847Y-31216659D01*
X83519847Y-31270534D01*
X83546784Y-31351346D01*
X83654534Y-31459096D01*
X83735346Y-31486033D01*
X83789221Y-31486033D01*
X83870033Y-31459096D01*
X64331218Y-58686903D02*
X64358155Y-58767715D01*
X64438967Y-58848528D01*
X64546717Y-58902402D01*
X64654467Y-58902402D01*
X64735279Y-58875465D01*
X64869966Y-58794653D01*
X64950778Y-58713841D01*
X65031590Y-58579154D01*
X65058528Y-58498341D01*
X65058528Y-58390592D01*
X65004653Y-58282842D01*
X64950778Y-58228967D01*
X64843028Y-58175093D01*
X64789154Y-58175093D01*
X64600592Y-58363654D01*
X64708341Y-58471404D01*
X64600592Y-57878781D02*
X64034906Y-58444467D01*
X63819407Y-58228967D01*
X63792470Y-58148155D01*
X63792470Y-58094280D01*
X63819407Y-58013468D01*
X63900219Y-57932656D01*
X63981032Y-57905719D01*
X64034906Y-57905719D01*
X64115719Y-57932656D01*
X64331218Y-58148155D01*
X64007969Y-57286158D02*
X63900219Y-57178409D01*
X63819407Y-57151471D01*
X63765532Y-57151471D01*
X63630845Y-57178409D01*
X63496158Y-57259221D01*
X63280659Y-57474720D01*
X63253722Y-57555532D01*
X63253722Y-57609407D01*
X63280659Y-57690219D01*
X63388409Y-57797969D01*
X63469221Y-57824906D01*
X63523096Y-57824906D01*
X63603908Y-57797969D01*
X63738595Y-57663282D01*
X63765532Y-57582470D01*
X63765532Y-57528595D01*
X63738595Y-57447783D01*
X63630845Y-57340033D01*
X63550033Y-57313096D01*
X63496158Y-57313096D01*
X63415346Y-57340033D01*
X64600592Y-33102277D02*
X64627529Y-33183089D01*
X64708341Y-33263902D01*
X64816091Y-33317776D01*
X64923841Y-33317776D01*
X65004653Y-33290839D01*
X65139340Y-33210027D01*
X65220152Y-33129215D01*
X65300964Y-32994528D01*
X65327902Y-32913715D01*
X65327902Y-32805966D01*
X65274027Y-32698216D01*
X65220152Y-32644341D01*
X65112402Y-32590467D01*
X65058528Y-32590467D01*
X64869966Y-32779028D01*
X64977715Y-32886778D01*
X64869966Y-32294155D02*
X64304280Y-32859841D01*
X64088781Y-32644341D01*
X64061844Y-32563529D01*
X64061844Y-32509654D01*
X64088781Y-32428842D01*
X64169593Y-32348030D01*
X64250406Y-32321093D01*
X64304280Y-32321093D01*
X64385093Y-32348030D01*
X64600592Y-32563529D01*
X63819407Y-32267218D02*
X63765532Y-32267218D01*
X63684720Y-32240280D01*
X63550033Y-32105593D01*
X63523096Y-32024781D01*
X63523096Y-31970906D01*
X63550033Y-31890094D01*
X63603908Y-31836219D01*
X63711658Y-31782345D01*
X64358155Y-31782345D01*
X64007969Y-31432158D01*
X63280659Y-31728470D02*
X63226784Y-31728470D01*
X63145972Y-31701532D01*
X63011285Y-31566845D01*
X62984348Y-31486033D01*
X62984348Y-31432158D01*
X63011285Y-31351346D01*
X63065160Y-31297471D01*
X63172910Y-31243597D01*
X63819407Y-31243597D01*
X63469221Y-30893410D01*
X39469966Y-33279526D02*
X39847089Y-32525279D01*
X39092842Y-32902402D01*
X39469966Y-32202030D02*
X39416091Y-32094280D01*
X39281404Y-31959593D01*
X39200592Y-31932656D01*
X39146717Y-31932656D01*
X39065905Y-31959593D01*
X39012030Y-32013468D01*
X38985093Y-32094280D01*
X38985093Y-32148155D01*
X39012030Y-32228967D01*
X39092842Y-32363654D01*
X39119780Y-32444467D01*
X39119780Y-32498341D01*
X39092842Y-32579154D01*
X39038967Y-32633028D01*
X38958155Y-32659966D01*
X38904280Y-32659966D01*
X38823468Y-32633028D01*
X38688781Y-32498341D01*
X38634906Y-32390592D01*
X38554094Y-31771032D02*
X38823468Y-31501658D01*
X38446345Y-32255905D02*
X38554094Y-31771032D01*
X38069221Y-31878781D01*
X38446345Y-31178409D02*
X38392470Y-31070659D01*
X38257783Y-30935972D01*
X38176971Y-30909035D01*
X38123096Y-30909035D01*
X38042284Y-30935972D01*
X37988409Y-30989847D01*
X37961471Y-31070659D01*
X37961471Y-31124534D01*
X37988409Y-31205346D01*
X38069221Y-31340033D01*
X38096158Y-31420845D01*
X38096158Y-31474720D01*
X38069221Y-31555532D01*
X38015346Y-31609407D01*
X37934534Y-31636345D01*
X37880659Y-31636345D01*
X37799847Y-31609407D01*
X37665160Y-31474720D01*
X37611285Y-31366971D01*
X69690592Y-33102277D02*
X69717529Y-33183089D01*
X69798341Y-33263902D01*
X69906091Y-33317776D01*
X70013841Y-33317776D01*
X70094653Y-33290839D01*
X70229340Y-33210027D01*
X70310152Y-33129215D01*
X70390964Y-32994528D01*
X70417902Y-32913715D01*
X70417902Y-32805966D01*
X70364027Y-32698216D01*
X70310152Y-32644341D01*
X70202402Y-32590467D01*
X70148528Y-32590467D01*
X69959966Y-32779028D01*
X70067715Y-32886778D01*
X69959966Y-32294155D02*
X69394280Y-32859841D01*
X69178781Y-32644341D01*
X69151844Y-32563529D01*
X69151844Y-32509654D01*
X69178781Y-32428842D01*
X69259593Y-32348030D01*
X69340406Y-32321093D01*
X69394280Y-32321093D01*
X69475093Y-32348030D01*
X69690592Y-32563529D01*
X68909407Y-32267218D02*
X68855532Y-32267218D01*
X68774720Y-32240280D01*
X68640033Y-32105593D01*
X68613096Y-32024781D01*
X68613096Y-31970906D01*
X68640033Y-31890094D01*
X68693908Y-31836219D01*
X68801658Y-31782345D01*
X69448155Y-31782345D01*
X69097969Y-31432158D01*
X68559221Y-30893410D02*
X68882470Y-31216659D01*
X68720845Y-31055035D02*
X68155160Y-31620720D01*
X68289847Y-31593783D01*
X68397597Y-31593783D01*
X68478409Y-31620720D01*
X66898155Y-33113841D02*
X66925093Y-33194653D01*
X67005905Y-33275465D01*
X67113654Y-33329340D01*
X67221404Y-33329340D01*
X67302216Y-33302402D01*
X67436903Y-33221590D01*
X67517715Y-33140778D01*
X67598528Y-33006091D01*
X67625465Y-32925279D01*
X67625465Y-32817529D01*
X67571590Y-32709780D01*
X67517715Y-32655905D01*
X67409966Y-32602030D01*
X67356091Y-32602030D01*
X67167529Y-32790592D01*
X67275279Y-32898341D01*
X67167529Y-32305719D02*
X66601844Y-32871404D01*
X66844280Y-31982470D01*
X66278595Y-32548155D01*
X66574906Y-31713096D02*
X66009221Y-32278781D01*
X65874534Y-32144094D01*
X65820659Y-32036345D01*
X65820659Y-31928595D01*
X65847597Y-31847783D01*
X65928409Y-31713096D01*
X66009221Y-31632284D01*
X66143908Y-31551471D01*
X66224720Y-31524534D01*
X66332470Y-31524534D01*
X66440219Y-31578409D01*
X66574906Y-31713096D01*
X56711218Y-58686903D02*
X56738155Y-58767715D01*
X56818967Y-58848528D01*
X56926717Y-58902402D01*
X57034467Y-58902402D01*
X57115279Y-58875465D01*
X57249966Y-58794653D01*
X57330778Y-58713841D01*
X57411590Y-58579154D01*
X57438528Y-58498341D01*
X57438528Y-58390592D01*
X57384653Y-58282842D01*
X57330778Y-58228967D01*
X57223028Y-58175093D01*
X57169154Y-58175093D01*
X56980592Y-58363654D01*
X57088341Y-58471404D01*
X56980592Y-57878781D02*
X56414906Y-58444467D01*
X56199407Y-58228967D01*
X56172470Y-58148155D01*
X56172470Y-58094280D01*
X56199407Y-58013468D01*
X56280219Y-57932656D01*
X56361032Y-57905719D01*
X56414906Y-57905719D01*
X56495719Y-57932656D01*
X56711218Y-58148155D01*
X55606784Y-57636345D02*
X55714534Y-57744094D01*
X55795346Y-57771032D01*
X55849221Y-57771032D01*
X55983908Y-57744094D01*
X56118595Y-57663282D01*
X56334094Y-57447783D01*
X56361032Y-57366971D01*
X56361032Y-57313096D01*
X56334094Y-57232284D01*
X56226345Y-57124534D01*
X56145532Y-57097597D01*
X56091658Y-57097597D01*
X56010845Y-57124534D01*
X55876158Y-57259221D01*
X55849221Y-57340033D01*
X55849221Y-57393908D01*
X55876158Y-57474720D01*
X55983908Y-57582470D01*
X56064720Y-57609407D01*
X56118595Y-57609407D01*
X56199407Y-57582470D01*
X74760592Y-59356277D02*
X74787529Y-59437089D01*
X74868341Y-59517902D01*
X74976091Y-59571776D01*
X75083841Y-59571776D01*
X75164653Y-59544839D01*
X75299340Y-59464027D01*
X75380152Y-59383215D01*
X75460964Y-59248528D01*
X75487902Y-59167715D01*
X75487902Y-59059966D01*
X75434027Y-58952216D01*
X75380152Y-58898341D01*
X75272402Y-58844467D01*
X75218528Y-58844467D01*
X75029966Y-59033028D01*
X75137715Y-59140778D01*
X75029966Y-58548155D02*
X74464280Y-59113841D01*
X74248781Y-58898341D01*
X74221844Y-58817529D01*
X74221844Y-58763654D01*
X74248781Y-58682842D01*
X74329593Y-58602030D01*
X74410406Y-58575093D01*
X74464280Y-58575093D01*
X74545093Y-58602030D01*
X74760592Y-58817529D01*
X74167969Y-57686158D02*
X74491218Y-58009407D01*
X74329593Y-57847783D02*
X73763908Y-58413468D01*
X73898595Y-58386531D01*
X74006345Y-58386531D01*
X74087157Y-58413468D01*
X73440659Y-57982470D02*
X73386784Y-57982470D01*
X73305972Y-57955532D01*
X73171285Y-57820845D01*
X73144348Y-57740033D01*
X73144348Y-57686158D01*
X73171285Y-57605346D01*
X73225160Y-57551471D01*
X73332910Y-57497597D01*
X73979407Y-57497597D01*
X73629221Y-57147410D01*
X55140964Y-33048402D02*
X54871590Y-32779028D01*
X55356463Y-32940653D02*
X54602216Y-33317776D01*
X54979340Y-32563529D01*
X53955719Y-32617404D02*
X53982656Y-32698216D01*
X54063468Y-32779028D01*
X54171218Y-32832903D01*
X54278967Y-32832903D01*
X54359780Y-32805966D01*
X54494467Y-32725154D01*
X54575279Y-32644341D01*
X54656091Y-32509654D01*
X54683028Y-32428842D01*
X54683028Y-32321093D01*
X54629154Y-32213343D01*
X54575279Y-32159468D01*
X54467529Y-32105593D01*
X54413654Y-32105593D01*
X54225093Y-32294155D01*
X54332842Y-32401905D01*
X54225093Y-31809282D02*
X53659407Y-32374967D01*
X53901844Y-31486033D01*
X53336158Y-32051719D01*
X53632470Y-31216659D02*
X53066784Y-31782345D01*
X52932097Y-31647658D01*
X52878223Y-31539908D01*
X52878223Y-31432158D01*
X52905160Y-31351346D01*
X52985972Y-31216659D01*
X53066784Y-31135847D01*
X53201471Y-31055035D01*
X53282284Y-31028097D01*
X53390033Y-31028097D01*
X53497783Y-31081972D01*
X53632470Y-31216659D01*
X36927309Y-33246870D02*
X37304433Y-32492622D01*
X36550186Y-32869746D01*
X36442436Y-32223248D02*
X36388561Y-32115499D01*
X36388561Y-32061624D01*
X36415499Y-31980812D01*
X36496311Y-31899999D01*
X36577123Y-31873062D01*
X36630998Y-31873062D01*
X36711810Y-31900000D01*
X36927309Y-32115499D01*
X36361624Y-32681184D01*
X36173062Y-32492622D01*
X36146125Y-32411810D01*
X36146125Y-32357935D01*
X36173062Y-32277123D01*
X36226937Y-32223248D01*
X36307749Y-32196311D01*
X36361624Y-32196311D01*
X36442436Y-32223248D01*
X36630998Y-32411810D01*
X35795938Y-32115499D02*
X36253874Y-31657563D01*
X36280812Y-31576751D01*
X36280812Y-31522876D01*
X36253874Y-31442064D01*
X36146125Y-31334314D01*
X36065312Y-31307377D01*
X36011438Y-31307377D01*
X35930625Y-31334314D01*
X35472690Y-31792250D01*
X35769001Y-31011065D02*
X35715126Y-30903316D01*
X35580439Y-30768629D01*
X35499627Y-30741691D01*
X35445752Y-30741691D01*
X35364940Y-30768629D01*
X35311065Y-30822503D01*
X35284128Y-30903316D01*
X35284128Y-30957190D01*
X35311065Y-31038003D01*
X35391877Y-31172690D01*
X35418815Y-31253502D01*
X35418815Y-31307377D01*
X35391877Y-31388189D01*
X35338003Y-31442064D01*
X35257190Y-31469001D01*
X35203316Y-31469001D01*
X35122503Y-31442064D01*
X34987816Y-31307377D01*
X34933942Y-31199627D01*
X82380592Y-59256277D02*
X82407529Y-59337089D01*
X82488341Y-59417902D01*
X82596091Y-59471776D01*
X82703841Y-59471776D01*
X82784653Y-59444839D01*
X82919340Y-59364027D01*
X83000152Y-59283215D01*
X83080964Y-59148528D01*
X83107902Y-59067715D01*
X83107902Y-58959966D01*
X83054027Y-58852216D01*
X83000152Y-58798341D01*
X82892402Y-58744467D01*
X82838528Y-58744467D01*
X82649966Y-58933028D01*
X82757715Y-59040778D01*
X82649966Y-58448155D02*
X82084280Y-59013841D01*
X81868781Y-58798341D01*
X81841844Y-58717529D01*
X81841844Y-58663654D01*
X81868781Y-58582842D01*
X81949593Y-58502030D01*
X82030406Y-58475093D01*
X82084280Y-58475093D01*
X82165093Y-58502030D01*
X82380592Y-58717529D01*
X81787969Y-57586158D02*
X82111218Y-57909407D01*
X81949593Y-57747783D02*
X81383908Y-58313468D01*
X81518595Y-58286531D01*
X81626345Y-58286531D01*
X81707157Y-58313468D01*
X80925972Y-57478409D02*
X81303096Y-57101285D01*
X80845160Y-57828595D02*
X81383908Y-57559221D01*
X81033722Y-57209035D01*
X82380592Y-33102277D02*
X82407529Y-33183089D01*
X82488341Y-33263902D01*
X82596091Y-33317776D01*
X82703841Y-33317776D01*
X82784653Y-33290839D01*
X82919340Y-33210027D01*
X83000152Y-33129215D01*
X83080964Y-32994528D01*
X83107902Y-32913715D01*
X83107902Y-32805966D01*
X83054027Y-32698216D01*
X83000152Y-32644341D01*
X82892402Y-32590467D01*
X82838528Y-32590467D01*
X82649966Y-32779028D01*
X82757715Y-32886778D01*
X82649966Y-32294155D02*
X82084280Y-32859841D01*
X81868781Y-32644341D01*
X81841844Y-32563529D01*
X81841844Y-32509654D01*
X81868781Y-32428842D01*
X81949593Y-32348030D01*
X82030406Y-32321093D01*
X82084280Y-32321093D01*
X82165093Y-32348030D01*
X82380592Y-32563529D01*
X81787969Y-31432158D02*
X82111218Y-31755407D01*
X81949593Y-31593783D02*
X81383908Y-32159468D01*
X81518595Y-32132531D01*
X81626345Y-32132531D01*
X81707157Y-32159468D01*
X81033722Y-31809282D02*
X80656598Y-31432158D01*
X81464720Y-31108910D01*
X77300592Y-59210277D02*
X77327529Y-59291089D01*
X77408341Y-59371902D01*
X77516091Y-59425776D01*
X77623841Y-59425776D01*
X77704653Y-59398839D01*
X77839340Y-59318027D01*
X77920152Y-59237215D01*
X78000964Y-59102528D01*
X78027902Y-59021715D01*
X78027902Y-58913966D01*
X77974027Y-58806216D01*
X77920152Y-58752341D01*
X77812402Y-58698467D01*
X77758528Y-58698467D01*
X77569966Y-58887028D01*
X77677715Y-58994778D01*
X77569966Y-58402155D02*
X77004280Y-58967841D01*
X76788781Y-58752341D01*
X76761844Y-58671529D01*
X76761844Y-58617654D01*
X76788781Y-58536842D01*
X76869593Y-58456030D01*
X76950406Y-58429093D01*
X77004280Y-58429093D01*
X77085093Y-58456030D01*
X77300592Y-58671529D01*
X76707969Y-57540158D02*
X77031218Y-57863407D01*
X76869593Y-57701783D02*
X76303908Y-58267468D01*
X76438595Y-58240531D01*
X76546345Y-58240531D01*
X76627157Y-58267468D01*
X75953722Y-57917282D02*
X75603536Y-57567096D01*
X76007597Y-57540158D01*
X75926784Y-57459346D01*
X75899847Y-57378534D01*
X75899847Y-57324659D01*
X75926784Y-57243847D01*
X76061471Y-57109160D01*
X76142284Y-57082223D01*
X76196158Y-57082223D01*
X76276971Y-57109160D01*
X76438595Y-57270784D01*
X76465532Y-57351597D01*
X76465532Y-57405471D01*
X51646592Y-33102277D02*
X51673529Y-33183089D01*
X51754341Y-33263902D01*
X51862091Y-33317776D01*
X51969841Y-33317776D01*
X52050653Y-33290839D01*
X52185340Y-33210027D01*
X52266152Y-33129215D01*
X52346964Y-32994528D01*
X52373902Y-32913715D01*
X52373902Y-32805966D01*
X52320027Y-32698216D01*
X52266152Y-32644341D01*
X52158402Y-32590467D01*
X52104528Y-32590467D01*
X51915966Y-32779028D01*
X52023715Y-32886778D01*
X51915966Y-32294155D02*
X51350280Y-32859841D01*
X51134781Y-32644341D01*
X51107844Y-32563529D01*
X51107844Y-32509654D01*
X51134781Y-32428842D01*
X51215593Y-32348030D01*
X51296406Y-32321093D01*
X51350280Y-32321093D01*
X51431093Y-32348030D01*
X51646592Y-32563529D01*
X50865407Y-32267218D02*
X50811532Y-32267218D01*
X50730720Y-32240280D01*
X50596033Y-32105593D01*
X50569096Y-32024781D01*
X50569096Y-31970906D01*
X50596033Y-31890094D01*
X50649908Y-31836219D01*
X50757658Y-31782345D01*
X51404155Y-31782345D01*
X51053969Y-31432158D01*
X50407471Y-31432158D02*
X50434409Y-31512971D01*
X50434409Y-31566845D01*
X50407471Y-31647658D01*
X50380534Y-31674595D01*
X50299722Y-31701532D01*
X50245847Y-31701532D01*
X50165035Y-31674595D01*
X50057285Y-31566845D01*
X50030348Y-31486033D01*
X50030348Y-31432158D01*
X50057285Y-31351346D01*
X50084223Y-31324409D01*
X50165035Y-31297471D01*
X50218910Y-31297471D01*
X50299722Y-31324409D01*
X50407471Y-31432158D01*
X50488284Y-31459096D01*
X50542158Y-31459096D01*
X50622971Y-31432158D01*
X50730720Y-31324409D01*
X50757658Y-31243597D01*
X50757658Y-31189722D01*
X50730720Y-31108910D01*
X50622971Y-31001160D01*
X50542158Y-30974223D01*
X50488284Y-30974223D01*
X50407471Y-31001160D01*
X50299722Y-31108910D01*
X50272784Y-31189722D01*
X50272784Y-31243597D01*
X50299722Y-31324409D01*
X59520592Y-33102277D02*
X59547529Y-33183089D01*
X59628341Y-33263902D01*
X59736091Y-33317776D01*
X59843841Y-33317776D01*
X59924653Y-33290839D01*
X60059340Y-33210027D01*
X60140152Y-33129215D01*
X60220964Y-32994528D01*
X60247902Y-32913715D01*
X60247902Y-32805966D01*
X60194027Y-32698216D01*
X60140152Y-32644341D01*
X60032402Y-32590467D01*
X59978528Y-32590467D01*
X59789966Y-32779028D01*
X59897715Y-32886778D01*
X59789966Y-32294155D02*
X59224280Y-32859841D01*
X59008781Y-32644341D01*
X58981844Y-32563529D01*
X58981844Y-32509654D01*
X59008781Y-32428842D01*
X59089593Y-32348030D01*
X59170406Y-32321093D01*
X59224280Y-32321093D01*
X59305093Y-32348030D01*
X59520592Y-32563529D01*
X58739407Y-32267218D02*
X58685532Y-32267218D01*
X58604720Y-32240280D01*
X58470033Y-32105593D01*
X58443096Y-32024781D01*
X58443096Y-31970906D01*
X58470033Y-31890094D01*
X58523908Y-31836219D01*
X58631658Y-31782345D01*
X59278155Y-31782345D01*
X58927969Y-31432158D01*
X57877410Y-31512971D02*
X57985160Y-31620720D01*
X58065972Y-31647658D01*
X58119847Y-31647658D01*
X58254534Y-31620720D01*
X58389221Y-31539908D01*
X58604720Y-31324409D01*
X58631658Y-31243597D01*
X58631658Y-31189722D01*
X58604720Y-31108910D01*
X58496971Y-31001160D01*
X58416158Y-30974223D01*
X58362284Y-30974223D01*
X58281471Y-31001160D01*
X58146784Y-31135847D01*
X58119847Y-31216659D01*
X58119847Y-31270534D01*
X58146784Y-31351346D01*
X58254534Y-31459096D01*
X58335346Y-31486033D01*
X58389221Y-31486033D01*
X58470033Y-31459096D01*
X44011218Y-58786903D02*
X44038155Y-58867715D01*
X44118967Y-58948528D01*
X44226717Y-59002402D01*
X44334467Y-59002402D01*
X44415279Y-58975465D01*
X44549966Y-58894653D01*
X44630778Y-58813841D01*
X44711590Y-58679154D01*
X44738528Y-58598341D01*
X44738528Y-58490592D01*
X44684653Y-58382842D01*
X44630778Y-58328967D01*
X44523028Y-58275093D01*
X44469154Y-58275093D01*
X44280592Y-58463654D01*
X44388341Y-58571404D01*
X44280592Y-57978781D02*
X43714906Y-58544467D01*
X43499407Y-58328967D01*
X43472470Y-58248155D01*
X43472470Y-58194280D01*
X43499407Y-58113468D01*
X43580219Y-58032656D01*
X43661032Y-58005719D01*
X43714906Y-58005719D01*
X43795719Y-58032656D01*
X44011218Y-58248155D01*
X43230033Y-57951844D02*
X43176158Y-57951844D01*
X43095346Y-57924906D01*
X42960659Y-57790219D01*
X42933722Y-57709407D01*
X42933722Y-57655532D01*
X42960659Y-57574720D01*
X43014534Y-57520845D01*
X43122284Y-57466971D01*
X43768781Y-57466971D01*
X43418595Y-57116784D01*
X41498155Y-33113841D02*
X41525093Y-33194653D01*
X41605905Y-33275465D01*
X41713654Y-33329340D01*
X41821404Y-33329340D01*
X41902216Y-33302402D01*
X42036903Y-33221590D01*
X42117715Y-33140778D01*
X42198528Y-33006091D01*
X42225465Y-32925279D01*
X42225465Y-32817529D01*
X42171590Y-32709780D01*
X42117715Y-32655905D01*
X42009966Y-32602030D01*
X41956091Y-32602030D01*
X41767529Y-32790592D01*
X41875279Y-32898341D01*
X41767529Y-32305719D02*
X41201844Y-32871404D01*
X41444280Y-31982470D01*
X40878595Y-32548155D01*
X41174906Y-31713096D02*
X40609221Y-32278781D01*
X40474534Y-32144094D01*
X40420659Y-32036345D01*
X40420659Y-31928595D01*
X40447597Y-31847783D01*
X40528409Y-31713096D01*
X40609221Y-31632284D01*
X40743908Y-31551471D01*
X40824720Y-31524534D01*
X40932470Y-31524534D01*
X41040219Y-31578409D01*
X41174906Y-31713096D01*
X46890592Y-33310152D02*
X46540406Y-32959966D01*
X46944467Y-32933028D01*
X46863654Y-32852216D01*
X46836717Y-32771404D01*
X46836717Y-32717529D01*
X46863654Y-32636717D01*
X46998341Y-32502030D01*
X47079154Y-32475093D01*
X47133028Y-32475093D01*
X47213841Y-32502030D01*
X47375465Y-32663654D01*
X47402402Y-32744467D01*
X47402402Y-32798341D01*
X46378781Y-32798341D02*
X46755905Y-32044094D01*
X46001658Y-32421218D01*
X45866971Y-32286531D02*
X45516784Y-31936345D01*
X45920845Y-31909407D01*
X45840033Y-31828595D01*
X45813096Y-31747783D01*
X45813096Y-31693908D01*
X45840033Y-31613096D01*
X45974720Y-31478409D01*
X46055532Y-31451471D01*
X46109407Y-31451471D01*
X46190219Y-31478409D01*
X46351844Y-31640033D01*
X46378781Y-31720845D01*
X46378781Y-31774720D01*
X54198155Y-58713841D02*
X54225093Y-58794653D01*
X54305905Y-58875465D01*
X54413654Y-58929340D01*
X54521404Y-58929340D01*
X54602216Y-58902402D01*
X54736903Y-58821590D01*
X54817715Y-58740778D01*
X54898528Y-58606091D01*
X54925465Y-58525279D01*
X54925465Y-58417529D01*
X54871590Y-58309780D01*
X54817715Y-58255905D01*
X54709966Y-58202030D01*
X54656091Y-58202030D01*
X54467529Y-58390592D01*
X54575279Y-58498341D01*
X54467529Y-57905719D02*
X53901844Y-58471404D01*
X54144280Y-57582470D01*
X53578595Y-58148155D01*
X53874906Y-57313096D02*
X53309221Y-57878781D01*
X53174534Y-57744094D01*
X53120659Y-57636345D01*
X53120659Y-57528595D01*
X53147597Y-57447783D01*
X53228409Y-57313096D01*
X53309221Y-57232284D01*
X53443908Y-57151471D01*
X53524720Y-57124534D01*
X53632470Y-57124534D01*
X53740219Y-57178409D01*
X53874906Y-57313096D01*
X72220592Y-59356277D02*
X72247529Y-59437089D01*
X72328341Y-59517902D01*
X72436091Y-59571776D01*
X72543841Y-59571776D01*
X72624653Y-59544839D01*
X72759340Y-59464027D01*
X72840152Y-59383215D01*
X72920964Y-59248528D01*
X72947902Y-59167715D01*
X72947902Y-59059966D01*
X72894027Y-58952216D01*
X72840152Y-58898341D01*
X72732402Y-58844467D01*
X72678528Y-58844467D01*
X72489966Y-59033028D01*
X72597715Y-59140778D01*
X72489966Y-58548155D02*
X71924280Y-59113841D01*
X71708781Y-58898341D01*
X71681844Y-58817529D01*
X71681844Y-58763654D01*
X71708781Y-58682842D01*
X71789593Y-58602030D01*
X71870406Y-58575093D01*
X71924280Y-58575093D01*
X72005093Y-58602030D01*
X72220592Y-58817529D01*
X71627969Y-57686158D02*
X71951218Y-58009407D01*
X71789593Y-57847783D02*
X71223908Y-58413468D01*
X71358595Y-58386531D01*
X71466345Y-58386531D01*
X71547157Y-58413468D01*
X71089221Y-57147410D02*
X71412470Y-57470659D01*
X71250845Y-57309035D02*
X70685160Y-57874720D01*
X70819847Y-57847783D01*
X70927597Y-57847783D01*
X71008409Y-57874720D01*
X61791218Y-58686903D02*
X61818155Y-58767715D01*
X61898967Y-58848528D01*
X62006717Y-58902402D01*
X62114467Y-58902402D01*
X62195279Y-58875465D01*
X62329966Y-58794653D01*
X62410778Y-58713841D01*
X62491590Y-58579154D01*
X62518528Y-58498341D01*
X62518528Y-58390592D01*
X62464653Y-58282842D01*
X62410778Y-58228967D01*
X62303028Y-58175093D01*
X62249154Y-58175093D01*
X62060592Y-58363654D01*
X62168341Y-58471404D01*
X62060592Y-57878781D02*
X61494906Y-58444467D01*
X61279407Y-58228967D01*
X61252470Y-58148155D01*
X61252470Y-58094280D01*
X61279407Y-58013468D01*
X61360219Y-57932656D01*
X61441032Y-57905719D01*
X61494906Y-57905719D01*
X61575719Y-57932656D01*
X61791218Y-58148155D01*
X61090845Y-57555532D02*
X61117783Y-57636345D01*
X61117783Y-57690219D01*
X61090845Y-57771032D01*
X61063908Y-57797969D01*
X60983096Y-57824906D01*
X60929221Y-57824906D01*
X60848409Y-57797969D01*
X60740659Y-57690219D01*
X60713722Y-57609407D01*
X60713722Y-57555532D01*
X60740659Y-57474720D01*
X60767597Y-57447783D01*
X60848409Y-57420845D01*
X60902284Y-57420845D01*
X60983096Y-57447783D01*
X61090845Y-57555532D01*
X61171658Y-57582470D01*
X61225532Y-57582470D01*
X61306345Y-57555532D01*
X61414094Y-57447783D01*
X61441032Y-57366971D01*
X61441032Y-57313096D01*
X61414094Y-57232284D01*
X61306345Y-57124534D01*
X61225532Y-57097597D01*
X61171658Y-57097597D01*
X61090845Y-57124534D01*
X60983096Y-57232284D01*
X60956158Y-57313096D01*
X60956158Y-57366971D01*
X60983096Y-57447783D01*
X84920592Y-59210277D02*
X84947529Y-59291089D01*
X85028341Y-59371902D01*
X85136091Y-59425776D01*
X85243841Y-59425776D01*
X85324653Y-59398839D01*
X85459340Y-59318027D01*
X85540152Y-59237215D01*
X85620964Y-59102528D01*
X85647902Y-59021715D01*
X85647902Y-58913966D01*
X85594027Y-58806216D01*
X85540152Y-58752341D01*
X85432402Y-58698467D01*
X85378528Y-58698467D01*
X85189966Y-58887028D01*
X85297715Y-58994778D01*
X85189966Y-58402155D02*
X84624280Y-58967841D01*
X84408781Y-58752341D01*
X84381844Y-58671529D01*
X84381844Y-58617654D01*
X84408781Y-58536842D01*
X84489593Y-58456030D01*
X84570406Y-58429093D01*
X84624280Y-58429093D01*
X84705093Y-58456030D01*
X84920592Y-58671529D01*
X84327969Y-57540158D02*
X84651218Y-57863407D01*
X84489593Y-57701783D02*
X83923908Y-58267468D01*
X84058595Y-58240531D01*
X84166345Y-58240531D01*
X84247157Y-58267468D01*
X83250473Y-57594033D02*
X83519847Y-57863407D01*
X83816158Y-57620971D01*
X83762284Y-57620971D01*
X83681471Y-57594033D01*
X83546784Y-57459346D01*
X83519847Y-57378534D01*
X83519847Y-57324659D01*
X83546784Y-57243847D01*
X83681471Y-57109160D01*
X83762284Y-57082223D01*
X83816158Y-57082223D01*
X83896971Y-57109160D01*
X84031658Y-57243847D01*
X84058595Y-57324659D01*
X84058595Y-57378534D01*
X77300592Y-33102277D02*
X77327529Y-33183089D01*
X77408341Y-33263902D01*
X77516091Y-33317776D01*
X77623841Y-33317776D01*
X77704653Y-33290839D01*
X77839340Y-33210027D01*
X77920152Y-33129215D01*
X78000964Y-32994528D01*
X78027902Y-32913715D01*
X78027902Y-32805966D01*
X77974027Y-32698216D01*
X77920152Y-32644341D01*
X77812402Y-32590467D01*
X77758528Y-32590467D01*
X77569966Y-32779028D01*
X77677715Y-32886778D01*
X77569966Y-32294155D02*
X77004280Y-32859841D01*
X76788781Y-32644341D01*
X76761844Y-32563529D01*
X76761844Y-32509654D01*
X76788781Y-32428842D01*
X76869593Y-32348030D01*
X76950406Y-32321093D01*
X77004280Y-32321093D01*
X77085093Y-32348030D01*
X77300592Y-32563529D01*
X76707969Y-31432158D02*
X77031218Y-31755407D01*
X76869593Y-31593783D02*
X76303908Y-32159468D01*
X76438595Y-32132531D01*
X76546345Y-32132531D01*
X76627157Y-32159468D01*
X76061471Y-31432158D02*
X76088409Y-31512971D01*
X76088409Y-31566845D01*
X76061471Y-31647658D01*
X76034534Y-31674595D01*
X75953722Y-31701532D01*
X75899847Y-31701532D01*
X75819035Y-31674595D01*
X75711285Y-31566845D01*
X75684348Y-31486033D01*
X75684348Y-31432158D01*
X75711285Y-31351346D01*
X75738223Y-31324409D01*
X75819035Y-31297471D01*
X75872910Y-31297471D01*
X75953722Y-31324409D01*
X76061471Y-31432158D01*
X76142284Y-31459096D01*
X76196158Y-31459096D01*
X76276971Y-31432158D01*
X76384720Y-31324409D01*
X76411658Y-31243597D01*
X76411658Y-31189722D01*
X76384720Y-31108910D01*
X76276971Y-31001160D01*
X76196158Y-30974223D01*
X76142284Y-30974223D01*
X76061471Y-31001160D01*
X75953722Y-31108910D01*
X75926784Y-31189722D01*
X75926784Y-31243597D01*
X75953722Y-31324409D01*
X44358308Y-33277868D02*
X44008122Y-32927682D01*
X44412183Y-32900744D01*
X44331370Y-32819932D01*
X44304433Y-32739120D01*
X44304433Y-32685245D01*
X44331370Y-32604433D01*
X44466057Y-32469746D01*
X44546870Y-32442809D01*
X44600744Y-32442809D01*
X44681557Y-32469746D01*
X44843181Y-32631370D01*
X44870118Y-32712183D01*
X44870118Y-32766057D01*
X43846497Y-32766057D02*
X44223621Y-32011810D01*
X43469374Y-32388934D01*
X43334687Y-32254247D02*
X42984500Y-31904061D01*
X43388561Y-31877123D01*
X43307749Y-31796311D01*
X43280812Y-31715499D01*
X43280812Y-31661624D01*
X43307749Y-31580812D01*
X43442436Y-31446125D01*
X43523248Y-31419187D01*
X43577123Y-31419187D01*
X43657935Y-31446125D01*
X43819560Y-31607749D01*
X43846497Y-31688561D01*
X43846497Y-31742436D01*
X43496311Y-31176751D02*
X43065312Y-30745752D01*
X42580439Y-30961251D02*
X42391877Y-30772690D01*
X42607377Y-30395566D02*
X42876751Y-30664940D01*
X42311065Y-31230625D01*
X42041691Y-30961251D01*
X42364940Y-30153129D02*
X41799255Y-30718815D01*
X42041691Y-29829881D01*
X41476006Y-30395566D01*
X51631218Y-58686903D02*
X51658155Y-58767715D01*
X51738967Y-58848528D01*
X51846717Y-58902402D01*
X51954467Y-58902402D01*
X52035279Y-58875465D01*
X52169966Y-58794653D01*
X52250778Y-58713841D01*
X52331590Y-58579154D01*
X52358528Y-58498341D01*
X52358528Y-58390592D01*
X52304653Y-58282842D01*
X52250778Y-58228967D01*
X52143028Y-58175093D01*
X52089154Y-58175093D01*
X51900592Y-58363654D01*
X52008341Y-58471404D01*
X51900592Y-57878781D02*
X51334906Y-58444467D01*
X51119407Y-58228967D01*
X51092470Y-58148155D01*
X51092470Y-58094280D01*
X51119407Y-58013468D01*
X51200219Y-57932656D01*
X51281032Y-57905719D01*
X51334906Y-57905719D01*
X51415719Y-57932656D01*
X51631218Y-58148155D01*
X50499847Y-57609407D02*
X50769221Y-57878781D01*
X51065532Y-57636345D01*
X51011658Y-57636345D01*
X50930845Y-57609407D01*
X50796158Y-57474720D01*
X50769221Y-57393908D01*
X50769221Y-57340033D01*
X50796158Y-57259221D01*
X50930845Y-57124534D01*
X51011658Y-57097597D01*
X51065532Y-57097597D01*
X51146345Y-57124534D01*
X51281032Y-57259221D01*
X51307969Y-57340033D01*
X51307969Y-57393908D01*
X41498155Y-58713841D02*
X41525093Y-58794653D01*
X41605905Y-58875465D01*
X41713654Y-58929340D01*
X41821404Y-58929340D01*
X41902216Y-58902402D01*
X42036903Y-58821590D01*
X42117715Y-58740778D01*
X42198528Y-58606091D01*
X42225465Y-58525279D01*
X42225465Y-58417529D01*
X42171590Y-58309780D01*
X42117715Y-58255905D01*
X42009966Y-58202030D01*
X41956091Y-58202030D01*
X41767529Y-58390592D01*
X41875279Y-58498341D01*
X41767529Y-57905719D02*
X41201844Y-58471404D01*
X41444280Y-57582470D01*
X40878595Y-58148155D01*
X41174906Y-57313096D02*
X40609221Y-57878781D01*
X40474534Y-57744094D01*
X40420659Y-57636345D01*
X40420659Y-57528595D01*
X40447597Y-57447783D01*
X40528409Y-57313096D01*
X40609221Y-57232284D01*
X40743908Y-57151471D01*
X40824720Y-57124534D01*
X40932470Y-57124534D01*
X41040219Y-57178409D01*
X41174906Y-57313096D01*
X46551218Y-58686903D02*
X46578155Y-58767715D01*
X46658967Y-58848528D01*
X46766717Y-58902402D01*
X46874467Y-58902402D01*
X46955279Y-58875465D01*
X47089966Y-58794653D01*
X47170778Y-58713841D01*
X47251590Y-58579154D01*
X47278528Y-58498341D01*
X47278528Y-58390592D01*
X47224653Y-58282842D01*
X47170778Y-58228967D01*
X47063028Y-58175093D01*
X47009154Y-58175093D01*
X46820592Y-58363654D01*
X46928341Y-58471404D01*
X46820592Y-57878781D02*
X46254906Y-58444467D01*
X46039407Y-58228967D01*
X46012470Y-58148155D01*
X46012470Y-58094280D01*
X46039407Y-58013468D01*
X46120219Y-57932656D01*
X46201032Y-57905719D01*
X46254906Y-57905719D01*
X46335719Y-57932656D01*
X46551218Y-58148155D01*
X45743096Y-57932656D02*
X45392910Y-57582470D01*
X45796971Y-57555532D01*
X45716158Y-57474720D01*
X45689221Y-57393908D01*
X45689221Y-57340033D01*
X45716158Y-57259221D01*
X45850845Y-57124534D01*
X45931658Y-57097597D01*
X45985532Y-57097597D01*
X46066345Y-57124534D01*
X46227969Y-57286158D01*
X46254906Y-57366971D01*
X46254906Y-57420845D01*
X74760592Y-33102277D02*
X74787529Y-33183089D01*
X74868341Y-33263902D01*
X74976091Y-33317776D01*
X75083841Y-33317776D01*
X75164653Y-33290839D01*
X75299340Y-33210027D01*
X75380152Y-33129215D01*
X75460964Y-32994528D01*
X75487902Y-32913715D01*
X75487902Y-32805966D01*
X75434027Y-32698216D01*
X75380152Y-32644341D01*
X75272402Y-32590467D01*
X75218528Y-32590467D01*
X75029966Y-32779028D01*
X75137715Y-32886778D01*
X75029966Y-32294155D02*
X74464280Y-32859841D01*
X74248781Y-32644341D01*
X74221844Y-32563529D01*
X74221844Y-32509654D01*
X74248781Y-32428842D01*
X74329593Y-32348030D01*
X74410406Y-32321093D01*
X74464280Y-32321093D01*
X74545093Y-32348030D01*
X74760592Y-32563529D01*
X74167969Y-31432158D02*
X74491218Y-31755407D01*
X74329593Y-31593783D02*
X73763908Y-32159468D01*
X73898595Y-32132531D01*
X74006345Y-32132531D01*
X74087157Y-32159468D01*
X73898595Y-31162784D02*
X73790845Y-31055035D01*
X73710033Y-31028097D01*
X73656158Y-31028097D01*
X73521471Y-31055035D01*
X73386784Y-31135847D01*
X73171285Y-31351346D01*
X73144348Y-31432158D01*
X73144348Y-31486033D01*
X73171285Y-31566845D01*
X73279035Y-31674595D01*
X73359847Y-31701532D01*
X73413722Y-31701532D01*
X73494534Y-31674595D01*
X73629221Y-31539908D01*
X73656158Y-31459096D01*
X73656158Y-31405221D01*
X73629221Y-31324409D01*
X73521471Y-31216659D01*
X73440659Y-31189722D01*
X73386784Y-31189722D01*
X73305972Y-31216659D01*
D12*
%TO.C,SW1*%
X90730000Y-42950000D02*
X90730000Y-47450000D01*
X97230000Y-47450000D02*
X97230000Y-42950000D01*
X93230000Y-48700000D02*
X94730000Y-48700000D01*
X94730000Y-41700000D02*
X93230000Y-41700000D01*
%TO.C,R1*%
X114150000Y-29900000D02*
X113040000Y-29900000D01*
X113040000Y-27980000D02*
X102900000Y-27980000D01*
X113040000Y-31820000D02*
X113040000Y-27980000D01*
X101790000Y-29900000D02*
X102900000Y-29900000D01*
X102900000Y-27980000D02*
X102900000Y-31820000D01*
X102900000Y-31820000D02*
X113040000Y-31820000D01*
%TO.C,J3*%
X138935000Y-103811529D02*
X138935000Y-103680000D01*
X137045000Y-116500000D02*
X137867470Y-116500000D01*
X138935000Y-103680000D02*
X139137470Y-103680000D01*
X139752530Y-103680000D02*
X140575000Y-103680000D01*
X138482530Y-116500000D02*
X139137470Y-116500000D01*
X137045000Y-105135000D02*
X137045000Y-116500000D01*
X137045000Y-103615000D02*
X138175000Y-103615000D01*
X137045000Y-105135000D02*
X137611529Y-105135000D01*
X139752530Y-116500000D02*
X140575000Y-116500000D01*
X140575000Y-103680000D02*
X140575000Y-116500000D01*
X137045000Y-104375000D02*
X137045000Y-103615000D01*
X138738471Y-105135000D02*
X138881529Y-105135000D01*
X138935000Y-105081529D02*
X138935000Y-104938471D01*
%TO.C,D1*%
X95135000Y-27825000D02*
X92045000Y-27825000D01*
X92045170Y-27825000D02*
G75*
G03*
X93590462Y-33375000I1544830J-2560000D01*
G01*
X93589538Y-33375000D02*
G75*
G03*
X95134830Y-27825000I462J2990000D01*
G01*
X96090000Y-30385000D02*
G75*
G03*
X96090000Y-30385000I-2500000J0D01*
G01*
%TO.C,J5*%
X61035000Y-151190000D02*
X61035000Y-151992470D01*
X63510000Y-152863471D02*
X63510000Y-153410000D01*
X63510000Y-153410000D02*
X61035000Y-153410000D01*
X63510000Y-151190000D02*
X63510000Y-151736529D01*
X64270000Y-151190000D02*
X65030000Y-151190000D01*
X65030000Y-151190000D02*
X65030000Y-152300000D01*
X63510000Y-151190000D02*
X61035000Y-151190000D01*
X61035000Y-152607530D02*
X61035000Y-153410000D01*
%TO.C,J4*%
X58377500Y-87650000D02*
X35277500Y-87650000D01*
X37557500Y-87650000D02*
X37557500Y-89910000D01*
X34257500Y-99580000D02*
X34257500Y-97040000D01*
X35277500Y-87650000D02*
X35277500Y-89510000D01*
X35277500Y-153450000D02*
X58377500Y-153450000D01*
X58377500Y-153450000D02*
X58377500Y-87650000D01*
X35277500Y-94410000D02*
X35277500Y-153450000D01*
X36907500Y-91960000D02*
G75*
G03*
X36907500Y-91960000I-900000J0D01*
G01*
X38557500Y-91960000D02*
G75*
G03*
X38557500Y-91960000I-2550000J0D01*
G01*
%TO.C,J2*%
X68763471Y-95085000D02*
X69310000Y-95085000D01*
X67090000Y-95085000D02*
X67090000Y-126770000D01*
X67090000Y-94325000D02*
X67090000Y-93565000D01*
X69310000Y-95085000D02*
X69310000Y-126770000D01*
X67090000Y-126770000D02*
X67892470Y-126770000D01*
X68507530Y-126770000D02*
X69310000Y-126770000D01*
X67090000Y-95085000D02*
X67636529Y-95085000D01*
X67090000Y-93565000D02*
X68200000Y-93565000D01*
%TO.C,J1*%
X102495000Y-65710000D02*
X102495000Y-65163471D01*
X101735000Y-65710000D02*
X100975000Y-65710000D01*
X104970000Y-65710000D02*
X104970000Y-64907530D01*
X102495000Y-65710000D02*
X104970000Y-65710000D01*
X100975000Y-65710000D02*
X100975000Y-64600000D01*
X102495000Y-63490000D02*
X104970000Y-63490000D01*
X102495000Y-64036529D02*
X102495000Y-63490000D01*
X104970000Y-64292470D02*
X104970000Y-63490000D01*
%TO.C,U1*%
X83100000Y-34700000D02*
X83500000Y-34700000D01*
X67800000Y-34700000D02*
X68200000Y-34700000D01*
X85900000Y-44100000D02*
X85900000Y-43700000D01*
X34900000Y-55700000D02*
X35200000Y-55700000D01*
X45000000Y-34700000D02*
X45400000Y-34700000D01*
X34900000Y-55700000D02*
X34900000Y-34700000D01*
X85900000Y-48900000D02*
X85900000Y-55700000D01*
X52600000Y-55700000D02*
X53000000Y-55700000D01*
X45000000Y-55700000D02*
X45400000Y-55700000D01*
X80500000Y-55700000D02*
X80900000Y-55700000D01*
X60200000Y-55700000D02*
X60600000Y-55700000D01*
X37567000Y-52693000D02*
X34900000Y-52693000D01*
X70400000Y-34700000D02*
X70800000Y-34700000D01*
X52600000Y-34700000D02*
X53000000Y-34700000D01*
X39900000Y-34700000D02*
X40300000Y-34700000D01*
X37567000Y-55700000D02*
X37567000Y-52693000D01*
X60200000Y-34700000D02*
X60600000Y-34700000D01*
X67800000Y-55700000D02*
X68200000Y-55700000D01*
X42400000Y-34700000D02*
X42800000Y-34700000D01*
X85900000Y-34700000D02*
X85900000Y-41500000D01*
X50000000Y-34700000D02*
X50400000Y-34700000D01*
X47500000Y-55700000D02*
X47900000Y-55700000D01*
X57700000Y-34700000D02*
X58100000Y-34700000D01*
X55100000Y-34700000D02*
X55500000Y-34700000D01*
X78000000Y-55700000D02*
X78400000Y-55700000D01*
X37300000Y-55700000D02*
X37700000Y-55700000D01*
X57700000Y-55700000D02*
X58100000Y-55700000D01*
X70400000Y-55700000D02*
X70800000Y-55700000D01*
X72900000Y-34700000D02*
X73300000Y-34700000D01*
X85900000Y-46700000D02*
X85900000Y-46300000D01*
X39900000Y-55700000D02*
X40300000Y-55700000D01*
X65300000Y-55700000D02*
X65700000Y-55700000D01*
X83100000Y-55700000D02*
X83500000Y-55700000D01*
X80500000Y-34700000D02*
X80900000Y-34700000D01*
X50000000Y-55700000D02*
X50400000Y-55700000D01*
X78000000Y-34700000D02*
X78400000Y-34700000D01*
X65300000Y-34700000D02*
X65700000Y-34700000D01*
X42400000Y-55700000D02*
X42800000Y-55700000D01*
X55100000Y-55700000D02*
X55500000Y-55700000D01*
X62700000Y-55700000D02*
X63100000Y-55700000D01*
X34900000Y-34700000D02*
X35200000Y-34700000D01*
X75500000Y-55700000D02*
X75900000Y-55700000D01*
X62700000Y-34700000D02*
X63100000Y-34700000D01*
X75500000Y-34700000D02*
X75900000Y-34700000D01*
X37300000Y-34700000D02*
X37700000Y-34700000D01*
X72900000Y-55700000D02*
X73300000Y-55700000D01*
X47500000Y-34700000D02*
X47900000Y-34700000D01*
%TD*%
M02*
