%TF.GenerationSoftware,KiCad,Pcbnew,6.0.2+dfsg-1*%
%TF.CreationDate,2023-02-26T16:07:03-08:00*%
%TF.ProjectId,pico-devboard,7069636f-2d64-4657-9662-6f6172642e6b,rev?*%
%TF.SameCoordinates,Original*%
%TF.FileFunction,Copper,L2,Bot*%
%TF.FilePolarity,Positive*%
%FSLAX46Y46*%
G04 Gerber Fmt 4.6, Leading zero omitted, Abs format (unit mm)*
G04 Created by KiCad (PCBNEW 6.0.2+dfsg-1) date 2023-02-26 16:07:03*
%MOMM*%
%LPD*%
G01*
G04 APERTURE LIST*
%TA.AperFunction,ComponentPad*%
%ADD10C,2.000000*%
%TD*%
%TA.AperFunction,ComponentPad*%
%ADD11C,2.400000*%
%TD*%
%TA.AperFunction,ComponentPad*%
%ADD12O,2.400000X2.400000*%
%TD*%
%TA.AperFunction,ComponentPad*%
%ADD13O,1.000000X1.000000*%
%TD*%
%TA.AperFunction,ComponentPad*%
%ADD14R,1.000000X1.000000*%
%TD*%
%TA.AperFunction,ComponentPad*%
%ADD15R,1.800000X1.800000*%
%TD*%
%TA.AperFunction,ComponentPad*%
%ADD16C,1.800000*%
%TD*%
%TA.AperFunction,ComponentPad*%
%ADD17R,2.000000X1.440000*%
%TD*%
%TA.AperFunction,ComponentPad*%
%ADD18O,2.000000X1.440000*%
%TD*%
%TA.AperFunction,ComponentPad*%
%ADD19O,1.700000X1.700000*%
%TD*%
%TA.AperFunction,ComponentPad*%
%ADD20R,1.700000X1.700000*%
%TD*%
%TA.AperFunction,Conductor*%
%ADD21C,0.250000*%
%TD*%
G04 APERTURE END LIST*
D10*
%TO.P,SW1,1,1*%
%TO.N,Net-(SW1-Pad1)*%
X91730000Y-48450000D03*
X91730000Y-41950000D03*
%TO.P,SW1,2,2*%
%TO.N,GND*%
X96230000Y-48450000D03*
X96230000Y-41950000D03*
%TD*%
D11*
%TO.P,R1,1*%
%TO.N,GND*%
X100350000Y-29900000D03*
D12*
%TO.P,R1,2*%
%TO.N,Net-(D1-Pad1)*%
X115590000Y-29900000D03*
%TD*%
D13*
%TO.P,J3,20,Pin_20*%
%TO.N,/j*%
X139445000Y-115805000D03*
%TO.P,J3,19,Pin_19*%
X138175000Y-115805000D03*
%TO.P,J3,18,Pin_18*%
%TO.N,/i*%
X139445000Y-114535000D03*
%TO.P,J3,17,Pin_17*%
X138175000Y-114535000D03*
%TO.P,J3,16,Pin_16*%
%TO.N,/h*%
X139445000Y-113265000D03*
%TO.P,J3,15,Pin_15*%
X138175000Y-113265000D03*
%TO.P,J3,14,Pin_14*%
%TO.N,/g*%
X139445000Y-111995000D03*
%TO.P,J3,13,Pin_13*%
X138175000Y-111995000D03*
%TO.P,J3,12,Pin_12*%
%TO.N,/f*%
X139445000Y-110725000D03*
%TO.P,J3,11,Pin_11*%
X138175000Y-110725000D03*
%TO.P,J3,10,Pin_10*%
%TO.N,/e*%
X139445000Y-109455000D03*
%TO.P,J3,9,Pin_9*%
X138175000Y-109455000D03*
%TO.P,J3,8,Pin_8*%
%TO.N,/d*%
X139445000Y-108185000D03*
%TO.P,J3,7,Pin_7*%
X138175000Y-108185000D03*
%TO.P,J3,6,Pin_6*%
%TO.N,/c*%
X139445000Y-106915000D03*
%TO.P,J3,5,Pin_5*%
X138175000Y-106915000D03*
%TO.P,J3,4,Pin_4*%
%TO.N,/b*%
X139445000Y-105645000D03*
%TO.P,J3,3,Pin_3*%
X138175000Y-105645000D03*
%TO.P,J3,2,Pin_2*%
%TO.N,/a*%
X139445000Y-104375000D03*
D14*
%TO.P,J3,1,Pin_1*%
X138175000Y-104375000D03*
%TD*%
D15*
%TO.P,D1,1,K*%
%TO.N,Net-(D1-Pad1)*%
X93590000Y-29115000D03*
D16*
%TO.P,D1,2,A*%
%TO.N,+5V*%
X93590000Y-31655000D03*
%TD*%
D14*
%TO.P,J5,1,Pin_1*%
%TO.N,/SWDIO*%
X64270000Y-152300000D03*
D13*
%TO.P,J5,2,Pin_2*%
%TO.N,GND*%
X63000000Y-152300000D03*
%TO.P,J5,3,Pin_3*%
%TO.N,/SWCLK*%
X61730000Y-152300000D03*
%TD*%
D17*
%TO.P,J4,1,Pin_1*%
%TO.N,/UART_RX*%
X39207500Y-98310000D03*
D18*
%TO.P,J4,2,Pin_2*%
%TO.N,/UART_TX*%
X39207500Y-100850000D03*
%TO.P,J4,3,Pin_3*%
%TO.N,GND*%
X39207500Y-103390000D03*
%TO.P,J4,4,Pin_4*%
%TO.N,/GPIO_2*%
X39207500Y-105930000D03*
%TO.P,J4,5,Pin_5*%
%TO.N,/GPIO_3*%
X39207500Y-108470000D03*
%TO.P,J4,6,Pin_6*%
%TO.N,/GPIO_4*%
X39207500Y-111010000D03*
%TO.P,J4,7,Pin_7*%
%TO.N,/GPIO_5*%
X39207500Y-113550000D03*
%TO.P,J4,8,Pin_8*%
%TO.N,GND*%
X39207500Y-116090000D03*
%TO.P,J4,9,Pin_9*%
%TO.N,/GPIO_6*%
X39207500Y-118630000D03*
%TO.P,J4,10,Pin_10*%
%TO.N,/GPIO_7*%
X39207500Y-121170000D03*
%TO.P,J4,11,Pin_11*%
%TO.N,/GPIO_8*%
X39207500Y-123710000D03*
%TO.P,J4,12,Pin_12*%
%TO.N,/GPIO_9*%
X39207500Y-126250000D03*
%TO.P,J4,13,Pin_13*%
%TO.N,GND*%
X39207500Y-128790000D03*
%TO.P,J4,14,Pin_14*%
%TO.N,/GPIO_10*%
X39207500Y-131330000D03*
%TO.P,J4,15,Pin_15*%
%TO.N,/GPIO_11*%
X39207500Y-133870000D03*
%TO.P,J4,16,Pin_16*%
%TO.N,/GPIO_12*%
X39207500Y-136410000D03*
%TO.P,J4,17,Pin_17*%
%TO.N,/GPIO_13*%
X39207500Y-138950000D03*
%TO.P,J4,18,Pin_18*%
%TO.N,GND*%
X39207500Y-141490000D03*
%TO.P,J4,19,Pin_19*%
%TO.N,/GPIO_14*%
X39207500Y-144030000D03*
%TO.P,J4,20,Pin_20*%
%TO.N,/GPIO_15*%
X39207500Y-146570000D03*
%TO.P,J4,21,Pin_21*%
%TO.N,/GPIO_16*%
X54447500Y-146570000D03*
%TO.P,J4,22,Pin_22*%
%TO.N,/GPIO_17*%
X54447500Y-144030000D03*
%TO.P,J4,23,Pin_23*%
%TO.N,GND*%
X54447500Y-141490000D03*
%TO.P,J4,24,Pin_24*%
%TO.N,/GPIO_18*%
X54447500Y-138950000D03*
%TO.P,J4,25,Pin_25*%
%TO.N,/GPIO_19*%
X54447500Y-136410000D03*
%TO.P,J4,26,Pin_26*%
%TO.N,/GPIO_20*%
X54447500Y-133870000D03*
%TO.P,J4,27,Pin_27*%
%TO.N,/GPIO_21*%
X54447500Y-131330000D03*
%TO.P,J4,28,Pin_28*%
%TO.N,GND*%
X54447500Y-128790000D03*
%TO.P,J4,29,Pin_29*%
%TO.N,/GPIO_22*%
X54447500Y-126250000D03*
%TO.P,J4,30,Pin_30*%
%TO.N,/RUN*%
X54447500Y-123710000D03*
%TO.P,J4,31,Pin_31*%
%TO.N,/GPIO_26*%
X54447500Y-121170000D03*
%TO.P,J4,32,Pin_32*%
%TO.N,/GPIO_27*%
X54447500Y-118630000D03*
%TO.P,J4,33,Pin_33*%
%TO.N,GND*%
X54447500Y-116090000D03*
%TO.P,J4,34,Pin_34*%
%TO.N,/GPIO_28*%
X54447500Y-113550000D03*
%TO.P,J4,35,Pin_35*%
%TO.N,/ADC_VREF*%
X54447500Y-111010000D03*
%TO.P,J4,36,Pin_36*%
%TO.N,+3V3*%
X54447500Y-108470000D03*
%TO.P,J4,37,Pin_37*%
%TO.N,unconnected-(J4-Pad37)*%
X54447500Y-105930000D03*
%TO.P,J4,38,Pin_38*%
%TO.N,GND*%
X54447500Y-103390000D03*
%TO.P,J4,39,Pin_39*%
%TO.N,+5V*%
X54447500Y-100850000D03*
%TO.P,J4,40,Pin_40*%
%TO.N,unconnected-(J4-Pad40)*%
X54447500Y-98310000D03*
%TD*%
D14*
%TO.P,J2,1,Pin_1*%
%TO.N,/RUN*%
X68200000Y-94325000D03*
D13*
%TO.P,J2,2,Pin_2*%
%TO.N,/GPIO_2*%
X68200000Y-95595000D03*
%TO.P,J2,3,Pin_3*%
%TO.N,/GPIO_3*%
X68200000Y-96865000D03*
%TO.P,J2,4,Pin_4*%
%TO.N,/GPIO_4*%
X68200000Y-98135000D03*
%TO.P,J2,5,Pin_5*%
%TO.N,/GPIO_5*%
X68200000Y-99405000D03*
%TO.P,J2,6,Pin_6*%
%TO.N,/GPIO_6*%
X68200000Y-100675000D03*
%TO.P,J2,7,Pin_7*%
%TO.N,/GPIO_7*%
X68200000Y-101945000D03*
%TO.P,J2,8,Pin_8*%
%TO.N,/GPIO_8*%
X68200000Y-103215000D03*
%TO.P,J2,9,Pin_9*%
%TO.N,/GPIO_9*%
X68200000Y-104485000D03*
%TO.P,J2,10,Pin_10*%
%TO.N,/GPIO_10*%
X68200000Y-105755000D03*
%TO.P,J2,11,Pin_11*%
%TO.N,/GPIO_11*%
X68200000Y-107025000D03*
%TO.P,J2,12,Pin_12*%
%TO.N,/GPIO_12*%
X68200000Y-108295000D03*
%TO.P,J2,13,Pin_13*%
%TO.N,/GPIO_13*%
X68200000Y-109565000D03*
%TO.P,J2,14,Pin_14*%
%TO.N,/GPIO_14*%
X68200000Y-110835000D03*
%TO.P,J2,15,Pin_15*%
%TO.N,/GPIO_15*%
X68200000Y-112105000D03*
%TO.P,J2,16,Pin_16*%
%TO.N,/GPIO_16*%
X68200000Y-113375000D03*
%TO.P,J2,17,Pin_17*%
%TO.N,/GPIO_17*%
X68200000Y-114645000D03*
%TO.P,J2,18,Pin_18*%
%TO.N,/GPIO_18*%
X68200000Y-115915000D03*
%TO.P,J2,19,Pin_19*%
%TO.N,/GPIO_19*%
X68200000Y-117185000D03*
%TO.P,J2,20,Pin_20*%
%TO.N,/GPIO_20*%
X68200000Y-118455000D03*
%TO.P,J2,21,Pin_21*%
%TO.N,/GPIO_21*%
X68200000Y-119725000D03*
%TO.P,J2,22,Pin_22*%
%TO.N,/GPIO_22*%
X68200000Y-120995000D03*
%TO.P,J2,23,Pin_23*%
%TO.N,/GPIO_26*%
X68200000Y-122265000D03*
%TO.P,J2,24,Pin_24*%
%TO.N,/GPIO_27*%
X68200000Y-123535000D03*
%TO.P,J2,25,Pin_25*%
%TO.N,/GPIO_28*%
X68200000Y-124805000D03*
%TO.P,J2,26,Pin_26*%
%TO.N,/ADC_VREF*%
X68200000Y-126075000D03*
%TD*%
%TO.P,J1,3,Pin_3*%
%TO.N,GND*%
X104275000Y-64600000D03*
%TO.P,J1,2,Pin_2*%
%TO.N,+3V3*%
X103005000Y-64600000D03*
D14*
%TO.P,J1,1,Pin_1*%
%TO.N,+5V*%
X101735000Y-64600000D03*
%TD*%
D19*
%TO.P,U1,1,GPIO0*%
%TO.N,unconnected-(U1-Pad1)*%
X36270000Y-54090000D03*
%TO.P,U1,2,GPIO1*%
%TO.N,unconnected-(U1-Pad2)*%
X38810000Y-54090000D03*
D20*
%TO.P,U1,3,GND*%
%TO.N,GND*%
X41350000Y-54090000D03*
D19*
%TO.P,U1,4,GPIO2*%
%TO.N,/SWDIO*%
X43890000Y-54090000D03*
%TO.P,U1,5,GPIO3*%
%TO.N,/SWCLK*%
X46430000Y-54090000D03*
%TO.P,U1,6,GPIO4*%
%TO.N,/UART_RX*%
X48970000Y-54090000D03*
%TO.P,U1,7,GPIO5*%
%TO.N,/UART_TX*%
X51510000Y-54090000D03*
D20*
%TO.P,U1,8,GND*%
%TO.N,GND*%
X54050000Y-54090000D03*
D19*
%TO.P,U1,9,GPIO6*%
%TO.N,unconnected-(U1-Pad9)*%
X56590000Y-54090000D03*
%TO.P,U1,10,GPIO7*%
%TO.N,unconnected-(U1-Pad10)*%
X59130000Y-54090000D03*
%TO.P,U1,11,GPIO8*%
%TO.N,unconnected-(U1-Pad11)*%
X61670000Y-54090000D03*
%TO.P,U1,12,GPIO9*%
%TO.N,unconnected-(U1-Pad12)*%
X64210000Y-54090000D03*
D20*
%TO.P,U1,13,GND*%
%TO.N,GND*%
X66750000Y-54090000D03*
D19*
%TO.P,U1,14,GPIO10*%
%TO.N,unconnected-(U1-Pad14)*%
X69290000Y-54090000D03*
%TO.P,U1,15,GPIO11*%
%TO.N,unconnected-(U1-Pad15)*%
X71830000Y-54090000D03*
%TO.P,U1,16,GPIO12*%
%TO.N,unconnected-(U1-Pad16)*%
X74370000Y-54090000D03*
%TO.P,U1,17,GPIO13*%
%TO.N,unconnected-(U1-Pad17)*%
X76910000Y-54090000D03*
D20*
%TO.P,U1,18,GND*%
%TO.N,GND*%
X79450000Y-54090000D03*
D19*
%TO.P,U1,19,GPIO14*%
%TO.N,unconnected-(U1-Pad19)*%
X81990000Y-54090000D03*
%TO.P,U1,20,GPIO15*%
%TO.N,unconnected-(U1-Pad20)*%
X84530000Y-54090000D03*
%TO.P,U1,21,GPIO16*%
%TO.N,unconnected-(U1-Pad21)*%
X84530000Y-36310000D03*
%TO.P,U1,22,GPIO17*%
%TO.N,unconnected-(U1-Pad22)*%
X81990000Y-36310000D03*
D20*
%TO.P,U1,23,GND*%
%TO.N,GND*%
X79450000Y-36310000D03*
D19*
%TO.P,U1,24,GPIO18*%
%TO.N,unconnected-(U1-Pad24)*%
X76910000Y-36310000D03*
%TO.P,U1,25,GPIO19*%
%TO.N,unconnected-(U1-Pad25)*%
X74370000Y-36310000D03*
%TO.P,U1,26,GPIO20*%
%TO.N,unconnected-(U1-Pad26)*%
X71830000Y-36310000D03*
%TO.P,U1,27,GPIO21*%
%TO.N,unconnected-(U1-Pad27)*%
X69290000Y-36310000D03*
D20*
%TO.P,U1,28,GND*%
%TO.N,GND*%
X66750000Y-36310000D03*
D19*
%TO.P,U1,29,GPIO22*%
%TO.N,unconnected-(U1-Pad29)*%
X64210000Y-36310000D03*
%TO.P,U1,30,RUN*%
%TO.N,Net-(SW1-Pad1)*%
X61670000Y-36310000D03*
%TO.P,U1,31,GPIO26_ADC0*%
%TO.N,unconnected-(U1-Pad31)*%
X59130000Y-36310000D03*
%TO.P,U1,32,GPIO27_ADC1*%
%TO.N,unconnected-(U1-Pad32)*%
X56590000Y-36310000D03*
D20*
%TO.P,U1,33,AGND*%
%TO.N,GND*%
X54050000Y-36310000D03*
D19*
%TO.P,U1,34,GPIO28_ADC2*%
%TO.N,unconnected-(U1-Pad34)*%
X51510000Y-36310000D03*
%TO.P,U1,35,ADC_VREF*%
%TO.N,unconnected-(U1-Pad35)*%
X48970000Y-36310000D03*
%TO.P,U1,36,3V3*%
%TO.N,unconnected-(U1-Pad36)*%
X46430000Y-36310000D03*
%TO.P,U1,37,3V3_EN*%
%TO.N,unconnected-(U1-Pad37)*%
X43890000Y-36310000D03*
D20*
%TO.P,U1,38,GND*%
%TO.N,GND*%
X41350000Y-36310000D03*
D19*
%TO.P,U1,39,VSYS*%
%TO.N,Net-(U1-Pad39)*%
X38810000Y-36310000D03*
%TO.P,U1,40,VBUS*%
X36270000Y-36310000D03*
%TO.P,U1,41,SWCLK*%
%TO.N,unconnected-(U1-Pad41)*%
X84300000Y-47740000D03*
D20*
%TO.P,U1,42,GND*%
%TO.N,GND*%
X84300000Y-45200000D03*
D19*
%TO.P,U1,43,SWDIO*%
%TO.N,unconnected-(U1-Pad43)*%
X84300000Y-42660000D03*
%TD*%
D21*
%TO.N,/GPIO_3*%
X68200000Y-96865000D02*
X50812500Y-96865000D01*
X50812500Y-96865000D02*
X39207500Y-108470000D01*
%TO.N,/GPIO_2*%
X68200000Y-95595000D02*
X49542500Y-95595000D01*
X49542500Y-95595000D02*
X39207500Y-105930000D01*
%TO.N,Net-(U1-Pad39)*%
X36270000Y-36310000D02*
X38810000Y-36310000D01*
%TO.N,Net-(D1-Pad1)*%
X112539400Y-28374700D02*
X114064700Y-29900000D01*
X95555600Y-28374700D02*
X112539400Y-28374700D01*
X94815300Y-29115000D02*
X95555600Y-28374700D01*
X93590000Y-29115000D02*
X94815300Y-29115000D01*
X115590000Y-29900000D02*
X114064700Y-29900000D01*
%TO.N,/SWDIO*%
X72382000Y-143362700D02*
X64270000Y-151474700D01*
X72382000Y-83757300D02*
X72382000Y-143362700D01*
X43890000Y-55265300D02*
X72382000Y-83757300D01*
X43890000Y-54090000D02*
X43890000Y-55265300D01*
X64270000Y-152300000D02*
X64270000Y-151474700D01*
%TO.N,Net-(SW1-Pad1)*%
X87265300Y-37485300D02*
X91730000Y-41950000D01*
X63653200Y-37485300D02*
X87265300Y-37485300D01*
X62845300Y-36677400D02*
X63653200Y-37485300D01*
X62845300Y-36310000D02*
X62845300Y-36677400D01*
X61670000Y-36310000D02*
X62845300Y-36310000D01*
%TO.N,/GPIO_22*%
X62119700Y-126250000D02*
X54447500Y-126250000D01*
X67374700Y-120995000D02*
X62119700Y-126250000D01*
X68200000Y-120995000D02*
X67374700Y-120995000D01*
%TO.N,/GPIO_21*%
X64189800Y-131330000D02*
X54447500Y-131330000D01*
X69049700Y-126470100D02*
X64189800Y-131330000D01*
X69049700Y-120574700D02*
X69049700Y-126470100D01*
X68200000Y-119725000D02*
X69049700Y-120574700D01*
%TO.N,/GPIO_20*%
X62286700Y-133870000D02*
X54447500Y-133870000D01*
X69581300Y-126575400D02*
X62286700Y-133870000D01*
X69581300Y-119836300D02*
X69581300Y-126575400D01*
X68200000Y-118455000D02*
X69581300Y-119836300D01*
%TO.N,/GPIO_19*%
X60413100Y-136410000D02*
X54447500Y-136410000D01*
X70033600Y-126789500D02*
X60413100Y-136410000D01*
X70033600Y-119018600D02*
X70033600Y-126789500D01*
X68200000Y-117185000D02*
X70033600Y-119018600D01*
%TO.N,/GPIO_18*%
X58533700Y-138950000D02*
X54447500Y-138950000D01*
X70495100Y-126988600D02*
X58533700Y-138950000D01*
X70495100Y-118210100D02*
X70495100Y-126988600D01*
X68200000Y-115915000D02*
X70495100Y-118210100D01*
%TO.N,/GPIO_17*%
X55231500Y-142984700D02*
X54447500Y-142984700D01*
X71019500Y-127196700D02*
X55231500Y-142984700D01*
X71019500Y-117464500D02*
X71019500Y-127196700D01*
X68200000Y-114645000D02*
X71019500Y-117464500D01*
X54447500Y-144030000D02*
X54447500Y-142984700D01*
%TO.N,/GPIO_16*%
X54741500Y-145524700D02*
X54447500Y-145524700D01*
X71475800Y-128790400D02*
X54741500Y-145524700D01*
X71475800Y-116650800D02*
X71475800Y-128790400D01*
X68200000Y-113375000D02*
X71475800Y-116650800D01*
X54447500Y-146570000D02*
X54447500Y-145524700D01*
%TO.N,/GPIO_15*%
X55239900Y-147615300D02*
X39207500Y-147615300D01*
X71930900Y-130924300D02*
X55239900Y-147615300D01*
X71930900Y-115835900D02*
X71930900Y-130924300D01*
X68200000Y-112105000D02*
X71930900Y-115835900D01*
X39207500Y-146570000D02*
X39207500Y-147615300D01*
%TO.N,/GPIO_14*%
X39501500Y-142984700D02*
X39207500Y-142984700D01*
X40702100Y-141784100D02*
X39501500Y-142984700D01*
X40702100Y-138167600D02*
X40702100Y-141784100D01*
X53889700Y-124980000D02*
X40702100Y-138167600D01*
X55015500Y-124980000D02*
X53889700Y-124980000D01*
X58021600Y-121973900D02*
X55015500Y-124980000D01*
X58021600Y-121013400D02*
X58021600Y-121973900D01*
X68200000Y-110835000D02*
X58021600Y-121013400D01*
X39207500Y-144030000D02*
X39207500Y-142984700D01*
%TO.N,/GPIO_13*%
X39501500Y-137904700D02*
X39207500Y-137904700D01*
X40702100Y-136704100D02*
X39501500Y-137904700D01*
X40702100Y-135694300D02*
X40702100Y-136704100D01*
X53956400Y-122440000D02*
X40702100Y-135694300D01*
X55015500Y-122440000D02*
X53956400Y-122440000D01*
X67374700Y-110080800D02*
X55015500Y-122440000D01*
X67374700Y-109565000D02*
X67374700Y-110080800D01*
X68200000Y-109565000D02*
X67374700Y-109565000D01*
X39207500Y-138950000D02*
X39207500Y-137904700D01*
%TO.N,/GPIO_12*%
X39501500Y-135364700D02*
X39207500Y-135364700D01*
X46923100Y-127943100D02*
X39501500Y-135364700D01*
X46923100Y-126910300D02*
X46923100Y-127943100D01*
X53933400Y-119900000D02*
X46923100Y-126910300D01*
X55769700Y-119900000D02*
X53933400Y-119900000D01*
X67374700Y-108295000D02*
X55769700Y-119900000D01*
X68200000Y-108295000D02*
X67374700Y-108295000D01*
X39207500Y-136410000D02*
X39207500Y-135364700D01*
%TO.N,/GPIO_11*%
X39501500Y-132824700D02*
X39207500Y-132824700D01*
X46923100Y-125403100D02*
X39501500Y-132824700D01*
X46923100Y-124370300D02*
X46923100Y-125403100D01*
X53933400Y-117360000D02*
X46923100Y-124370300D01*
X57039700Y-117360000D02*
X53933400Y-117360000D01*
X67374700Y-107025000D02*
X57039700Y-117360000D01*
X68200000Y-107025000D02*
X67374700Y-107025000D01*
X39207500Y-133870000D02*
X39207500Y-132824700D01*
%TO.N,/GPIO_10*%
X39501500Y-130284700D02*
X39207500Y-130284700D01*
X40702100Y-129084100D02*
X39501500Y-130284700D01*
X40702100Y-128033500D02*
X40702100Y-129084100D01*
X53915600Y-114820000D02*
X40702100Y-128033500D01*
X56465700Y-114820000D02*
X53915600Y-114820000D01*
X65530700Y-105755000D02*
X56465700Y-114820000D01*
X68200000Y-105755000D02*
X65530700Y-105755000D01*
X39207500Y-131330000D02*
X39207500Y-130284700D01*
%TO.N,/GPIO_9*%
X40252800Y-125204700D02*
X39207500Y-125204700D01*
X53177500Y-112280000D02*
X40252800Y-125204700D01*
X55235200Y-112280000D02*
X53177500Y-112280000D01*
X63030200Y-104485000D02*
X55235200Y-112280000D01*
X68200000Y-104485000D02*
X63030200Y-104485000D01*
X39207500Y-126250000D02*
X39207500Y-125204700D01*
%TO.N,/GPIO_8*%
X40252800Y-122664700D02*
X39207500Y-122664700D01*
X52991200Y-109926300D02*
X40252800Y-122664700D01*
X55335300Y-109926300D02*
X52991200Y-109926300D01*
X62046600Y-103215000D02*
X55335300Y-109926300D01*
X68200000Y-103215000D02*
X62046600Y-103215000D01*
X39207500Y-123710000D02*
X39207500Y-122664700D01*
%TO.N,/GPIO_7*%
X40252800Y-120124700D02*
X39207500Y-120124700D01*
X53177500Y-107200000D02*
X40252800Y-120124700D01*
X56405600Y-107200000D02*
X53177500Y-107200000D01*
X61660600Y-101945000D02*
X56405600Y-107200000D01*
X68200000Y-101945000D02*
X61660600Y-101945000D01*
X39207500Y-121170000D02*
X39207500Y-120124700D01*
%TO.N,/GPIO_6*%
X40252800Y-117584700D02*
X39207500Y-117584700D01*
X53177500Y-104660000D02*
X40252800Y-117584700D01*
X55267100Y-104660000D02*
X53177500Y-104660000D01*
X59252100Y-100675000D02*
X55267100Y-104660000D01*
X68200000Y-100675000D02*
X59252100Y-100675000D01*
X39207500Y-118630000D02*
X39207500Y-117584700D01*
%TO.N,/GPIO_5*%
X66867600Y-99912100D02*
X67374700Y-99405000D01*
X57635600Y-99912100D02*
X66867600Y-99912100D01*
X55427700Y-102120000D02*
X57635600Y-99912100D01*
X50637500Y-102120000D02*
X55427700Y-102120000D01*
X40252800Y-112504700D02*
X50637500Y-102120000D01*
X39207500Y-112504700D02*
X40252800Y-112504700D01*
X39207500Y-113550000D02*
X39207500Y-112504700D01*
X68200000Y-99405000D02*
X67374700Y-99405000D01*
%TO.N,/GPIO_4*%
X40252800Y-109964700D02*
X39207500Y-109964700D01*
X50812600Y-99404900D02*
X40252800Y-109964700D01*
X66104800Y-99404900D02*
X50812600Y-99404900D01*
X67374700Y-98135000D02*
X66104800Y-99404900D01*
X68200000Y-98135000D02*
X67374700Y-98135000D01*
X39207500Y-111010000D02*
X39207500Y-109964700D01*
%TO.N,/j*%
X138175000Y-115805000D02*
X139445000Y-115805000D01*
%TO.N,/i*%
X138175000Y-114535000D02*
X139445000Y-114535000D01*
%TO.N,/h*%
X138175000Y-113265000D02*
X139445000Y-113265000D01*
%TO.N,/g*%
X138175000Y-111995000D02*
X139445000Y-111995000D01*
%TO.N,/f*%
X138175000Y-110725000D02*
X139445000Y-110725000D01*
%TO.N,/e*%
X138175000Y-109455000D02*
X139445000Y-109455000D01*
%TO.N,/d*%
X138175000Y-108185000D02*
X139445000Y-108185000D01*
%TO.N,/c*%
X138175000Y-106915000D02*
X139445000Y-106915000D01*
%TO.N,/b*%
X138175000Y-105645000D02*
X139445000Y-105645000D01*
%TO.N,/a*%
X138175000Y-104375000D02*
X139445000Y-104375000D01*
%TD*%
%TA.AperFunction,Conductor*%
%TO.N,GND*%
G36*
X143264121Y-26020002D02*
G01*
X143310614Y-26073658D01*
X143322000Y-26126000D01*
X143322000Y-156773730D01*
X143301998Y-156841851D01*
X143248342Y-156888344D01*
X143195888Y-156899730D01*
X31113888Y-156800190D01*
X31045785Y-156780127D01*
X30999340Y-156726430D01*
X30988000Y-156674190D01*
X30988000Y-152285851D01*
X60716719Y-152285851D01*
X60733268Y-152482934D01*
X60787783Y-152673050D01*
X60878187Y-152848956D01*
X61001035Y-153003953D01*
X61005728Y-153007947D01*
X61005729Y-153007948D01*
X61051269Y-153046705D01*
X61151650Y-153132136D01*
X61324294Y-153228624D01*
X61512392Y-153289740D01*
X61708777Y-153313158D01*
X61714912Y-153312686D01*
X61714914Y-153312686D01*
X61899830Y-153298457D01*
X61899834Y-153298456D01*
X61905972Y-153297984D01*
X62096463Y-153244798D01*
X62101967Y-153242018D01*
X62101969Y-153242017D01*
X62267493Y-153158405D01*
X62267495Y-153158404D01*
X62272996Y-153155625D01*
X62286973Y-153144705D01*
X62352967Y-153118525D01*
X62426020Y-153134004D01*
X62589121Y-153225159D01*
X62600356Y-153230067D01*
X62728768Y-153271790D01*
X62742867Y-153272193D01*
X62746000Y-153265821D01*
X62746000Y-151342076D01*
X62742027Y-151328545D01*
X62734232Y-151327425D01*
X62626479Y-151359138D01*
X62615111Y-151363731D01*
X62450846Y-151449607D01*
X62435426Y-151459697D01*
X62434003Y-151457522D01*
X62378864Y-151480314D01*
X62309005Y-151467657D01*
X62299055Y-151461839D01*
X62296675Y-151459870D01*
X62122701Y-151365802D01*
X61933768Y-151307318D01*
X61927643Y-151306674D01*
X61927642Y-151306674D01*
X61743204Y-151287289D01*
X61743202Y-151287289D01*
X61737075Y-151286645D01*
X61654576Y-151294153D01*
X61546251Y-151304011D01*
X61546248Y-151304012D01*
X61540112Y-151304570D01*
X61534206Y-151306308D01*
X61534202Y-151306309D01*
X61457954Y-151328750D01*
X61350381Y-151360410D01*
X61344923Y-151363263D01*
X61344919Y-151363265D01*
X61272137Y-151401315D01*
X61175110Y-151452040D01*
X61020975Y-151575968D01*
X60893846Y-151727474D01*
X60890879Y-151732872D01*
X60890875Y-151732877D01*
X60812095Y-151876180D01*
X60798567Y-151900787D01*
X60738765Y-152089306D01*
X60716719Y-152285851D01*
X30988000Y-152285851D01*
X30988000Y-146608744D01*
X37694643Y-146608744D01*
X37720988Y-146826452D01*
X37785470Y-147036054D01*
X37886050Y-147230924D01*
X38019549Y-147404903D01*
X38023694Y-147408674D01*
X38023697Y-147408678D01*
X38164968Y-147537224D01*
X38181748Y-147552493D01*
X38367518Y-147669026D01*
X38372728Y-147671120D01*
X38372733Y-147671123D01*
X38531252Y-147734847D01*
X38586997Y-147778813D01*
X38601407Y-147805368D01*
X38609699Y-147826310D01*
X38612371Y-147833730D01*
X38629736Y-147887175D01*
X38633986Y-147893871D01*
X38633986Y-147893872D01*
X38634150Y-147894131D01*
X38644915Y-147915258D01*
X38645029Y-147915546D01*
X38645032Y-147915551D01*
X38647948Y-147922917D01*
X38652604Y-147929325D01*
X38652607Y-147929331D01*
X38680958Y-147968352D01*
X38685401Y-147974889D01*
X38715500Y-148022318D01*
X38721278Y-148027744D01*
X38721279Y-148027745D01*
X38721507Y-148027959D01*
X38737188Y-148045746D01*
X38742028Y-148052407D01*
X38748137Y-148057461D01*
X38748138Y-148057462D01*
X38785296Y-148088203D01*
X38791230Y-148093434D01*
X38826398Y-148126458D01*
X38826401Y-148126460D01*
X38832179Y-148131886D01*
X38839403Y-148135858D01*
X38859006Y-148149181D01*
X38859246Y-148149380D01*
X38859253Y-148149384D01*
X38865356Y-148154433D01*
X38898842Y-148170190D01*
X38916176Y-148178347D01*
X38923208Y-148181929D01*
X38972440Y-148208995D01*
X38980115Y-148210965D01*
X38980121Y-148210968D01*
X38980419Y-148211044D01*
X39002728Y-148219076D01*
X39003003Y-148219206D01*
X39003011Y-148219209D01*
X39010182Y-148222583D01*
X39065349Y-148233106D01*
X39073058Y-148234829D01*
X39107051Y-148243557D01*
X39119793Y-148246829D01*
X39119794Y-148246829D01*
X39127470Y-148248800D01*
X39135707Y-148248800D01*
X39159316Y-148251032D01*
X39159619Y-148251090D01*
X39159623Y-148251090D01*
X39167406Y-148252575D01*
X39223451Y-148249049D01*
X39231362Y-148248800D01*
X55161133Y-148248800D01*
X55172316Y-148249327D01*
X55179809Y-148251002D01*
X55187735Y-148250753D01*
X55187736Y-148250753D01*
X55247886Y-148248862D01*
X55251845Y-148248800D01*
X55279756Y-148248800D01*
X55283691Y-148248303D01*
X55283756Y-148248295D01*
X55295593Y-148247362D01*
X55327851Y-148246348D01*
X55331870Y-148246222D01*
X55339789Y-148245973D01*
X55359243Y-148240321D01*
X55378600Y-148236313D01*
X55390830Y-148234768D01*
X55390831Y-148234768D01*
X55398697Y-148233774D01*
X55406068Y-148230855D01*
X55406070Y-148230855D01*
X55439812Y-148217496D01*
X55451042Y-148213651D01*
X55485883Y-148203529D01*
X55485884Y-148203529D01*
X55493493Y-148201318D01*
X55500312Y-148197285D01*
X55500317Y-148197283D01*
X55510928Y-148191007D01*
X55528676Y-148182312D01*
X55547517Y-148174852D01*
X55583287Y-148148864D01*
X55593207Y-148142348D01*
X55624435Y-148123880D01*
X55624438Y-148123878D01*
X55631262Y-148119842D01*
X55645583Y-148105521D01*
X55660617Y-148092680D01*
X55670594Y-148085431D01*
X55677007Y-148080772D01*
X55705198Y-148046695D01*
X55713188Y-148037916D01*
X71533405Y-132217699D01*
X71595717Y-132183673D01*
X71666532Y-132188738D01*
X71723368Y-132231285D01*
X71748179Y-132297805D01*
X71748500Y-132306794D01*
X71748500Y-143048105D01*
X71728498Y-143116226D01*
X71711595Y-143137200D01*
X63877747Y-150971048D01*
X63869461Y-150978588D01*
X63862982Y-150982700D01*
X63857557Y-150988477D01*
X63816357Y-151032351D01*
X63813602Y-151035193D01*
X63793865Y-151054930D01*
X63791385Y-151058127D01*
X63783682Y-151067147D01*
X63753414Y-151099379D01*
X63749595Y-151106325D01*
X63749593Y-151106328D01*
X63743652Y-151117134D01*
X63732801Y-151133653D01*
X63720386Y-151149659D01*
X63717241Y-151156928D01*
X63717238Y-151156932D01*
X63702826Y-151190237D01*
X63697609Y-151200887D01*
X63676305Y-151239640D01*
X63674334Y-151247317D01*
X63673784Y-151248706D01*
X63630111Y-151304680D01*
X63600862Y-151320306D01*
X63560869Y-151335299D01*
X63523295Y-151349385D01*
X63516108Y-151354771D01*
X63508240Y-151359079D01*
X63507105Y-151357006D01*
X63452606Y-151377368D01*
X63394723Y-151367850D01*
X63386620Y-151364444D01*
X63271308Y-151328750D01*
X63257205Y-151328544D01*
X63254000Y-151335299D01*
X63254000Y-153257564D01*
X63257973Y-153271095D01*
X63266188Y-153272276D01*
X63360345Y-153245986D01*
X63371778Y-153241552D01*
X63385266Y-153234739D01*
X63455089Y-153221879D01*
X63507441Y-153242381D01*
X63508240Y-153240921D01*
X63516108Y-153245229D01*
X63523295Y-153250615D01*
X63659684Y-153301745D01*
X63721866Y-153308500D01*
X64818134Y-153308500D01*
X64880316Y-153301745D01*
X65016705Y-153250615D01*
X65133261Y-153163261D01*
X65220615Y-153046705D01*
X65271745Y-152910316D01*
X65278500Y-152848134D01*
X65278500Y-151751866D01*
X65271745Y-151689684D01*
X65220615Y-151553295D01*
X65217463Y-151549090D01*
X65202695Y-151481559D01*
X65227433Y-151415012D01*
X65239289Y-151401315D01*
X72774247Y-143866357D01*
X72782537Y-143858813D01*
X72789018Y-143854700D01*
X72835659Y-143805032D01*
X72838413Y-143802191D01*
X72858134Y-143782470D01*
X72860612Y-143779275D01*
X72868318Y-143770253D01*
X72893158Y-143743801D01*
X72898586Y-143738021D01*
X72908346Y-143720268D01*
X72919199Y-143703745D01*
X72926753Y-143694006D01*
X72931613Y-143687741D01*
X72949176Y-143647157D01*
X72954383Y-143636527D01*
X72975695Y-143597760D01*
X72977666Y-143590083D01*
X72977668Y-143590078D01*
X72980732Y-143578142D01*
X72987138Y-143559430D01*
X72992034Y-143548117D01*
X72995181Y-143540845D01*
X72998123Y-143522274D01*
X73002097Y-143497181D01*
X73004504Y-143485560D01*
X73013528Y-143450411D01*
X73013528Y-143450410D01*
X73015500Y-143442730D01*
X73015500Y-143422469D01*
X73017051Y-143402758D01*
X73018979Y-143390585D01*
X73020219Y-143382757D01*
X73016059Y-143338746D01*
X73015500Y-143326889D01*
X73015500Y-115790851D01*
X137161719Y-115790851D01*
X137162235Y-115796995D01*
X137171472Y-115906995D01*
X137178268Y-115987934D01*
X137232783Y-116178050D01*
X137235602Y-116183535D01*
X137312219Y-116332614D01*
X137323187Y-116353956D01*
X137446035Y-116508953D01*
X137450728Y-116512947D01*
X137450729Y-116512948D01*
X137581051Y-116623860D01*
X137596650Y-116637136D01*
X137769294Y-116733624D01*
X137957392Y-116794740D01*
X138153777Y-116818158D01*
X138159912Y-116817686D01*
X138159914Y-116817686D01*
X138344830Y-116803457D01*
X138344834Y-116803456D01*
X138350972Y-116802984D01*
X138541463Y-116749798D01*
X138546967Y-116747018D01*
X138546969Y-116747017D01*
X138712493Y-116663405D01*
X138712495Y-116663404D01*
X138717996Y-116660625D01*
X138722850Y-116656833D01*
X138722859Y-116656827D01*
X138731548Y-116650038D01*
X138797542Y-116623860D01*
X138870592Y-116639339D01*
X139039294Y-116733624D01*
X139227392Y-116794740D01*
X139423777Y-116818158D01*
X139429912Y-116817686D01*
X139429914Y-116817686D01*
X139614830Y-116803457D01*
X139614834Y-116803456D01*
X139620972Y-116802984D01*
X139811463Y-116749798D01*
X139816967Y-116747018D01*
X139816969Y-116747017D01*
X139982495Y-116663404D01*
X139982497Y-116663403D01*
X139987996Y-116660625D01*
X140143847Y-116538861D01*
X140273078Y-116389145D01*
X140370769Y-116217179D01*
X140433197Y-116029513D01*
X140457985Y-115833295D01*
X140458380Y-115805000D01*
X140439080Y-115608167D01*
X140381916Y-115418831D01*
X140289066Y-115244204D01*
X140285167Y-115239424D01*
X140284715Y-115238743D01*
X140263676Y-115170935D01*
X140280105Y-115106775D01*
X140367723Y-114952542D01*
X140367725Y-114952537D01*
X140370769Y-114947179D01*
X140433197Y-114759513D01*
X140457985Y-114563295D01*
X140458380Y-114535000D01*
X140439080Y-114338167D01*
X140434076Y-114321591D01*
X140409560Y-114240392D01*
X140381916Y-114148831D01*
X140289066Y-113974204D01*
X140285167Y-113969424D01*
X140284715Y-113968743D01*
X140263676Y-113900935D01*
X140280105Y-113836775D01*
X140367723Y-113682542D01*
X140367725Y-113682537D01*
X140370769Y-113677179D01*
X140433197Y-113489513D01*
X140457985Y-113293295D01*
X140458380Y-113265000D01*
X140439080Y-113068167D01*
X140421290Y-113009242D01*
X140411114Y-112975539D01*
X140381916Y-112878831D01*
X140289066Y-112704204D01*
X140285167Y-112699424D01*
X140284715Y-112698743D01*
X140263676Y-112630935D01*
X140280105Y-112566775D01*
X140367723Y-112412542D01*
X140367725Y-112412537D01*
X140370769Y-112407179D01*
X140433197Y-112219513D01*
X140457985Y-112023295D01*
X140458380Y-111995000D01*
X140439080Y-111798167D01*
X140424516Y-111749927D01*
X140403400Y-111679990D01*
X140381916Y-111608831D01*
X140289066Y-111434204D01*
X140285167Y-111429424D01*
X140284715Y-111428743D01*
X140263676Y-111360935D01*
X140280105Y-111296775D01*
X140367723Y-111142542D01*
X140367725Y-111142537D01*
X140370769Y-111137179D01*
X140433197Y-110949513D01*
X140457985Y-110753295D01*
X140458380Y-110725000D01*
X140439080Y-110528167D01*
X140421290Y-110469242D01*
X140411114Y-110435539D01*
X140381916Y-110338831D01*
X140289066Y-110164204D01*
X140285167Y-110159424D01*
X140284715Y-110158743D01*
X140263676Y-110090935D01*
X140280105Y-110026775D01*
X140367723Y-109872542D01*
X140367725Y-109872537D01*
X140370769Y-109867179D01*
X140433197Y-109679513D01*
X140457985Y-109483295D01*
X140458380Y-109455000D01*
X140439080Y-109258167D01*
X140381916Y-109068831D01*
X140289066Y-108894204D01*
X140285167Y-108889424D01*
X140284715Y-108888743D01*
X140263676Y-108820935D01*
X140280105Y-108756775D01*
X140367723Y-108602542D01*
X140367725Y-108602537D01*
X140370769Y-108597179D01*
X140433197Y-108409513D01*
X140457985Y-108213295D01*
X140458380Y-108185000D01*
X140439080Y-107988167D01*
X140431882Y-107964324D01*
X140398422Y-107853502D01*
X140381916Y-107798831D01*
X140289066Y-107624204D01*
X140285167Y-107619424D01*
X140284715Y-107618743D01*
X140263676Y-107550935D01*
X140280105Y-107486775D01*
X140367723Y-107332542D01*
X140367725Y-107332537D01*
X140370769Y-107327179D01*
X140433197Y-107139513D01*
X140457985Y-106943295D01*
X140458380Y-106915000D01*
X140439080Y-106718167D01*
X140424516Y-106669927D01*
X140402501Y-106597012D01*
X140381916Y-106528831D01*
X140289066Y-106354204D01*
X140285167Y-106349424D01*
X140284715Y-106348743D01*
X140263676Y-106280935D01*
X140280105Y-106216775D01*
X140367723Y-106062542D01*
X140367725Y-106062537D01*
X140370769Y-106057179D01*
X140433197Y-105869513D01*
X140457985Y-105673295D01*
X140458380Y-105645000D01*
X140439080Y-105448167D01*
X140431882Y-105424324D01*
X140403739Y-105331112D01*
X140381916Y-105258831D01*
X140289066Y-105084204D01*
X140285167Y-105079424D01*
X140284715Y-105078743D01*
X140263676Y-105010935D01*
X140280105Y-104946775D01*
X140367723Y-104792542D01*
X140367725Y-104792537D01*
X140370769Y-104787179D01*
X140433197Y-104599513D01*
X140457985Y-104403295D01*
X140458380Y-104375000D01*
X140439080Y-104178167D01*
X140424516Y-104129927D01*
X140403400Y-104059990D01*
X140381916Y-103988831D01*
X140289066Y-103814204D01*
X140218709Y-103727938D01*
X140167960Y-103665713D01*
X140167957Y-103665710D01*
X140164065Y-103660938D01*
X140148554Y-103648106D01*
X140016425Y-103538799D01*
X140016421Y-103538797D01*
X140011675Y-103534870D01*
X139837701Y-103440802D01*
X139648768Y-103382318D01*
X139642643Y-103381674D01*
X139642642Y-103381674D01*
X139458204Y-103362289D01*
X139458202Y-103362289D01*
X139452075Y-103361645D01*
X139369576Y-103369153D01*
X139261251Y-103379011D01*
X139261248Y-103379012D01*
X139255112Y-103379570D01*
X139249206Y-103381308D01*
X139249202Y-103381309D01*
X139113551Y-103421233D01*
X139065381Y-103435410D01*
X139059797Y-103438329D01*
X139059727Y-103438343D01*
X139054209Y-103440573D01*
X139053785Y-103439524D01*
X138990164Y-103452165D01*
X138937846Y-103432096D01*
X138936760Y-103434079D01*
X138928892Y-103429771D01*
X138921705Y-103424385D01*
X138785316Y-103373255D01*
X138723134Y-103366500D01*
X137626866Y-103366500D01*
X137564684Y-103373255D01*
X137428295Y-103424385D01*
X137311739Y-103511739D01*
X137224385Y-103628295D01*
X137173255Y-103764684D01*
X137166500Y-103826866D01*
X137166500Y-104923134D01*
X137173255Y-104985316D01*
X137224385Y-105121705D01*
X137229771Y-105128892D01*
X137234079Y-105136760D01*
X137231858Y-105137976D01*
X137252013Y-105191910D01*
X137242993Y-105245605D01*
X137243567Y-105245787D01*
X137241706Y-105251654D01*
X137241705Y-105251656D01*
X137206260Y-105363392D01*
X137183765Y-105434306D01*
X137161719Y-105630851D01*
X137162235Y-105636995D01*
X137174520Y-105783295D01*
X137178268Y-105827934D01*
X137179967Y-105833858D01*
X137223411Y-105985365D01*
X137232783Y-106018050D01*
X137235602Y-106023535D01*
X137312182Y-106172542D01*
X137323187Y-106193956D01*
X137327016Y-106198787D01*
X137328839Y-106201088D01*
X137329414Y-106202509D01*
X137330353Y-106203966D01*
X137330076Y-106204144D01*
X137355474Y-106266898D01*
X137342301Y-106336662D01*
X137338846Y-106342474D01*
X137243567Y-106515787D01*
X137241706Y-106521654D01*
X137241705Y-106521656D01*
X137206260Y-106633392D01*
X137183765Y-106704306D01*
X137161719Y-106900851D01*
X137162235Y-106906995D01*
X137174520Y-107053295D01*
X137178268Y-107097934D01*
X137194715Y-107155292D01*
X137223601Y-107256028D01*
X137232783Y-107288050D01*
X137235602Y-107293535D01*
X137312182Y-107442542D01*
X137323187Y-107463956D01*
X137327016Y-107468787D01*
X137328839Y-107471088D01*
X137329414Y-107472509D01*
X137330353Y-107473966D01*
X137330076Y-107474144D01*
X137355474Y-107536898D01*
X137342301Y-107606662D01*
X137338846Y-107612474D01*
X137243567Y-107785787D01*
X137241706Y-107791654D01*
X137241705Y-107791656D01*
X137206260Y-107903392D01*
X137183765Y-107974306D01*
X137161719Y-108170851D01*
X137162235Y-108176995D01*
X137174520Y-108323295D01*
X137178268Y-108367934D01*
X137179967Y-108373858D01*
X137223411Y-108525365D01*
X137232783Y-108558050D01*
X137235602Y-108563535D01*
X137312182Y-108712542D01*
X137323187Y-108733956D01*
X137327016Y-108738787D01*
X137328839Y-108741088D01*
X137329414Y-108742509D01*
X137330353Y-108743966D01*
X137330076Y-108744144D01*
X137355474Y-108806898D01*
X137342301Y-108876662D01*
X137338846Y-108882474D01*
X137243567Y-109055787D01*
X137241706Y-109061654D01*
X137241705Y-109061656D01*
X137226914Y-109108283D01*
X137183765Y-109244306D01*
X137161719Y-109440851D01*
X137163909Y-109466934D01*
X137174520Y-109593295D01*
X137178268Y-109637934D01*
X137185996Y-109664884D01*
X137223411Y-109795365D01*
X137232783Y-109828050D01*
X137235602Y-109833535D01*
X137312182Y-109982542D01*
X137323187Y-110003956D01*
X137327016Y-110008787D01*
X137328839Y-110011088D01*
X137329414Y-110012509D01*
X137330353Y-110013966D01*
X137330076Y-110014144D01*
X137355474Y-110076898D01*
X137342301Y-110146662D01*
X137338846Y-110152474D01*
X137243567Y-110325787D01*
X137241706Y-110331654D01*
X137241705Y-110331656D01*
X137212391Y-110424066D01*
X137183765Y-110514306D01*
X137161719Y-110710851D01*
X137162235Y-110716995D01*
X137174520Y-110863295D01*
X137178268Y-110907934D01*
X137179967Y-110913858D01*
X137223411Y-111065365D01*
X137232783Y-111098050D01*
X137235602Y-111103535D01*
X137312182Y-111252542D01*
X137323187Y-111273956D01*
X137327016Y-111278787D01*
X137328839Y-111281088D01*
X137329414Y-111282509D01*
X137330353Y-111283966D01*
X137330076Y-111284144D01*
X137355474Y-111346898D01*
X137342301Y-111416662D01*
X137338846Y-111422474D01*
X137243567Y-111595787D01*
X137241706Y-111601654D01*
X137241705Y-111601656D01*
X137206260Y-111713392D01*
X137183765Y-111784306D01*
X137161719Y-111980851D01*
X137162235Y-111986995D01*
X137174520Y-112133295D01*
X137178268Y-112177934D01*
X137182719Y-112193457D01*
X137215387Y-112307382D01*
X137232783Y-112368050D01*
X137235602Y-112373535D01*
X137294586Y-112488304D01*
X137323187Y-112543956D01*
X137327016Y-112548787D01*
X137328839Y-112551088D01*
X137329414Y-112552509D01*
X137330353Y-112553966D01*
X137330076Y-112554144D01*
X137355474Y-112616898D01*
X137342301Y-112686662D01*
X137338846Y-112692474D01*
X137243567Y-112865787D01*
X137241706Y-112871654D01*
X137241705Y-112871656D01*
X137190415Y-113033342D01*
X137183765Y-113054306D01*
X137161719Y-113250851D01*
X137162235Y-113256995D01*
X137171472Y-113366995D01*
X137178268Y-113447934D01*
X137179967Y-113453858D01*
X137218645Y-113588744D01*
X137232783Y-113638050D01*
X137323187Y-113813956D01*
X137327016Y-113818787D01*
X137328839Y-113821088D01*
X137329414Y-113822509D01*
X137330353Y-113823966D01*
X137330076Y-113824144D01*
X137355474Y-113886898D01*
X137342301Y-113956662D01*
X137338846Y-113962474D01*
X137243567Y-114135787D01*
X137241706Y-114141654D01*
X137241705Y-114141656D01*
X137233825Y-114166498D01*
X137183765Y-114324306D01*
X137161719Y-114520851D01*
X137162235Y-114526995D01*
X137177275Y-114706105D01*
X137178268Y-114717934D01*
X137186076Y-114745162D01*
X137225101Y-114881259D01*
X137232783Y-114908050D01*
X137323187Y-115083956D01*
X137327016Y-115088787D01*
X137328839Y-115091088D01*
X137329414Y-115092509D01*
X137330353Y-115093966D01*
X137330076Y-115094144D01*
X137355474Y-115156898D01*
X137342301Y-115226662D01*
X137338846Y-115232474D01*
X137243567Y-115405787D01*
X137241706Y-115411654D01*
X137241705Y-115411656D01*
X137228589Y-115453003D01*
X137183765Y-115594306D01*
X137161719Y-115790851D01*
X73015500Y-115790851D01*
X73015500Y-83836067D01*
X73016027Y-83824884D01*
X73017702Y-83817391D01*
X73015562Y-83749300D01*
X73015500Y-83745343D01*
X73015500Y-83717444D01*
X73014996Y-83713453D01*
X73014063Y-83701611D01*
X73012923Y-83665336D01*
X73012674Y-83657411D01*
X73010462Y-83649797D01*
X73010461Y-83649792D01*
X73007023Y-83637959D01*
X73003012Y-83618595D01*
X73001467Y-83606364D01*
X73000474Y-83598503D01*
X72997557Y-83591136D01*
X72997556Y-83591131D01*
X72984198Y-83557392D01*
X72980354Y-83546165D01*
X72970230Y-83511322D01*
X72968018Y-83503707D01*
X72957707Y-83486272D01*
X72949012Y-83468524D01*
X72941552Y-83449683D01*
X72915564Y-83413913D01*
X72909048Y-83403993D01*
X72890580Y-83372765D01*
X72890578Y-83372762D01*
X72886542Y-83365938D01*
X72872221Y-83351617D01*
X72859380Y-83336583D01*
X72852131Y-83326606D01*
X72847472Y-83320193D01*
X72813395Y-83292002D01*
X72804616Y-83284012D01*
X54668739Y-65148134D01*
X100726500Y-65148134D01*
X100733255Y-65210316D01*
X100784385Y-65346705D01*
X100871739Y-65463261D01*
X100988295Y-65550615D01*
X101124684Y-65601745D01*
X101186866Y-65608500D01*
X102283134Y-65608500D01*
X102345316Y-65601745D01*
X102481705Y-65550615D01*
X102488892Y-65545229D01*
X102496760Y-65540921D01*
X102497975Y-65543141D01*
X102551928Y-65522986D01*
X102599916Y-65528827D01*
X102777776Y-65586616D01*
X102787392Y-65589740D01*
X102983777Y-65613158D01*
X102989912Y-65612686D01*
X102989914Y-65612686D01*
X103174830Y-65598457D01*
X103174834Y-65598456D01*
X103180972Y-65597984D01*
X103371463Y-65544798D01*
X103376967Y-65542018D01*
X103376969Y-65542017D01*
X103542493Y-65458405D01*
X103542495Y-65458404D01*
X103547996Y-65455625D01*
X103561973Y-65444705D01*
X103627967Y-65418525D01*
X103701020Y-65434004D01*
X103864121Y-65525159D01*
X103875356Y-65530067D01*
X104003768Y-65571790D01*
X104017867Y-65572193D01*
X104021000Y-65565821D01*
X104021000Y-65557564D01*
X104529000Y-65557564D01*
X104532973Y-65571095D01*
X104541188Y-65572276D01*
X104635337Y-65545989D01*
X104646787Y-65541548D01*
X104812226Y-65457979D01*
X104822585Y-65451404D01*
X104968639Y-65337295D01*
X104977527Y-65328831D01*
X105098643Y-65188517D01*
X105105711Y-65178497D01*
X105197262Y-65017337D01*
X105202256Y-65006121D01*
X105247142Y-64871190D01*
X105247643Y-64857097D01*
X105241454Y-64854000D01*
X104547115Y-64854000D01*
X104531876Y-64858475D01*
X104530671Y-64859865D01*
X104529000Y-64867548D01*
X104529000Y-65557564D01*
X104021000Y-65557564D01*
X104021000Y-64327885D01*
X104529000Y-64327885D01*
X104533475Y-64343124D01*
X104534865Y-64344329D01*
X104542548Y-64346000D01*
X105233183Y-64346000D01*
X105246714Y-64342027D01*
X105247806Y-64334433D01*
X105213231Y-64219919D01*
X105208560Y-64208586D01*
X105121540Y-64044923D01*
X105114751Y-64034706D01*
X104997603Y-63891067D01*
X104988959Y-63882363D01*
X104846144Y-63764216D01*
X104835973Y-63757356D01*
X104672924Y-63669196D01*
X104661619Y-63664444D01*
X104546308Y-63628750D01*
X104532205Y-63628544D01*
X104529000Y-63635299D01*
X104529000Y-64327885D01*
X104021000Y-64327885D01*
X104021000Y-63642076D01*
X104017027Y-63628545D01*
X104009232Y-63627425D01*
X103901479Y-63659138D01*
X103890111Y-63663731D01*
X103725846Y-63749607D01*
X103710426Y-63759697D01*
X103709003Y-63757522D01*
X103653864Y-63780314D01*
X103584005Y-63767657D01*
X103574055Y-63761839D01*
X103571675Y-63759870D01*
X103397701Y-63665802D01*
X103208768Y-63607318D01*
X103202643Y-63606674D01*
X103202642Y-63606674D01*
X103018204Y-63587289D01*
X103018202Y-63587289D01*
X103012075Y-63586645D01*
X102929576Y-63594153D01*
X102821251Y-63604011D01*
X102821248Y-63604012D01*
X102815112Y-63604570D01*
X102809206Y-63606308D01*
X102809202Y-63606309D01*
X102673551Y-63646233D01*
X102625381Y-63660410D01*
X102619797Y-63663329D01*
X102619727Y-63663343D01*
X102614209Y-63665573D01*
X102613785Y-63664524D01*
X102550164Y-63677165D01*
X102497846Y-63657096D01*
X102496760Y-63659079D01*
X102488892Y-63654771D01*
X102481705Y-63649385D01*
X102345316Y-63598255D01*
X102283134Y-63591500D01*
X101186866Y-63591500D01*
X101124684Y-63598255D01*
X100988295Y-63649385D01*
X100871739Y-63736739D01*
X100784385Y-63853295D01*
X100733255Y-63989684D01*
X100726500Y-64051866D01*
X100726500Y-65148134D01*
X54668739Y-65148134D01*
X44799967Y-55279362D01*
X44765941Y-55217050D01*
X44771006Y-55146235D01*
X44800123Y-55101016D01*
X44924430Y-54977144D01*
X44924440Y-54977132D01*
X44928096Y-54973489D01*
X44987594Y-54890689D01*
X45058453Y-54792077D01*
X45059776Y-54793028D01*
X45106645Y-54749857D01*
X45176580Y-54737625D01*
X45242026Y-54765144D01*
X45269875Y-54796994D01*
X45329987Y-54895088D01*
X45476250Y-55063938D01*
X45648126Y-55206632D01*
X45841000Y-55319338D01*
X46049692Y-55399030D01*
X46054760Y-55400061D01*
X46054763Y-55400062D01*
X46134232Y-55416230D01*
X46268597Y-55443567D01*
X46273772Y-55443757D01*
X46273774Y-55443757D01*
X46486673Y-55451564D01*
X46486677Y-55451564D01*
X46491837Y-55451753D01*
X46496957Y-55451097D01*
X46496959Y-55451097D01*
X46708288Y-55424025D01*
X46708289Y-55424025D01*
X46713416Y-55423368D01*
X46737208Y-55416230D01*
X46922429Y-55360661D01*
X46922434Y-55360659D01*
X46927384Y-55359174D01*
X47127994Y-55260896D01*
X47309860Y-55131173D01*
X47468096Y-54973489D01*
X47527594Y-54890689D01*
X47598453Y-54792077D01*
X47599776Y-54793028D01*
X47646645Y-54749857D01*
X47716580Y-54737625D01*
X47782026Y-54765144D01*
X47809875Y-54796994D01*
X47869987Y-54895088D01*
X48016250Y-55063938D01*
X48188126Y-55206632D01*
X48381000Y-55319338D01*
X48589692Y-55399030D01*
X48594760Y-55400061D01*
X48594763Y-55400062D01*
X48674232Y-55416230D01*
X48808597Y-55443567D01*
X48813772Y-55443757D01*
X48813774Y-55443757D01*
X49026673Y-55451564D01*
X49026677Y-55451564D01*
X49031837Y-55451753D01*
X49036957Y-55451097D01*
X49036959Y-55451097D01*
X49248288Y-55424025D01*
X49248289Y-55424025D01*
X49253416Y-55423368D01*
X49277208Y-55416230D01*
X49462429Y-55360661D01*
X49462434Y-55360659D01*
X49467384Y-55359174D01*
X49667994Y-55260896D01*
X49849860Y-55131173D01*
X50008096Y-54973489D01*
X50067594Y-54890689D01*
X50138453Y-54792077D01*
X50139776Y-54793028D01*
X50186645Y-54749857D01*
X50256580Y-54737625D01*
X50322026Y-54765144D01*
X50349875Y-54796994D01*
X50409987Y-54895088D01*
X50556250Y-55063938D01*
X50728126Y-55206632D01*
X50921000Y-55319338D01*
X51129692Y-55399030D01*
X51134760Y-55400061D01*
X51134763Y-55400062D01*
X51214232Y-55416230D01*
X51348597Y-55443567D01*
X51353772Y-55443757D01*
X51353774Y-55443757D01*
X51566673Y-55451564D01*
X51566677Y-55451564D01*
X51571837Y-55451753D01*
X51576957Y-55451097D01*
X51576959Y-55451097D01*
X51788288Y-55424025D01*
X51788289Y-55424025D01*
X51793416Y-55423368D01*
X51817208Y-55416230D01*
X52002429Y-55360661D01*
X52002434Y-55360659D01*
X52007384Y-55359174D01*
X52207994Y-55260896D01*
X52389860Y-55131173D01*
X52457331Y-55063938D01*
X52498479Y-55022933D01*
X52560851Y-54989017D01*
X52631658Y-54994205D01*
X52688419Y-55036851D01*
X52705401Y-55067954D01*
X52746676Y-55178054D01*
X52755214Y-55193649D01*
X52831715Y-55295724D01*
X52844276Y-55308285D01*
X52946351Y-55384786D01*
X52961946Y-55393324D01*
X53082394Y-55438478D01*
X53097649Y-55442105D01*
X53148514Y-55447631D01*
X53155328Y-55448000D01*
X53777885Y-55448000D01*
X53793124Y-55443525D01*
X53794329Y-55442135D01*
X53796000Y-55434452D01*
X53796000Y-55429884D01*
X54304000Y-55429884D01*
X54308475Y-55445123D01*
X54309865Y-55446328D01*
X54317548Y-55447999D01*
X54944669Y-55447999D01*
X54951490Y-55447629D01*
X55002352Y-55442105D01*
X55017604Y-55438479D01*
X55138054Y-55393324D01*
X55153649Y-55384786D01*
X55255724Y-55308285D01*
X55268285Y-55295724D01*
X55344786Y-55193649D01*
X55353324Y-55178054D01*
X55394225Y-55068952D01*
X55436867Y-55012188D01*
X55503428Y-54987488D01*
X55572777Y-55002696D01*
X55607444Y-55030684D01*
X55632865Y-55060031D01*
X55632869Y-55060035D01*
X55636250Y-55063938D01*
X55808126Y-55206632D01*
X56001000Y-55319338D01*
X56209692Y-55399030D01*
X56214760Y-55400061D01*
X56214763Y-55400062D01*
X56294232Y-55416230D01*
X56428597Y-55443567D01*
X56433772Y-55443757D01*
X56433774Y-55443757D01*
X56646673Y-55451564D01*
X56646677Y-55451564D01*
X56651837Y-55451753D01*
X56656957Y-55451097D01*
X56656959Y-55451097D01*
X56868288Y-55424025D01*
X56868289Y-55424025D01*
X56873416Y-55423368D01*
X56897208Y-55416230D01*
X57082429Y-55360661D01*
X57082434Y-55360659D01*
X57087384Y-55359174D01*
X57287994Y-55260896D01*
X57469860Y-55131173D01*
X57628096Y-54973489D01*
X57687594Y-54890689D01*
X57758453Y-54792077D01*
X57759776Y-54793028D01*
X57806645Y-54749857D01*
X57876580Y-54737625D01*
X57942026Y-54765144D01*
X57969875Y-54796994D01*
X58029987Y-54895088D01*
X58176250Y-55063938D01*
X58348126Y-55206632D01*
X58541000Y-55319338D01*
X58749692Y-55399030D01*
X58754760Y-55400061D01*
X58754763Y-55400062D01*
X58834232Y-55416230D01*
X58968597Y-55443567D01*
X58973772Y-55443757D01*
X58973774Y-55443757D01*
X59186673Y-55451564D01*
X59186677Y-55451564D01*
X59191837Y-55451753D01*
X59196957Y-55451097D01*
X59196959Y-55451097D01*
X59408288Y-55424025D01*
X59408289Y-55424025D01*
X59413416Y-55423368D01*
X59437208Y-55416230D01*
X59622429Y-55360661D01*
X59622434Y-55360659D01*
X59627384Y-55359174D01*
X59827994Y-55260896D01*
X60009860Y-55131173D01*
X60168096Y-54973489D01*
X60227594Y-54890689D01*
X60298453Y-54792077D01*
X60299776Y-54793028D01*
X60346645Y-54749857D01*
X60416580Y-54737625D01*
X60482026Y-54765144D01*
X60509875Y-54796994D01*
X60569987Y-54895088D01*
X60716250Y-55063938D01*
X60888126Y-55206632D01*
X61081000Y-55319338D01*
X61289692Y-55399030D01*
X61294760Y-55400061D01*
X61294763Y-55400062D01*
X61374232Y-55416230D01*
X61508597Y-55443567D01*
X61513772Y-55443757D01*
X61513774Y-55443757D01*
X61726673Y-55451564D01*
X61726677Y-55451564D01*
X61731837Y-55451753D01*
X61736957Y-55451097D01*
X61736959Y-55451097D01*
X61948288Y-55424025D01*
X61948289Y-55424025D01*
X61953416Y-55423368D01*
X61977208Y-55416230D01*
X62162429Y-55360661D01*
X62162434Y-55360659D01*
X62167384Y-55359174D01*
X62367994Y-55260896D01*
X62549860Y-55131173D01*
X62708096Y-54973489D01*
X62767594Y-54890689D01*
X62838453Y-54792077D01*
X62839776Y-54793028D01*
X62886645Y-54749857D01*
X62956580Y-54737625D01*
X63022026Y-54765144D01*
X63049875Y-54796994D01*
X63109987Y-54895088D01*
X63256250Y-55063938D01*
X63428126Y-55206632D01*
X63621000Y-55319338D01*
X63829692Y-55399030D01*
X63834760Y-55400061D01*
X63834763Y-55400062D01*
X63914232Y-55416230D01*
X64048597Y-55443567D01*
X64053772Y-55443757D01*
X64053774Y-55443757D01*
X64266673Y-55451564D01*
X64266677Y-55451564D01*
X64271837Y-55451753D01*
X64276957Y-55451097D01*
X64276959Y-55451097D01*
X64488288Y-55424025D01*
X64488289Y-55424025D01*
X64493416Y-55423368D01*
X64517208Y-55416230D01*
X64702429Y-55360661D01*
X64702434Y-55360659D01*
X64707384Y-55359174D01*
X64907994Y-55260896D01*
X65089860Y-55131173D01*
X65157331Y-55063938D01*
X65198479Y-55022933D01*
X65260851Y-54989017D01*
X65331658Y-54994205D01*
X65388419Y-55036851D01*
X65405401Y-55067954D01*
X65446676Y-55178054D01*
X65455214Y-55193649D01*
X65531715Y-55295724D01*
X65544276Y-55308285D01*
X65646351Y-55384786D01*
X65661946Y-55393324D01*
X65782394Y-55438478D01*
X65797649Y-55442105D01*
X65848514Y-55447631D01*
X65855328Y-55448000D01*
X66477885Y-55448000D01*
X66493124Y-55443525D01*
X66494329Y-55442135D01*
X66496000Y-55434452D01*
X66496000Y-55429884D01*
X67004000Y-55429884D01*
X67008475Y-55445123D01*
X67009865Y-55446328D01*
X67017548Y-55447999D01*
X67644669Y-55447999D01*
X67651490Y-55447629D01*
X67702352Y-55442105D01*
X67717604Y-55438479D01*
X67838054Y-55393324D01*
X67853649Y-55384786D01*
X67955724Y-55308285D01*
X67968285Y-55295724D01*
X68044786Y-55193649D01*
X68053324Y-55178054D01*
X68094225Y-55068952D01*
X68136867Y-55012188D01*
X68203428Y-54987488D01*
X68272777Y-55002696D01*
X68307444Y-55030684D01*
X68332865Y-55060031D01*
X68332869Y-55060035D01*
X68336250Y-55063938D01*
X68508126Y-55206632D01*
X68701000Y-55319338D01*
X68909692Y-55399030D01*
X68914760Y-55400061D01*
X68914763Y-55400062D01*
X68994232Y-55416230D01*
X69128597Y-55443567D01*
X69133772Y-55443757D01*
X69133774Y-55443757D01*
X69346673Y-55451564D01*
X69346677Y-55451564D01*
X69351837Y-55451753D01*
X69356957Y-55451097D01*
X69356959Y-55451097D01*
X69568288Y-55424025D01*
X69568289Y-55424025D01*
X69573416Y-55423368D01*
X69597208Y-55416230D01*
X69782429Y-55360661D01*
X69782434Y-55360659D01*
X69787384Y-55359174D01*
X69987994Y-55260896D01*
X70169860Y-55131173D01*
X70328096Y-54973489D01*
X70387594Y-54890689D01*
X70458453Y-54792077D01*
X70459776Y-54793028D01*
X70506645Y-54749857D01*
X70576580Y-54737625D01*
X70642026Y-54765144D01*
X70669875Y-54796994D01*
X70729987Y-54895088D01*
X70876250Y-55063938D01*
X71048126Y-55206632D01*
X71241000Y-55319338D01*
X71449692Y-55399030D01*
X71454760Y-55400061D01*
X71454763Y-55400062D01*
X71534232Y-55416230D01*
X71668597Y-55443567D01*
X71673772Y-55443757D01*
X71673774Y-55443757D01*
X71886673Y-55451564D01*
X71886677Y-55451564D01*
X71891837Y-55451753D01*
X71896957Y-55451097D01*
X71896959Y-55451097D01*
X72108288Y-55424025D01*
X72108289Y-55424025D01*
X72113416Y-55423368D01*
X72137208Y-55416230D01*
X72322429Y-55360661D01*
X72322434Y-55360659D01*
X72327384Y-55359174D01*
X72527994Y-55260896D01*
X72709860Y-55131173D01*
X72868096Y-54973489D01*
X72927594Y-54890689D01*
X72998453Y-54792077D01*
X72999776Y-54793028D01*
X73046645Y-54749857D01*
X73116580Y-54737625D01*
X73182026Y-54765144D01*
X73209875Y-54796994D01*
X73269987Y-54895088D01*
X73416250Y-55063938D01*
X73588126Y-55206632D01*
X73781000Y-55319338D01*
X73989692Y-55399030D01*
X73994760Y-55400061D01*
X73994763Y-55400062D01*
X74074232Y-55416230D01*
X74208597Y-55443567D01*
X74213772Y-55443757D01*
X74213774Y-55443757D01*
X74426673Y-55451564D01*
X74426677Y-55451564D01*
X74431837Y-55451753D01*
X74436957Y-55451097D01*
X74436959Y-55451097D01*
X74648288Y-55424025D01*
X74648289Y-55424025D01*
X74653416Y-55423368D01*
X74677208Y-55416230D01*
X74862429Y-55360661D01*
X74862434Y-55360659D01*
X74867384Y-55359174D01*
X75067994Y-55260896D01*
X75249860Y-55131173D01*
X75408096Y-54973489D01*
X75467594Y-54890689D01*
X75538453Y-54792077D01*
X75539776Y-54793028D01*
X75586645Y-54749857D01*
X75656580Y-54737625D01*
X75722026Y-54765144D01*
X75749875Y-54796994D01*
X75809987Y-54895088D01*
X75956250Y-55063938D01*
X76128126Y-55206632D01*
X76321000Y-55319338D01*
X76529692Y-55399030D01*
X76534760Y-55400061D01*
X76534763Y-55400062D01*
X76614232Y-55416230D01*
X76748597Y-55443567D01*
X76753772Y-55443757D01*
X76753774Y-55443757D01*
X76966673Y-55451564D01*
X76966677Y-55451564D01*
X76971837Y-55451753D01*
X76976957Y-55451097D01*
X76976959Y-55451097D01*
X77188288Y-55424025D01*
X77188289Y-55424025D01*
X77193416Y-55423368D01*
X77217208Y-55416230D01*
X77402429Y-55360661D01*
X77402434Y-55360659D01*
X77407384Y-55359174D01*
X77607994Y-55260896D01*
X77789860Y-55131173D01*
X77857331Y-55063938D01*
X77898479Y-55022933D01*
X77960851Y-54989017D01*
X78031658Y-54994205D01*
X78088419Y-55036851D01*
X78105401Y-55067954D01*
X78146676Y-55178054D01*
X78155214Y-55193649D01*
X78231715Y-55295724D01*
X78244276Y-55308285D01*
X78346351Y-55384786D01*
X78361946Y-55393324D01*
X78482394Y-55438478D01*
X78497649Y-55442105D01*
X78548514Y-55447631D01*
X78555328Y-55448000D01*
X79177885Y-55448000D01*
X79193124Y-55443525D01*
X79194329Y-55442135D01*
X79196000Y-55434452D01*
X79196000Y-55429884D01*
X79704000Y-55429884D01*
X79708475Y-55445123D01*
X79709865Y-55446328D01*
X79717548Y-55447999D01*
X80344669Y-55447999D01*
X80351490Y-55447629D01*
X80402352Y-55442105D01*
X80417604Y-55438479D01*
X80538054Y-55393324D01*
X80553649Y-55384786D01*
X80655724Y-55308285D01*
X80668285Y-55295724D01*
X80744786Y-55193649D01*
X80753324Y-55178054D01*
X80794225Y-55068952D01*
X80836867Y-55012188D01*
X80903428Y-54987488D01*
X80972777Y-55002696D01*
X81007444Y-55030684D01*
X81032865Y-55060031D01*
X81032869Y-55060035D01*
X81036250Y-55063938D01*
X81208126Y-55206632D01*
X81401000Y-55319338D01*
X81609692Y-55399030D01*
X81614760Y-55400061D01*
X81614763Y-55400062D01*
X81694232Y-55416230D01*
X81828597Y-55443567D01*
X81833772Y-55443757D01*
X81833774Y-55443757D01*
X82046673Y-55451564D01*
X82046677Y-55451564D01*
X82051837Y-55451753D01*
X82056957Y-55451097D01*
X82056959Y-55451097D01*
X82268288Y-55424025D01*
X82268289Y-55424025D01*
X82273416Y-55423368D01*
X82297208Y-55416230D01*
X82482429Y-55360661D01*
X82482434Y-55360659D01*
X82487384Y-55359174D01*
X82687994Y-55260896D01*
X82869860Y-55131173D01*
X83028096Y-54973489D01*
X83087594Y-54890689D01*
X83158453Y-54792077D01*
X83159776Y-54793028D01*
X83206645Y-54749857D01*
X83276580Y-54737625D01*
X83342026Y-54765144D01*
X83369875Y-54796994D01*
X83429987Y-54895088D01*
X83576250Y-55063938D01*
X83748126Y-55206632D01*
X83941000Y-55319338D01*
X84149692Y-55399030D01*
X84154760Y-55400061D01*
X84154763Y-55400062D01*
X84234232Y-55416230D01*
X84368597Y-55443567D01*
X84373772Y-55443757D01*
X84373774Y-55443757D01*
X84586673Y-55451564D01*
X84586677Y-55451564D01*
X84591837Y-55451753D01*
X84596957Y-55451097D01*
X84596959Y-55451097D01*
X84808288Y-55424025D01*
X84808289Y-55424025D01*
X84813416Y-55423368D01*
X84837208Y-55416230D01*
X85022429Y-55360661D01*
X85022434Y-55360659D01*
X85027384Y-55359174D01*
X85227994Y-55260896D01*
X85409860Y-55131173D01*
X85568096Y-54973489D01*
X85627594Y-54890689D01*
X85695435Y-54796277D01*
X85698453Y-54792077D01*
X85719320Y-54749857D01*
X85795136Y-54596453D01*
X85795137Y-54596451D01*
X85797430Y-54591811D01*
X85862370Y-54378069D01*
X85891529Y-54156590D01*
X85893156Y-54090000D01*
X85874852Y-53867361D01*
X85820431Y-53650702D01*
X85731354Y-53445840D01*
X85610014Y-53258277D01*
X85459670Y-53093051D01*
X85455619Y-53089852D01*
X85455615Y-53089848D01*
X85288414Y-52957800D01*
X85288410Y-52957798D01*
X85284359Y-52954598D01*
X85088789Y-52846638D01*
X85083920Y-52844914D01*
X85083916Y-52844912D01*
X84883087Y-52773795D01*
X84883083Y-52773794D01*
X84878212Y-52772069D01*
X84873119Y-52771162D01*
X84873116Y-52771161D01*
X84663373Y-52733800D01*
X84663367Y-52733799D01*
X84658284Y-52732894D01*
X84584452Y-52731992D01*
X84440081Y-52730228D01*
X84440079Y-52730228D01*
X84434911Y-52730165D01*
X84214091Y-52763955D01*
X84001756Y-52833357D01*
X83803607Y-52936507D01*
X83799474Y-52939610D01*
X83799471Y-52939612D01*
X83716450Y-53001946D01*
X83624965Y-53070635D01*
X83470629Y-53232138D01*
X83363201Y-53389621D01*
X83308293Y-53434621D01*
X83237768Y-53442792D01*
X83174021Y-53411538D01*
X83153324Y-53387054D01*
X83072822Y-53262617D01*
X83072820Y-53262614D01*
X83070014Y-53258277D01*
X82919670Y-53093051D01*
X82915619Y-53089852D01*
X82915615Y-53089848D01*
X82748414Y-52957800D01*
X82748410Y-52957798D01*
X82744359Y-52954598D01*
X82548789Y-52846638D01*
X82543920Y-52844914D01*
X82543916Y-52844912D01*
X82343087Y-52773795D01*
X82343083Y-52773794D01*
X82338212Y-52772069D01*
X82333119Y-52771162D01*
X82333116Y-52771161D01*
X82123373Y-52733800D01*
X82123367Y-52733799D01*
X82118284Y-52732894D01*
X82044452Y-52731992D01*
X81900081Y-52730228D01*
X81900079Y-52730228D01*
X81894911Y-52730165D01*
X81674091Y-52763955D01*
X81461756Y-52833357D01*
X81263607Y-52936507D01*
X81259474Y-52939610D01*
X81259471Y-52939612D01*
X81176450Y-53001946D01*
X81084965Y-53070635D01*
X81081393Y-53074373D01*
X81003898Y-53155466D01*
X80942374Y-53190895D01*
X80871462Y-53187438D01*
X80813676Y-53146192D01*
X80794823Y-53112644D01*
X80753324Y-53001946D01*
X80744786Y-52986351D01*
X80668285Y-52884276D01*
X80655724Y-52871715D01*
X80553649Y-52795214D01*
X80538054Y-52786676D01*
X80417606Y-52741522D01*
X80402351Y-52737895D01*
X80351486Y-52732369D01*
X80344672Y-52732000D01*
X79722115Y-52732000D01*
X79706876Y-52736475D01*
X79705671Y-52737865D01*
X79704000Y-52745548D01*
X79704000Y-55429884D01*
X79196000Y-55429884D01*
X79196000Y-52750116D01*
X79191525Y-52734877D01*
X79190135Y-52733672D01*
X79182452Y-52732001D01*
X78555331Y-52732001D01*
X78548510Y-52732371D01*
X78497648Y-52737895D01*
X78482396Y-52741521D01*
X78361946Y-52786676D01*
X78346351Y-52795214D01*
X78244276Y-52871715D01*
X78231715Y-52884276D01*
X78155214Y-52986351D01*
X78146676Y-53001946D01*
X78105297Y-53112322D01*
X78062655Y-53169087D01*
X77996093Y-53193786D01*
X77926744Y-53178578D01*
X77894121Y-53152891D01*
X77843151Y-53096876D01*
X77843145Y-53096870D01*
X77839670Y-53093051D01*
X77835619Y-53089852D01*
X77835615Y-53089848D01*
X77668414Y-52957800D01*
X77668410Y-52957798D01*
X77664359Y-52954598D01*
X77468789Y-52846638D01*
X77463920Y-52844914D01*
X77463916Y-52844912D01*
X77263087Y-52773795D01*
X77263083Y-52773794D01*
X77258212Y-52772069D01*
X77253119Y-52771162D01*
X77253116Y-52771161D01*
X77043373Y-52733800D01*
X77043367Y-52733799D01*
X77038284Y-52732894D01*
X76964452Y-52731992D01*
X76820081Y-52730228D01*
X76820079Y-52730228D01*
X76814911Y-52730165D01*
X76594091Y-52763955D01*
X76381756Y-52833357D01*
X76183607Y-52936507D01*
X76179474Y-52939610D01*
X76179471Y-52939612D01*
X76096450Y-53001946D01*
X76004965Y-53070635D01*
X75850629Y-53232138D01*
X75743201Y-53389621D01*
X75688293Y-53434621D01*
X75617768Y-53442792D01*
X75554021Y-53411538D01*
X75533324Y-53387054D01*
X75452822Y-53262617D01*
X75452820Y-53262614D01*
X75450014Y-53258277D01*
X75299670Y-53093051D01*
X75295619Y-53089852D01*
X75295615Y-53089848D01*
X75128414Y-52957800D01*
X75128410Y-52957798D01*
X75124359Y-52954598D01*
X74928789Y-52846638D01*
X74923920Y-52844914D01*
X74923916Y-52844912D01*
X74723087Y-52773795D01*
X74723083Y-52773794D01*
X74718212Y-52772069D01*
X74713119Y-52771162D01*
X74713116Y-52771161D01*
X74503373Y-52733800D01*
X74503367Y-52733799D01*
X74498284Y-52732894D01*
X74424452Y-52731992D01*
X74280081Y-52730228D01*
X74280079Y-52730228D01*
X74274911Y-52730165D01*
X74054091Y-52763955D01*
X73841756Y-52833357D01*
X73643607Y-52936507D01*
X73639474Y-52939610D01*
X73639471Y-52939612D01*
X73556450Y-53001946D01*
X73464965Y-53070635D01*
X73310629Y-53232138D01*
X73203201Y-53389621D01*
X73148293Y-53434621D01*
X73077768Y-53442792D01*
X73014021Y-53411538D01*
X72993324Y-53387054D01*
X72912822Y-53262617D01*
X72912820Y-53262614D01*
X72910014Y-53258277D01*
X72759670Y-53093051D01*
X72755619Y-53089852D01*
X72755615Y-53089848D01*
X72588414Y-52957800D01*
X72588410Y-52957798D01*
X72584359Y-52954598D01*
X72388789Y-52846638D01*
X72383920Y-52844914D01*
X72383916Y-52844912D01*
X72183087Y-52773795D01*
X72183083Y-52773794D01*
X72178212Y-52772069D01*
X72173119Y-52771162D01*
X72173116Y-52771161D01*
X71963373Y-52733800D01*
X71963367Y-52733799D01*
X71958284Y-52732894D01*
X71884452Y-52731992D01*
X71740081Y-52730228D01*
X71740079Y-52730228D01*
X71734911Y-52730165D01*
X71514091Y-52763955D01*
X71301756Y-52833357D01*
X71103607Y-52936507D01*
X71099474Y-52939610D01*
X71099471Y-52939612D01*
X71016450Y-53001946D01*
X70924965Y-53070635D01*
X70770629Y-53232138D01*
X70663201Y-53389621D01*
X70608293Y-53434621D01*
X70537768Y-53442792D01*
X70474021Y-53411538D01*
X70453324Y-53387054D01*
X70372822Y-53262617D01*
X70372820Y-53262614D01*
X70370014Y-53258277D01*
X70219670Y-53093051D01*
X70215619Y-53089852D01*
X70215615Y-53089848D01*
X70048414Y-52957800D01*
X70048410Y-52957798D01*
X70044359Y-52954598D01*
X69848789Y-52846638D01*
X69843920Y-52844914D01*
X69843916Y-52844912D01*
X69643087Y-52773795D01*
X69643083Y-52773794D01*
X69638212Y-52772069D01*
X69633119Y-52771162D01*
X69633116Y-52771161D01*
X69423373Y-52733800D01*
X69423367Y-52733799D01*
X69418284Y-52732894D01*
X69344452Y-52731992D01*
X69200081Y-52730228D01*
X69200079Y-52730228D01*
X69194911Y-52730165D01*
X68974091Y-52763955D01*
X68761756Y-52833357D01*
X68563607Y-52936507D01*
X68559474Y-52939610D01*
X68559471Y-52939612D01*
X68476450Y-53001946D01*
X68384965Y-53070635D01*
X68381393Y-53074373D01*
X68303898Y-53155466D01*
X68242374Y-53190895D01*
X68171462Y-53187438D01*
X68113676Y-53146192D01*
X68094823Y-53112644D01*
X68053324Y-53001946D01*
X68044786Y-52986351D01*
X67968285Y-52884276D01*
X67955724Y-52871715D01*
X67853649Y-52795214D01*
X67838054Y-52786676D01*
X67717606Y-52741522D01*
X67702351Y-52737895D01*
X67651486Y-52732369D01*
X67644672Y-52732000D01*
X67022115Y-52732000D01*
X67006876Y-52736475D01*
X67005671Y-52737865D01*
X67004000Y-52745548D01*
X67004000Y-55429884D01*
X66496000Y-55429884D01*
X66496000Y-52750116D01*
X66491525Y-52734877D01*
X66490135Y-52733672D01*
X66482452Y-52732001D01*
X65855331Y-52732001D01*
X65848510Y-52732371D01*
X65797648Y-52737895D01*
X65782396Y-52741521D01*
X65661946Y-52786676D01*
X65646351Y-52795214D01*
X65544276Y-52871715D01*
X65531715Y-52884276D01*
X65455214Y-52986351D01*
X65446676Y-53001946D01*
X65405297Y-53112322D01*
X65362655Y-53169087D01*
X65296093Y-53193786D01*
X65226744Y-53178578D01*
X65194121Y-53152891D01*
X65143151Y-53096876D01*
X65143145Y-53096870D01*
X65139670Y-53093051D01*
X65135619Y-53089852D01*
X65135615Y-53089848D01*
X64968414Y-52957800D01*
X64968410Y-52957798D01*
X64964359Y-52954598D01*
X64768789Y-52846638D01*
X64763920Y-52844914D01*
X64763916Y-52844912D01*
X64563087Y-52773795D01*
X64563083Y-52773794D01*
X64558212Y-52772069D01*
X64553119Y-52771162D01*
X64553116Y-52771161D01*
X64343373Y-52733800D01*
X64343367Y-52733799D01*
X64338284Y-52732894D01*
X64264452Y-52731992D01*
X64120081Y-52730228D01*
X64120079Y-52730228D01*
X64114911Y-52730165D01*
X63894091Y-52763955D01*
X63681756Y-52833357D01*
X63483607Y-52936507D01*
X63479474Y-52939610D01*
X63479471Y-52939612D01*
X63396450Y-53001946D01*
X63304965Y-53070635D01*
X63150629Y-53232138D01*
X63043201Y-53389621D01*
X62988293Y-53434621D01*
X62917768Y-53442792D01*
X62854021Y-53411538D01*
X62833324Y-53387054D01*
X62752822Y-53262617D01*
X62752820Y-53262614D01*
X62750014Y-53258277D01*
X62599670Y-53093051D01*
X62595619Y-53089852D01*
X62595615Y-53089848D01*
X62428414Y-52957800D01*
X62428410Y-52957798D01*
X62424359Y-52954598D01*
X62228789Y-52846638D01*
X62223920Y-52844914D01*
X62223916Y-52844912D01*
X62023087Y-52773795D01*
X62023083Y-52773794D01*
X62018212Y-52772069D01*
X62013119Y-52771162D01*
X62013116Y-52771161D01*
X61803373Y-52733800D01*
X61803367Y-52733799D01*
X61798284Y-52732894D01*
X61724452Y-52731992D01*
X61580081Y-52730228D01*
X61580079Y-52730228D01*
X61574911Y-52730165D01*
X61354091Y-52763955D01*
X61141756Y-52833357D01*
X60943607Y-52936507D01*
X60939474Y-52939610D01*
X60939471Y-52939612D01*
X60856450Y-53001946D01*
X60764965Y-53070635D01*
X60610629Y-53232138D01*
X60503201Y-53389621D01*
X60448293Y-53434621D01*
X60377768Y-53442792D01*
X60314021Y-53411538D01*
X60293324Y-53387054D01*
X60212822Y-53262617D01*
X60212820Y-53262614D01*
X60210014Y-53258277D01*
X60059670Y-53093051D01*
X60055619Y-53089852D01*
X60055615Y-53089848D01*
X59888414Y-52957800D01*
X59888410Y-52957798D01*
X59884359Y-52954598D01*
X59688789Y-52846638D01*
X59683920Y-52844914D01*
X59683916Y-52844912D01*
X59483087Y-52773795D01*
X59483083Y-52773794D01*
X59478212Y-52772069D01*
X59473119Y-52771162D01*
X59473116Y-52771161D01*
X59263373Y-52733800D01*
X59263367Y-52733799D01*
X59258284Y-52732894D01*
X59184452Y-52731992D01*
X59040081Y-52730228D01*
X59040079Y-52730228D01*
X59034911Y-52730165D01*
X58814091Y-52763955D01*
X58601756Y-52833357D01*
X58403607Y-52936507D01*
X58399474Y-52939610D01*
X58399471Y-52939612D01*
X58316450Y-53001946D01*
X58224965Y-53070635D01*
X58070629Y-53232138D01*
X57963201Y-53389621D01*
X57908293Y-53434621D01*
X57837768Y-53442792D01*
X57774021Y-53411538D01*
X57753324Y-53387054D01*
X57672822Y-53262617D01*
X57672820Y-53262614D01*
X57670014Y-53258277D01*
X57519670Y-53093051D01*
X57515619Y-53089852D01*
X57515615Y-53089848D01*
X57348414Y-52957800D01*
X57348410Y-52957798D01*
X57344359Y-52954598D01*
X57148789Y-52846638D01*
X57143920Y-52844914D01*
X57143916Y-52844912D01*
X56943087Y-52773795D01*
X56943083Y-52773794D01*
X56938212Y-52772069D01*
X56933119Y-52771162D01*
X56933116Y-52771161D01*
X56723373Y-52733800D01*
X56723367Y-52733799D01*
X56718284Y-52732894D01*
X56644452Y-52731992D01*
X56500081Y-52730228D01*
X56500079Y-52730228D01*
X56494911Y-52730165D01*
X56274091Y-52763955D01*
X56061756Y-52833357D01*
X55863607Y-52936507D01*
X55859474Y-52939610D01*
X55859471Y-52939612D01*
X55776450Y-53001946D01*
X55684965Y-53070635D01*
X55681393Y-53074373D01*
X55603898Y-53155466D01*
X55542374Y-53190895D01*
X55471462Y-53187438D01*
X55413676Y-53146192D01*
X55394823Y-53112644D01*
X55353324Y-53001946D01*
X55344786Y-52986351D01*
X55268285Y-52884276D01*
X55255724Y-52871715D01*
X55153649Y-52795214D01*
X55138054Y-52786676D01*
X55017606Y-52741522D01*
X55002351Y-52737895D01*
X54951486Y-52732369D01*
X54944672Y-52732000D01*
X54322115Y-52732000D01*
X54306876Y-52736475D01*
X54305671Y-52737865D01*
X54304000Y-52745548D01*
X54304000Y-55429884D01*
X53796000Y-55429884D01*
X53796000Y-52750116D01*
X53791525Y-52734877D01*
X53790135Y-52733672D01*
X53782452Y-52732001D01*
X53155331Y-52732001D01*
X53148510Y-52732371D01*
X53097648Y-52737895D01*
X53082396Y-52741521D01*
X52961946Y-52786676D01*
X52946351Y-52795214D01*
X52844276Y-52871715D01*
X52831715Y-52884276D01*
X52755214Y-52986351D01*
X52746676Y-53001946D01*
X52705297Y-53112322D01*
X52662655Y-53169087D01*
X52596093Y-53193786D01*
X52526744Y-53178578D01*
X52494121Y-53152891D01*
X52443151Y-53096876D01*
X52443145Y-53096870D01*
X52439670Y-53093051D01*
X52435619Y-53089852D01*
X52435615Y-53089848D01*
X52268414Y-52957800D01*
X52268410Y-52957798D01*
X52264359Y-52954598D01*
X52068789Y-52846638D01*
X52063920Y-52844914D01*
X52063916Y-52844912D01*
X51863087Y-52773795D01*
X51863083Y-52773794D01*
X51858212Y-52772069D01*
X51853119Y-52771162D01*
X51853116Y-52771161D01*
X51643373Y-52733800D01*
X51643367Y-52733799D01*
X51638284Y-52732894D01*
X51564452Y-52731992D01*
X51420081Y-52730228D01*
X51420079Y-52730228D01*
X51414911Y-52730165D01*
X51194091Y-52763955D01*
X50981756Y-52833357D01*
X50783607Y-52936507D01*
X50779474Y-52939610D01*
X50779471Y-52939612D01*
X50696450Y-53001946D01*
X50604965Y-53070635D01*
X50450629Y-53232138D01*
X50343201Y-53389621D01*
X50288293Y-53434621D01*
X50217768Y-53442792D01*
X50154021Y-53411538D01*
X50133324Y-53387054D01*
X50052822Y-53262617D01*
X50052820Y-53262614D01*
X50050014Y-53258277D01*
X49899670Y-53093051D01*
X49895619Y-53089852D01*
X49895615Y-53089848D01*
X49728414Y-52957800D01*
X49728410Y-52957798D01*
X49724359Y-52954598D01*
X49528789Y-52846638D01*
X49523920Y-52844914D01*
X49523916Y-52844912D01*
X49323087Y-52773795D01*
X49323083Y-52773794D01*
X49318212Y-52772069D01*
X49313119Y-52771162D01*
X49313116Y-52771161D01*
X49103373Y-52733800D01*
X49103367Y-52733799D01*
X49098284Y-52732894D01*
X49024452Y-52731992D01*
X48880081Y-52730228D01*
X48880079Y-52730228D01*
X48874911Y-52730165D01*
X48654091Y-52763955D01*
X48441756Y-52833357D01*
X48243607Y-52936507D01*
X48239474Y-52939610D01*
X48239471Y-52939612D01*
X48156450Y-53001946D01*
X48064965Y-53070635D01*
X47910629Y-53232138D01*
X47803201Y-53389621D01*
X47748293Y-53434621D01*
X47677768Y-53442792D01*
X47614021Y-53411538D01*
X47593324Y-53387054D01*
X47512822Y-53262617D01*
X47512820Y-53262614D01*
X47510014Y-53258277D01*
X47359670Y-53093051D01*
X47355619Y-53089852D01*
X47355615Y-53089848D01*
X47188414Y-52957800D01*
X47188410Y-52957798D01*
X47184359Y-52954598D01*
X46988789Y-52846638D01*
X46983920Y-52844914D01*
X46983916Y-52844912D01*
X46783087Y-52773795D01*
X46783083Y-52773794D01*
X46778212Y-52772069D01*
X46773119Y-52771162D01*
X46773116Y-52771161D01*
X46563373Y-52733800D01*
X46563367Y-52733799D01*
X46558284Y-52732894D01*
X46484452Y-52731992D01*
X46340081Y-52730228D01*
X46340079Y-52730228D01*
X46334911Y-52730165D01*
X46114091Y-52763955D01*
X45901756Y-52833357D01*
X45703607Y-52936507D01*
X45699474Y-52939610D01*
X45699471Y-52939612D01*
X45616450Y-53001946D01*
X45524965Y-53070635D01*
X45370629Y-53232138D01*
X45263201Y-53389621D01*
X45208293Y-53434621D01*
X45137768Y-53442792D01*
X45074021Y-53411538D01*
X45053324Y-53387054D01*
X44972822Y-53262617D01*
X44972820Y-53262614D01*
X44970014Y-53258277D01*
X44819670Y-53093051D01*
X44815619Y-53089852D01*
X44815615Y-53089848D01*
X44648414Y-52957800D01*
X44648410Y-52957798D01*
X44644359Y-52954598D01*
X44448789Y-52846638D01*
X44443920Y-52844914D01*
X44443916Y-52844912D01*
X44243087Y-52773795D01*
X44243083Y-52773794D01*
X44238212Y-52772069D01*
X44233119Y-52771162D01*
X44233116Y-52771161D01*
X44023373Y-52733800D01*
X44023367Y-52733799D01*
X44018284Y-52732894D01*
X43944452Y-52731992D01*
X43800081Y-52730228D01*
X43800079Y-52730228D01*
X43794911Y-52730165D01*
X43574091Y-52763955D01*
X43361756Y-52833357D01*
X43163607Y-52936507D01*
X43159474Y-52939610D01*
X43159471Y-52939612D01*
X43076450Y-53001946D01*
X42984965Y-53070635D01*
X42981393Y-53074373D01*
X42903898Y-53155466D01*
X42842374Y-53190895D01*
X42771462Y-53187438D01*
X42713676Y-53146192D01*
X42694823Y-53112644D01*
X42653324Y-53001946D01*
X42644786Y-52986351D01*
X42568285Y-52884276D01*
X42555724Y-52871715D01*
X42453649Y-52795214D01*
X42438054Y-52786676D01*
X42317606Y-52741522D01*
X42302351Y-52737895D01*
X42251486Y-52732369D01*
X42244672Y-52732000D01*
X41622115Y-52732000D01*
X41606876Y-52736475D01*
X41605671Y-52737865D01*
X41604000Y-52745548D01*
X41604000Y-55429884D01*
X41608475Y-55445123D01*
X41609865Y-55446328D01*
X41617548Y-55447999D01*
X42244669Y-55447999D01*
X42251490Y-55447629D01*
X42302352Y-55442105D01*
X42317604Y-55438479D01*
X42438054Y-55393324D01*
X42453649Y-55384786D01*
X42555724Y-55308285D01*
X42568285Y-55295724D01*
X42644786Y-55193649D01*
X42653324Y-55178054D01*
X42694225Y-55068952D01*
X42736867Y-55012188D01*
X42803428Y-54987488D01*
X42872777Y-55002696D01*
X42907444Y-55030684D01*
X42932865Y-55060031D01*
X42932869Y-55060035D01*
X42936250Y-55063938D01*
X43108126Y-55206632D01*
X43112589Y-55209240D01*
X43112592Y-55209242D01*
X43125954Y-55217050D01*
X43196902Y-55258508D01*
X43245625Y-55310145D01*
X43255783Y-55349760D01*
X43257837Y-55349435D01*
X43259078Y-55357269D01*
X43259327Y-55365189D01*
X43264978Y-55384639D01*
X43268987Y-55404000D01*
X43271526Y-55424097D01*
X43274445Y-55431468D01*
X43274445Y-55431470D01*
X43287804Y-55465212D01*
X43291649Y-55476442D01*
X43303982Y-55518893D01*
X43308015Y-55525712D01*
X43308017Y-55525717D01*
X43314293Y-55536328D01*
X43322988Y-55554076D01*
X43330448Y-55572917D01*
X43335110Y-55579333D01*
X43335110Y-55579334D01*
X43356436Y-55608687D01*
X43362952Y-55618607D01*
X43385458Y-55656662D01*
X43399779Y-55670983D01*
X43412619Y-55686016D01*
X43424528Y-55702407D01*
X43430634Y-55707458D01*
X43458605Y-55730598D01*
X43467384Y-55738588D01*
X71711595Y-83982800D01*
X71745621Y-84045112D01*
X71748500Y-84071895D01*
X71748500Y-114453405D01*
X71728498Y-114521526D01*
X71674842Y-114568019D01*
X71604568Y-114578123D01*
X71539988Y-114548629D01*
X71533405Y-114542500D01*
X69246674Y-112255769D01*
X69212648Y-112193457D01*
X69210763Y-112150883D01*
X69212985Y-112133295D01*
X69213380Y-112105000D01*
X69194080Y-111908167D01*
X69136916Y-111718831D01*
X69044066Y-111544204D01*
X69040167Y-111539424D01*
X69039715Y-111538743D01*
X69018676Y-111470935D01*
X69035105Y-111406775D01*
X69122723Y-111252542D01*
X69122725Y-111252537D01*
X69125769Y-111247179D01*
X69188197Y-111059513D01*
X69212985Y-110863295D01*
X69213380Y-110835000D01*
X69194080Y-110638167D01*
X69136916Y-110448831D01*
X69044066Y-110274204D01*
X69040167Y-110269424D01*
X69039715Y-110268743D01*
X69018676Y-110200935D01*
X69035105Y-110136775D01*
X69122723Y-109982542D01*
X69122725Y-109982537D01*
X69125769Y-109977179D01*
X69188197Y-109789513D01*
X69212985Y-109593295D01*
X69213380Y-109565000D01*
X69194080Y-109368167D01*
X69184994Y-109338071D01*
X69159087Y-109252264D01*
X69136916Y-109178831D01*
X69044066Y-109004204D01*
X69040167Y-108999424D01*
X69039715Y-108998743D01*
X69018676Y-108930935D01*
X69035105Y-108866775D01*
X69122723Y-108712542D01*
X69122725Y-108712537D01*
X69125769Y-108707179D01*
X69188197Y-108519513D01*
X69212985Y-108323295D01*
X69213380Y-108295000D01*
X69194080Y-108098167D01*
X69136916Y-107908831D01*
X69044066Y-107734204D01*
X69040167Y-107729424D01*
X69039715Y-107728743D01*
X69018676Y-107660935D01*
X69035105Y-107596775D01*
X69122723Y-107442542D01*
X69122725Y-107442537D01*
X69125769Y-107437179D01*
X69188197Y-107249513D01*
X69212985Y-107053295D01*
X69213380Y-107025000D01*
X69194080Y-106828167D01*
X69136916Y-106638831D01*
X69044066Y-106464204D01*
X69040167Y-106459424D01*
X69039715Y-106458743D01*
X69018676Y-106390935D01*
X69035105Y-106326775D01*
X69040107Y-106317971D01*
X69090567Y-106229145D01*
X69122723Y-106172542D01*
X69122725Y-106172537D01*
X69125769Y-106167179D01*
X69188197Y-105979513D01*
X69212985Y-105783295D01*
X69213380Y-105755000D01*
X69194080Y-105558167D01*
X69136916Y-105368831D01*
X69044066Y-105194204D01*
X69040167Y-105189424D01*
X69039715Y-105188743D01*
X69018676Y-105120935D01*
X69035105Y-105056775D01*
X69122723Y-104902542D01*
X69122725Y-104902537D01*
X69125769Y-104897179D01*
X69188197Y-104709513D01*
X69212985Y-104513295D01*
X69213380Y-104485000D01*
X69194080Y-104288167D01*
X69136916Y-104098831D01*
X69044066Y-103924204D01*
X69040167Y-103919424D01*
X69039715Y-103918743D01*
X69018676Y-103850935D01*
X69035105Y-103786775D01*
X69122723Y-103632542D01*
X69122725Y-103632537D01*
X69125769Y-103627179D01*
X69188197Y-103439513D01*
X69212985Y-103243295D01*
X69213380Y-103215000D01*
X69194080Y-103018167D01*
X69136916Y-102828831D01*
X69044066Y-102654204D01*
X69040167Y-102649424D01*
X69039715Y-102648743D01*
X69018676Y-102580935D01*
X69035105Y-102516775D01*
X69122723Y-102362542D01*
X69122725Y-102362537D01*
X69125769Y-102357179D01*
X69188197Y-102169513D01*
X69212985Y-101973295D01*
X69213380Y-101945000D01*
X69194080Y-101748167D01*
X69136916Y-101558831D01*
X69044066Y-101384204D01*
X69040167Y-101379424D01*
X69039715Y-101378743D01*
X69018676Y-101310935D01*
X69035105Y-101246775D01*
X69040107Y-101237971D01*
X69055357Y-101211125D01*
X69122723Y-101092542D01*
X69122725Y-101092537D01*
X69125769Y-101087179D01*
X69188197Y-100899513D01*
X69212985Y-100703295D01*
X69213380Y-100675000D01*
X69194080Y-100478167D01*
X69136916Y-100288831D01*
X69044066Y-100114204D01*
X69040167Y-100109424D01*
X69039715Y-100108743D01*
X69018676Y-100040935D01*
X69035105Y-99976775D01*
X69122723Y-99822542D01*
X69122725Y-99822537D01*
X69125769Y-99817179D01*
X69188197Y-99629513D01*
X69212985Y-99433295D01*
X69213380Y-99405000D01*
X69194080Y-99208167D01*
X69136916Y-99018831D01*
X69044066Y-98844204D01*
X69040167Y-98839424D01*
X69039715Y-98838743D01*
X69018676Y-98770935D01*
X69035105Y-98706775D01*
X69122723Y-98552542D01*
X69122725Y-98552537D01*
X69125769Y-98547179D01*
X69188197Y-98359513D01*
X69212985Y-98163295D01*
X69213380Y-98135000D01*
X69194080Y-97938167D01*
X69136916Y-97748831D01*
X69044066Y-97574204D01*
X69040167Y-97569424D01*
X69039715Y-97568743D01*
X69018676Y-97500935D01*
X69035105Y-97436775D01*
X69122723Y-97282542D01*
X69122725Y-97282537D01*
X69125769Y-97277179D01*
X69188197Y-97089513D01*
X69212985Y-96893295D01*
X69213380Y-96865000D01*
X69194080Y-96668167D01*
X69136916Y-96478831D01*
X69044066Y-96304204D01*
X69040167Y-96299424D01*
X69039715Y-96298743D01*
X69018676Y-96230935D01*
X69035105Y-96166775D01*
X69122723Y-96012542D01*
X69122725Y-96012537D01*
X69125769Y-96007179D01*
X69188197Y-95819513D01*
X69212985Y-95623295D01*
X69213380Y-95595000D01*
X69194080Y-95398167D01*
X69136916Y-95208831D01*
X69134024Y-95203391D01*
X69132195Y-95198954D01*
X69124731Y-95128350D01*
X69142512Y-95087631D01*
X69140921Y-95086760D01*
X69145229Y-95078891D01*
X69150615Y-95071705D01*
X69201745Y-94935316D01*
X69208500Y-94873134D01*
X69208500Y-93776866D01*
X69201745Y-93714684D01*
X69150615Y-93578295D01*
X69063261Y-93461739D01*
X68946705Y-93374385D01*
X68810316Y-93323255D01*
X68748134Y-93316500D01*
X67651866Y-93316500D01*
X67589684Y-93323255D01*
X67453295Y-93374385D01*
X67336739Y-93461739D01*
X67249385Y-93578295D01*
X67198255Y-93714684D01*
X67191500Y-93776866D01*
X67191500Y-94835500D01*
X67171498Y-94903621D01*
X67117842Y-94950114D01*
X67065500Y-94961500D01*
X49621267Y-94961500D01*
X49610084Y-94960973D01*
X49602591Y-94959298D01*
X49594665Y-94959547D01*
X49594664Y-94959547D01*
X49534514Y-94961438D01*
X49530555Y-94961500D01*
X49502644Y-94961500D01*
X49498710Y-94961997D01*
X49498709Y-94961997D01*
X49498644Y-94962005D01*
X49486807Y-94962938D01*
X49454990Y-94963938D01*
X49450529Y-94964078D01*
X49442610Y-94964327D01*
X49424954Y-94969456D01*
X49423158Y-94969978D01*
X49403806Y-94973986D01*
X49396735Y-94974880D01*
X49383703Y-94976526D01*
X49376334Y-94979443D01*
X49376332Y-94979444D01*
X49342597Y-94992800D01*
X49331369Y-94996645D01*
X49288907Y-95008982D01*
X49282085Y-95013016D01*
X49282079Y-95013019D01*
X49271468Y-95019294D01*
X49253718Y-95027990D01*
X49242256Y-95032528D01*
X49242251Y-95032531D01*
X49234883Y-95035448D01*
X49228468Y-95040109D01*
X49199125Y-95061427D01*
X49189207Y-95067943D01*
X49170519Y-95078995D01*
X49151137Y-95090458D01*
X49136813Y-95104782D01*
X49121781Y-95117621D01*
X49105393Y-95129528D01*
X49077212Y-95163593D01*
X49069222Y-95172373D01*
X40921335Y-103320260D01*
X40859023Y-103354286D01*
X40788208Y-103349221D01*
X40731372Y-103306674D01*
X40707153Y-103246302D01*
X40694195Y-103139224D01*
X40691871Y-103128290D01*
X40630714Y-102929498D01*
X40626493Y-102919152D01*
X40531098Y-102734328D01*
X40525113Y-102724897D01*
X40398496Y-102559887D01*
X40390930Y-102551658D01*
X40237102Y-102411686D01*
X40228191Y-102404923D01*
X40052010Y-102294404D01*
X40042044Y-102289327D01*
X39917700Y-102239341D01*
X39861955Y-102195375D01*
X39838830Y-102128250D01*
X39855667Y-102059279D01*
X39907119Y-102010359D01*
X39915645Y-102006599D01*
X39917452Y-102006105D01*
X40115385Y-101911696D01*
X40293472Y-101783728D01*
X40446083Y-101626245D01*
X40556588Y-101461796D01*
X40565262Y-101448888D01*
X40565262Y-101448887D01*
X40568394Y-101444227D01*
X40597140Y-101378743D01*
X40625416Y-101314327D01*
X40656540Y-101243425D01*
X40707734Y-101030188D01*
X40720357Y-100811256D01*
X40694012Y-100593548D01*
X40629530Y-100383946D01*
X40580438Y-100288831D01*
X40531521Y-100194057D01*
X40531520Y-100194056D01*
X40528950Y-100189076D01*
X40395451Y-100015097D01*
X40391306Y-100011326D01*
X40391303Y-100011322D01*
X40237405Y-99871286D01*
X40233252Y-99867507D01*
X40079784Y-99771237D01*
X40032706Y-99718094D01*
X40021834Y-99647935D01*
X40050618Y-99583035D01*
X40109920Y-99544000D01*
X40146740Y-99538500D01*
X40255634Y-99538500D01*
X40317816Y-99531745D01*
X40454205Y-99480615D01*
X40570761Y-99393261D01*
X40658115Y-99276705D01*
X40709245Y-99140316D01*
X40716000Y-99078134D01*
X40716000Y-97541866D01*
X40709245Y-97479684D01*
X40658115Y-97343295D01*
X40570761Y-97226739D01*
X40454205Y-97139385D01*
X40317816Y-97088255D01*
X40255634Y-97081500D01*
X38159366Y-97081500D01*
X38097184Y-97088255D01*
X37960795Y-97139385D01*
X37844239Y-97226739D01*
X37756885Y-97343295D01*
X37705755Y-97479684D01*
X37699000Y-97541866D01*
X37699000Y-99078134D01*
X37705755Y-99140316D01*
X37756885Y-99276705D01*
X37844239Y-99393261D01*
X37960795Y-99480615D01*
X38097184Y-99531745D01*
X38159366Y-99538500D01*
X38266500Y-99538500D01*
X38334621Y-99558502D01*
X38381114Y-99612158D01*
X38391218Y-99682432D01*
X38361724Y-99747012D01*
X38320744Y-99778226D01*
X38299615Y-99788304D01*
X38121528Y-99916272D01*
X37968917Y-100073755D01*
X37846606Y-100255773D01*
X37844347Y-100260919D01*
X37844346Y-100260921D01*
X37829505Y-100294731D01*
X37758460Y-100456575D01*
X37707266Y-100669812D01*
X37702482Y-100752793D01*
X37702406Y-100754112D01*
X37694643Y-100888744D01*
X37720988Y-101106452D01*
X37785470Y-101316054D01*
X37788040Y-101321034D01*
X37788042Y-101321038D01*
X37874774Y-101489077D01*
X37886050Y-101510924D01*
X38019549Y-101684903D01*
X38023694Y-101688674D01*
X38023697Y-101688678D01*
X38089075Y-101748167D01*
X38181748Y-101832493D01*
X38367518Y-101949026D01*
X38372728Y-101951120D01*
X38372733Y-101951123D01*
X38497294Y-102001196D01*
X38553039Y-102045162D01*
X38576164Y-102112287D01*
X38559327Y-102181259D01*
X38507875Y-102230179D01*
X38494219Y-102236200D01*
X38492661Y-102236779D01*
X38304932Y-102326322D01*
X38295317Y-102332008D01*
X38126415Y-102453376D01*
X38117949Y-102460684D01*
X37973216Y-102610038D01*
X37966173Y-102618735D01*
X37850176Y-102791355D01*
X37844790Y-102801152D01*
X37761191Y-102991598D01*
X37757626Y-103002190D01*
X37729730Y-103118385D01*
X37730435Y-103132470D01*
X37739314Y-103136000D01*
X39335500Y-103136000D01*
X39403621Y-103156002D01*
X39450114Y-103209658D01*
X39461500Y-103262000D01*
X39461500Y-103518000D01*
X39441498Y-103586121D01*
X39387842Y-103632614D01*
X39335500Y-103644000D01*
X37739310Y-103644000D01*
X37725328Y-103648106D01*
X37724218Y-103655252D01*
X37784286Y-103850502D01*
X37788507Y-103860848D01*
X37883902Y-104045672D01*
X37889887Y-104055103D01*
X38016504Y-104220113D01*
X38024070Y-104228342D01*
X38177898Y-104368314D01*
X38186809Y-104375077D01*
X38362990Y-104485596D01*
X38372956Y-104490673D01*
X38497300Y-104540659D01*
X38553045Y-104584625D01*
X38576170Y-104651750D01*
X38559333Y-104720721D01*
X38507881Y-104769641D01*
X38499355Y-104773401D01*
X38497548Y-104773895D01*
X38299615Y-104868304D01*
X38121528Y-104996272D01*
X37968917Y-105153755D01*
X37846606Y-105335773D01*
X37844347Y-105340919D01*
X37844346Y-105340921D01*
X37829505Y-105374731D01*
X37758460Y-105536575D01*
X37707266Y-105749812D01*
X37694643Y-105968744D01*
X37720988Y-106186452D01*
X37785470Y-106396054D01*
X37788040Y-106401034D01*
X37788042Y-106401038D01*
X37860693Y-106541796D01*
X37886050Y-106590924D01*
X38019549Y-106764903D01*
X38023694Y-106768674D01*
X38023697Y-106768678D01*
X38089075Y-106828167D01*
X38181748Y-106912493D01*
X38367518Y-107029026D01*
X38372728Y-107031120D01*
X38372733Y-107031123D01*
X38496603Y-107080918D01*
X38552348Y-107124884D01*
X38575473Y-107192009D01*
X38558636Y-107260981D01*
X38507184Y-107309901D01*
X38499070Y-107313479D01*
X38497548Y-107313895D01*
X38299615Y-107408304D01*
X38121528Y-107536272D01*
X37968917Y-107693755D01*
X37846606Y-107875773D01*
X37844347Y-107880919D01*
X37844346Y-107880921D01*
X37829505Y-107914731D01*
X37758460Y-108076575D01*
X37707266Y-108289812D01*
X37694643Y-108508744D01*
X37720988Y-108726452D01*
X37785470Y-108936054D01*
X37788040Y-108941034D01*
X37788042Y-108941038D01*
X37874364Y-109108283D01*
X37886050Y-109130924D01*
X38019549Y-109304903D01*
X38023694Y-109308674D01*
X38023697Y-109308678D01*
X38123237Y-109399252D01*
X38181748Y-109452493D01*
X38367518Y-109569026D01*
X38372728Y-109571120D01*
X38372733Y-109571123D01*
X38496603Y-109620918D01*
X38552348Y-109664884D01*
X38575473Y-109732009D01*
X38558636Y-109800981D01*
X38507184Y-109849901D01*
X38499070Y-109853479D01*
X38497548Y-109853895D01*
X38299615Y-109948304D01*
X38121528Y-110076272D01*
X37968917Y-110233755D01*
X37846606Y-110415773D01*
X37844347Y-110420919D01*
X37844346Y-110420921D01*
X37829505Y-110454731D01*
X37758460Y-110616575D01*
X37707266Y-110829812D01*
X37694643Y-111048744D01*
X37720988Y-111266452D01*
X37785470Y-111476054D01*
X37788040Y-111481034D01*
X37788042Y-111481038D01*
X37869815Y-111639470D01*
X37886050Y-111670924D01*
X38019549Y-111844903D01*
X38023694Y-111848674D01*
X38023697Y-111848678D01*
X38089075Y-111908167D01*
X38181748Y-111992493D01*
X38367518Y-112109026D01*
X38372728Y-112111120D01*
X38372733Y-112111123D01*
X38496603Y-112160918D01*
X38552348Y-112204884D01*
X38575473Y-112272009D01*
X38558636Y-112340981D01*
X38507184Y-112389901D01*
X38499070Y-112393479D01*
X38497548Y-112393895D01*
X38299615Y-112488304D01*
X38121528Y-112616272D01*
X37968917Y-112773755D01*
X37846606Y-112955773D01*
X37844347Y-112960919D01*
X37844346Y-112960921D01*
X37812556Y-113033342D01*
X37758460Y-113156575D01*
X37707266Y-113369812D01*
X37694643Y-113588744D01*
X37720988Y-113806452D01*
X37785470Y-114016054D01*
X37788040Y-114021034D01*
X37788042Y-114021038D01*
X37863120Y-114166498D01*
X37886050Y-114210924D01*
X38019549Y-114384903D01*
X38023694Y-114388674D01*
X38023697Y-114388678D01*
X38121774Y-114477921D01*
X38181748Y-114532493D01*
X38367518Y-114649026D01*
X38372728Y-114651120D01*
X38372733Y-114651123D01*
X38497294Y-114701196D01*
X38553039Y-114745162D01*
X38576164Y-114812287D01*
X38559327Y-114881259D01*
X38507875Y-114930179D01*
X38494219Y-114936200D01*
X38492661Y-114936779D01*
X38304932Y-115026322D01*
X38295317Y-115032008D01*
X38126415Y-115153376D01*
X38117949Y-115160684D01*
X37973216Y-115310038D01*
X37966173Y-115318735D01*
X37850176Y-115491355D01*
X37844790Y-115501152D01*
X37761191Y-115691598D01*
X37757626Y-115702190D01*
X37729730Y-115818385D01*
X37730435Y-115832470D01*
X37739314Y-115836000D01*
X39335500Y-115836000D01*
X39403621Y-115856002D01*
X39450114Y-115909658D01*
X39461500Y-115962000D01*
X39461500Y-116218000D01*
X39441498Y-116286121D01*
X39387842Y-116332614D01*
X39335500Y-116344000D01*
X37739310Y-116344000D01*
X37725328Y-116348106D01*
X37724218Y-116355252D01*
X37784286Y-116550502D01*
X37788507Y-116560848D01*
X37883902Y-116745672D01*
X37889887Y-116755103D01*
X38016504Y-116920113D01*
X38024070Y-116928342D01*
X38177898Y-117068314D01*
X38186809Y-117075077D01*
X38362990Y-117185596D01*
X38372956Y-117190673D01*
X38497300Y-117240659D01*
X38553045Y-117284625D01*
X38576170Y-117351750D01*
X38559333Y-117420721D01*
X38507881Y-117469641D01*
X38499355Y-117473401D01*
X38497548Y-117473895D01*
X38299615Y-117568304D01*
X38121528Y-117696272D01*
X37968917Y-117853755D01*
X37846606Y-118035773D01*
X37844347Y-118040919D01*
X37844346Y-118040921D01*
X37840285Y-118050172D01*
X37758460Y-118236575D01*
X37707266Y-118449812D01*
X37694643Y-118668744D01*
X37720988Y-118886452D01*
X37785470Y-119096054D01*
X37788040Y-119101034D01*
X37788042Y-119101038D01*
X37853813Y-119228466D01*
X37886050Y-119290924D01*
X38019549Y-119464903D01*
X38023694Y-119468674D01*
X38023697Y-119468678D01*
X38164968Y-119597224D01*
X38181748Y-119612493D01*
X38367518Y-119729026D01*
X38372728Y-119731120D01*
X38372733Y-119731123D01*
X38496603Y-119780918D01*
X38552348Y-119824884D01*
X38575473Y-119892009D01*
X38558636Y-119960981D01*
X38507184Y-120009901D01*
X38499070Y-120013479D01*
X38497548Y-120013895D01*
X38299615Y-120108304D01*
X38121528Y-120236272D01*
X37968917Y-120393755D01*
X37846606Y-120575773D01*
X37844347Y-120580919D01*
X37844346Y-120580921D01*
X37840285Y-120590172D01*
X37758460Y-120776575D01*
X37707266Y-120989812D01*
X37702482Y-121072793D01*
X37696393Y-121178399D01*
X37694643Y-121208744D01*
X37720988Y-121426452D01*
X37785470Y-121636054D01*
X37788040Y-121641034D01*
X37788042Y-121641038D01*
X37843456Y-121748400D01*
X37886050Y-121830924D01*
X38019549Y-122004903D01*
X38023694Y-122008674D01*
X38023697Y-122008678D01*
X38143136Y-122117359D01*
X38181748Y-122152493D01*
X38367518Y-122269026D01*
X38372728Y-122271120D01*
X38372733Y-122271123D01*
X38496603Y-122320918D01*
X38552348Y-122364884D01*
X38575473Y-122432009D01*
X38558636Y-122500981D01*
X38507184Y-122549901D01*
X38499070Y-122553479D01*
X38497548Y-122553895D01*
X38299615Y-122648304D01*
X38121528Y-122776272D01*
X37968917Y-122933755D01*
X37846606Y-123115773D01*
X37844347Y-123120919D01*
X37844346Y-123120921D01*
X37840285Y-123130172D01*
X37758460Y-123316575D01*
X37707266Y-123529812D01*
X37694643Y-123748744D01*
X37720988Y-123966452D01*
X37785470Y-124176054D01*
X37788040Y-124181034D01*
X37788042Y-124181038D01*
X37863690Y-124327602D01*
X37886050Y-124370924D01*
X38019549Y-124544903D01*
X38023694Y-124548674D01*
X38023697Y-124548678D01*
X38088354Y-124607511D01*
X38181748Y-124692493D01*
X38367518Y-124809026D01*
X38372728Y-124811120D01*
X38372733Y-124811123D01*
X38496603Y-124860918D01*
X38552348Y-124904884D01*
X38575473Y-124972009D01*
X38558636Y-125040981D01*
X38507184Y-125089901D01*
X38499070Y-125093479D01*
X38497548Y-125093895D01*
X38299615Y-125188304D01*
X38121528Y-125316272D01*
X37968917Y-125473755D01*
X37846606Y-125655773D01*
X37758460Y-125856575D01*
X37707266Y-126069812D01*
X37694643Y-126288744D01*
X37720988Y-126506452D01*
X37785470Y-126716054D01*
X37788040Y-126721034D01*
X37788042Y-126721038D01*
X37883479Y-126905943D01*
X37886050Y-126910924D01*
X38019549Y-127084903D01*
X38023694Y-127088674D01*
X38023697Y-127088678D01*
X38116041Y-127172704D01*
X38181748Y-127232493D01*
X38367518Y-127349026D01*
X38372728Y-127351120D01*
X38372733Y-127351123D01*
X38497294Y-127401196D01*
X38553039Y-127445162D01*
X38576164Y-127512287D01*
X38559327Y-127581259D01*
X38507875Y-127630179D01*
X38494219Y-127636200D01*
X38492661Y-127636779D01*
X38304932Y-127726322D01*
X38295317Y-127732008D01*
X38126415Y-127853376D01*
X38117949Y-127860684D01*
X37973216Y-128010038D01*
X37966173Y-128018735D01*
X37850176Y-128191355D01*
X37844790Y-128201152D01*
X37761191Y-128391598D01*
X37757626Y-128402190D01*
X37729730Y-128518385D01*
X37730435Y-128532470D01*
X37739314Y-128536000D01*
X39335500Y-128536000D01*
X39403621Y-128556002D01*
X39450114Y-128609658D01*
X39461500Y-128662000D01*
X39461500Y-128918000D01*
X39441498Y-128986121D01*
X39387842Y-129032614D01*
X39335500Y-129044000D01*
X37739310Y-129044000D01*
X37725328Y-129048106D01*
X37724218Y-129055252D01*
X37784286Y-129250502D01*
X37788507Y-129260848D01*
X37883902Y-129445672D01*
X37889887Y-129455103D01*
X38016504Y-129620113D01*
X38024070Y-129628342D01*
X38177898Y-129768314D01*
X38186809Y-129775077D01*
X38362990Y-129885596D01*
X38372956Y-129890673D01*
X38497300Y-129940659D01*
X38553045Y-129984625D01*
X38576170Y-130051750D01*
X38559333Y-130120721D01*
X38507881Y-130169641D01*
X38499355Y-130173401D01*
X38497548Y-130173895D01*
X38299615Y-130268304D01*
X38121528Y-130396272D01*
X37968917Y-130553755D01*
X37846606Y-130735773D01*
X37758460Y-130936575D01*
X37707266Y-131149812D01*
X37694643Y-131368744D01*
X37720988Y-131586452D01*
X37785470Y-131796054D01*
X37886050Y-131990924D01*
X38019549Y-132164903D01*
X38023694Y-132168674D01*
X38023697Y-132168678D01*
X38123725Y-132259696D01*
X38181748Y-132312493D01*
X38367518Y-132429026D01*
X38372728Y-132431120D01*
X38372733Y-132431123D01*
X38496603Y-132480918D01*
X38552348Y-132524884D01*
X38575473Y-132592009D01*
X38558636Y-132660981D01*
X38507184Y-132709901D01*
X38499070Y-132713479D01*
X38497548Y-132713895D01*
X38299615Y-132808304D01*
X38121528Y-132936272D01*
X37968917Y-133093755D01*
X37846606Y-133275773D01*
X37758460Y-133476575D01*
X37707266Y-133689812D01*
X37694643Y-133908744D01*
X37720988Y-134126452D01*
X37785470Y-134336054D01*
X37886050Y-134530924D01*
X38019549Y-134704903D01*
X38023694Y-134708674D01*
X38023697Y-134708678D01*
X38034596Y-134718595D01*
X38181748Y-134852493D01*
X38367518Y-134969026D01*
X38372728Y-134971120D01*
X38372733Y-134971123D01*
X38496603Y-135020918D01*
X38552348Y-135064884D01*
X38575473Y-135132009D01*
X38558636Y-135200981D01*
X38507184Y-135249901D01*
X38499070Y-135253479D01*
X38497548Y-135253895D01*
X38299615Y-135348304D01*
X38121528Y-135476272D01*
X37968917Y-135633755D01*
X37846606Y-135815773D01*
X37758460Y-136016575D01*
X37707266Y-136229812D01*
X37706943Y-136235417D01*
X37696122Y-136423100D01*
X37694643Y-136448744D01*
X37720988Y-136666452D01*
X37785470Y-136876054D01*
X37886050Y-137070924D01*
X38019549Y-137244903D01*
X38023694Y-137248674D01*
X38023697Y-137248678D01*
X38034596Y-137258595D01*
X38181748Y-137392493D01*
X38367518Y-137509026D01*
X38372728Y-137511120D01*
X38372733Y-137511123D01*
X38496603Y-137560918D01*
X38552348Y-137604884D01*
X38575473Y-137672009D01*
X38558636Y-137740981D01*
X38507184Y-137789901D01*
X38499070Y-137793479D01*
X38497548Y-137793895D01*
X38299615Y-137888304D01*
X38121528Y-138016272D01*
X37968917Y-138173755D01*
X37846606Y-138355773D01*
X37758460Y-138556575D01*
X37707266Y-138769812D01*
X37694643Y-138988744D01*
X37720988Y-139206452D01*
X37785470Y-139416054D01*
X37886050Y-139610924D01*
X38019549Y-139784903D01*
X38023694Y-139788674D01*
X38023697Y-139788678D01*
X38034596Y-139798595D01*
X38181748Y-139932493D01*
X38367518Y-140049026D01*
X38372728Y-140051120D01*
X38372733Y-140051123D01*
X38497294Y-140101196D01*
X38553039Y-140145162D01*
X38576164Y-140212287D01*
X38559327Y-140281259D01*
X38507875Y-140330179D01*
X38494219Y-140336200D01*
X38492661Y-140336779D01*
X38304932Y-140426322D01*
X38295317Y-140432008D01*
X38126415Y-140553376D01*
X38117949Y-140560684D01*
X37973216Y-140710038D01*
X37966173Y-140718735D01*
X37850176Y-140891355D01*
X37844790Y-140901152D01*
X37761191Y-141091598D01*
X37757626Y-141102190D01*
X37729730Y-141218385D01*
X37730435Y-141232470D01*
X37739314Y-141236000D01*
X39335500Y-141236000D01*
X39403621Y-141256002D01*
X39450114Y-141309658D01*
X39461500Y-141362000D01*
X39461500Y-141618000D01*
X39441498Y-141686121D01*
X39387842Y-141732614D01*
X39335500Y-141744000D01*
X37739310Y-141744000D01*
X37725328Y-141748106D01*
X37724218Y-141755252D01*
X37784286Y-141950502D01*
X37788507Y-141960848D01*
X37883902Y-142145672D01*
X37889887Y-142155103D01*
X38016504Y-142320113D01*
X38024070Y-142328342D01*
X38177898Y-142468314D01*
X38186809Y-142475077D01*
X38362990Y-142585596D01*
X38372956Y-142590673D01*
X38497300Y-142640659D01*
X38553045Y-142684625D01*
X38576170Y-142751750D01*
X38559333Y-142820721D01*
X38507881Y-142869641D01*
X38499355Y-142873401D01*
X38497548Y-142873895D01*
X38299615Y-142968304D01*
X38121528Y-143096272D01*
X37968917Y-143253755D01*
X37846606Y-143435773D01*
X37758460Y-143636575D01*
X37707266Y-143849812D01*
X37694643Y-144068744D01*
X37720988Y-144286452D01*
X37785470Y-144496054D01*
X37886050Y-144690924D01*
X38019549Y-144864903D01*
X38023694Y-144868674D01*
X38023697Y-144868678D01*
X38123725Y-144959696D01*
X38181748Y-145012493D01*
X38367518Y-145129026D01*
X38372728Y-145131120D01*
X38372733Y-145131123D01*
X38496603Y-145180918D01*
X38552348Y-145224884D01*
X38575473Y-145292009D01*
X38558636Y-145360981D01*
X38507184Y-145409901D01*
X38499070Y-145413479D01*
X38497548Y-145413895D01*
X38299615Y-145508304D01*
X38121528Y-145636272D01*
X37968917Y-145793755D01*
X37846606Y-145975773D01*
X37758460Y-146176575D01*
X37707266Y-146389812D01*
X37694643Y-146608744D01*
X30988000Y-146608744D01*
X30988000Y-99248000D01*
X31057100Y-54056695D01*
X34907251Y-54056695D01*
X34907548Y-54061848D01*
X34907548Y-54061851D01*
X34913011Y-54156590D01*
X34920110Y-54279715D01*
X34921247Y-54284761D01*
X34921248Y-54284767D01*
X34941119Y-54372939D01*
X34969222Y-54497639D01*
X35053266Y-54704616D01*
X35104019Y-54787438D01*
X35167291Y-54890688D01*
X35169987Y-54895088D01*
X35316250Y-55063938D01*
X35488126Y-55206632D01*
X35681000Y-55319338D01*
X35889692Y-55399030D01*
X35894760Y-55400061D01*
X35894763Y-55400062D01*
X35974232Y-55416230D01*
X36108597Y-55443567D01*
X36113772Y-55443757D01*
X36113774Y-55443757D01*
X36326673Y-55451564D01*
X36326677Y-55451564D01*
X36331837Y-55451753D01*
X36336957Y-55451097D01*
X36336959Y-55451097D01*
X36548288Y-55424025D01*
X36548289Y-55424025D01*
X36553416Y-55423368D01*
X36577208Y-55416230D01*
X36762429Y-55360661D01*
X36762434Y-55360659D01*
X36767384Y-55359174D01*
X36967994Y-55260896D01*
X37149860Y-55131173D01*
X37308096Y-54973489D01*
X37367594Y-54890689D01*
X37438453Y-54792077D01*
X37439776Y-54793028D01*
X37486645Y-54749857D01*
X37556580Y-54737625D01*
X37622026Y-54765144D01*
X37649875Y-54796994D01*
X37709987Y-54895088D01*
X37856250Y-55063938D01*
X38028126Y-55206632D01*
X38221000Y-55319338D01*
X38429692Y-55399030D01*
X38434760Y-55400061D01*
X38434763Y-55400062D01*
X38514232Y-55416230D01*
X38648597Y-55443567D01*
X38653772Y-55443757D01*
X38653774Y-55443757D01*
X38866673Y-55451564D01*
X38866677Y-55451564D01*
X38871837Y-55451753D01*
X38876957Y-55451097D01*
X38876959Y-55451097D01*
X39088288Y-55424025D01*
X39088289Y-55424025D01*
X39093416Y-55423368D01*
X39117208Y-55416230D01*
X39302429Y-55360661D01*
X39302434Y-55360659D01*
X39307384Y-55359174D01*
X39507994Y-55260896D01*
X39689860Y-55131173D01*
X39757331Y-55063938D01*
X39798479Y-55022933D01*
X39860851Y-54989017D01*
X39931658Y-54994205D01*
X39988419Y-55036851D01*
X40005401Y-55067954D01*
X40046676Y-55178054D01*
X40055214Y-55193649D01*
X40131715Y-55295724D01*
X40144276Y-55308285D01*
X40246351Y-55384786D01*
X40261946Y-55393324D01*
X40382394Y-55438478D01*
X40397649Y-55442105D01*
X40448514Y-55447631D01*
X40455328Y-55448000D01*
X41077885Y-55448000D01*
X41093124Y-55443525D01*
X41094329Y-55442135D01*
X41096000Y-55434452D01*
X41096000Y-52750116D01*
X41091525Y-52734877D01*
X41090135Y-52733672D01*
X41082452Y-52732001D01*
X40455331Y-52732001D01*
X40448510Y-52732371D01*
X40397648Y-52737895D01*
X40382396Y-52741521D01*
X40261946Y-52786676D01*
X40246351Y-52795214D01*
X40144276Y-52871715D01*
X40131715Y-52884276D01*
X40055214Y-52986351D01*
X40046676Y-53001946D01*
X40005297Y-53112322D01*
X39962655Y-53169087D01*
X39896093Y-53193786D01*
X39826744Y-53178578D01*
X39794121Y-53152891D01*
X39743151Y-53096876D01*
X39743145Y-53096870D01*
X39739670Y-53093051D01*
X39735619Y-53089852D01*
X39735615Y-53089848D01*
X39568414Y-52957800D01*
X39568410Y-52957798D01*
X39564359Y-52954598D01*
X39368789Y-52846638D01*
X39363920Y-52844914D01*
X39363916Y-52844912D01*
X39163087Y-52773795D01*
X39163083Y-52773794D01*
X39158212Y-52772069D01*
X39153119Y-52771162D01*
X39153116Y-52771161D01*
X38943373Y-52733800D01*
X38943367Y-52733799D01*
X38938284Y-52732894D01*
X38864452Y-52731992D01*
X38720081Y-52730228D01*
X38720079Y-52730228D01*
X38714911Y-52730165D01*
X38494091Y-52763955D01*
X38281756Y-52833357D01*
X38083607Y-52936507D01*
X38079474Y-52939610D01*
X38079471Y-52939612D01*
X37996450Y-53001946D01*
X37904965Y-53070635D01*
X37750629Y-53232138D01*
X37643201Y-53389621D01*
X37588293Y-53434621D01*
X37517768Y-53442792D01*
X37454021Y-53411538D01*
X37433324Y-53387054D01*
X37352822Y-53262617D01*
X37352820Y-53262614D01*
X37350014Y-53258277D01*
X37199670Y-53093051D01*
X37195619Y-53089852D01*
X37195615Y-53089848D01*
X37028414Y-52957800D01*
X37028410Y-52957798D01*
X37024359Y-52954598D01*
X36828789Y-52846638D01*
X36823920Y-52844914D01*
X36823916Y-52844912D01*
X36623087Y-52773795D01*
X36623083Y-52773794D01*
X36618212Y-52772069D01*
X36613119Y-52771162D01*
X36613116Y-52771161D01*
X36403373Y-52733800D01*
X36403367Y-52733799D01*
X36398284Y-52732894D01*
X36324452Y-52731992D01*
X36180081Y-52730228D01*
X36180079Y-52730228D01*
X36174911Y-52730165D01*
X35954091Y-52763955D01*
X35741756Y-52833357D01*
X35543607Y-52936507D01*
X35539474Y-52939610D01*
X35539471Y-52939612D01*
X35456450Y-53001946D01*
X35364965Y-53070635D01*
X35210629Y-53232138D01*
X35084743Y-53416680D01*
X34990688Y-53619305D01*
X34930989Y-53834570D01*
X34907251Y-54056695D01*
X31057100Y-54056695D01*
X31066529Y-47890469D01*
X34987095Y-47890469D01*
X34987392Y-47895622D01*
X34987392Y-47895625D01*
X34997906Y-48077978D01*
X35000427Y-48121697D01*
X35001564Y-48126743D01*
X35001565Y-48126749D01*
X35026379Y-48236857D01*
X35051346Y-48347642D01*
X35053288Y-48352424D01*
X35053289Y-48352428D01*
X35133105Y-48548990D01*
X35138484Y-48562237D01*
X35259501Y-48759719D01*
X35411147Y-48934784D01*
X35589349Y-49082730D01*
X35789322Y-49199584D01*
X36005694Y-49282209D01*
X36010760Y-49283240D01*
X36010761Y-49283240D01*
X36063846Y-49294040D01*
X36232656Y-49328385D01*
X36363324Y-49333176D01*
X36458949Y-49336683D01*
X36458953Y-49336683D01*
X36464113Y-49336872D01*
X36469233Y-49336216D01*
X36469235Y-49336216D01*
X36542270Y-49326860D01*
X36693847Y-49307442D01*
X36698795Y-49305957D01*
X36698802Y-49305956D01*
X36910747Y-49242369D01*
X36915690Y-49240886D01*
X36996236Y-49201427D01*
X37119049Y-49141262D01*
X37119052Y-49141260D01*
X37123684Y-49138991D01*
X37312243Y-49004494D01*
X37476303Y-48841005D01*
X37611458Y-48652917D01*
X37628077Y-48619292D01*
X37711784Y-48449922D01*
X37711785Y-48449920D01*
X37714078Y-48445280D01*
X37781408Y-48223671D01*
X37811640Y-47994041D01*
X37812036Y-47977833D01*
X37813245Y-47928365D01*
X37813245Y-47928361D01*
X37813327Y-47925000D01*
X37803592Y-47806590D01*
X37794773Y-47699318D01*
X37794772Y-47699312D01*
X37794349Y-47694167D01*
X37776976Y-47625000D01*
X38166693Y-47625000D01*
X38185885Y-47844371D01*
X38242880Y-48057076D01*
X38270603Y-48116529D01*
X38333618Y-48251666D01*
X38333621Y-48251671D01*
X38335944Y-48256653D01*
X38339100Y-48261160D01*
X38339101Y-48261162D01*
X38401187Y-48349829D01*
X38462251Y-48437038D01*
X38617962Y-48592749D01*
X38798346Y-48719056D01*
X38997924Y-48812120D01*
X39210629Y-48869115D01*
X39430000Y-48888307D01*
X39649371Y-48869115D01*
X39862076Y-48812120D01*
X40061654Y-48719056D01*
X40242038Y-48592749D01*
X40397749Y-48437038D01*
X40458814Y-48349829D01*
X40520899Y-48261162D01*
X40520900Y-48261160D01*
X40524056Y-48256653D01*
X40526379Y-48251671D01*
X40526382Y-48251666D01*
X40589397Y-48116529D01*
X40617120Y-48057076D01*
X40674115Y-47844371D01*
X40686160Y-47706695D01*
X82937251Y-47706695D01*
X82937548Y-47711848D01*
X82937548Y-47711851D01*
X82943011Y-47806590D01*
X82950110Y-47929715D01*
X82951247Y-47934761D01*
X82951248Y-47934767D01*
X82965354Y-47997359D01*
X82999222Y-48147639D01*
X83083266Y-48354616D01*
X83085965Y-48359020D01*
X83141024Y-48448868D01*
X83199987Y-48545088D01*
X83346250Y-48713938D01*
X83518126Y-48856632D01*
X83711000Y-48969338D01*
X83919692Y-49049030D01*
X83924760Y-49050061D01*
X83924763Y-49050062D01*
X84032017Y-49071883D01*
X84138597Y-49093567D01*
X84143772Y-49093757D01*
X84143774Y-49093757D01*
X84356673Y-49101564D01*
X84356677Y-49101564D01*
X84361837Y-49101753D01*
X84366957Y-49101097D01*
X84366959Y-49101097D01*
X84578288Y-49074025D01*
X84578289Y-49074025D01*
X84583416Y-49073368D01*
X84588366Y-49071883D01*
X84792429Y-49010661D01*
X84792434Y-49010659D01*
X84797384Y-49009174D01*
X84997994Y-48910896D01*
X85179860Y-48781173D01*
X85197473Y-48763622D01*
X85334435Y-48627137D01*
X85338096Y-48623489D01*
X85397594Y-48540689D01*
X85462760Y-48450000D01*
X90216835Y-48450000D01*
X90235465Y-48686711D01*
X90236619Y-48691518D01*
X90236620Y-48691524D01*
X90257268Y-48777529D01*
X90290895Y-48917594D01*
X90292788Y-48922165D01*
X90292789Y-48922167D01*
X90379772Y-49132163D01*
X90381760Y-49136963D01*
X90384346Y-49141183D01*
X90503241Y-49335202D01*
X90503245Y-49335208D01*
X90505824Y-49339416D01*
X90660031Y-49519969D01*
X90840584Y-49674176D01*
X90844792Y-49676755D01*
X90844798Y-49676759D01*
X91038084Y-49795205D01*
X91043037Y-49798240D01*
X91047607Y-49800133D01*
X91047611Y-49800135D01*
X91257833Y-49887211D01*
X91262406Y-49889105D01*
X91342609Y-49908360D01*
X91488476Y-49943380D01*
X91488482Y-49943381D01*
X91493289Y-49944535D01*
X91730000Y-49963165D01*
X91966711Y-49944535D01*
X91971518Y-49943381D01*
X91971524Y-49943380D01*
X92117391Y-49908360D01*
X92197594Y-49889105D01*
X92202167Y-49887211D01*
X92412389Y-49800135D01*
X92412393Y-49800133D01*
X92416963Y-49798240D01*
X92421916Y-49795205D01*
X92605556Y-49682670D01*
X95362160Y-49682670D01*
X95367887Y-49690320D01*
X95539042Y-49795205D01*
X95547837Y-49799687D01*
X95757988Y-49886734D01*
X95767373Y-49889783D01*
X95988554Y-49942885D01*
X95998301Y-49944428D01*
X96225070Y-49962275D01*
X96234930Y-49962275D01*
X96461699Y-49944428D01*
X96471446Y-49942885D01*
X96692627Y-49889783D01*
X96702012Y-49886734D01*
X96912163Y-49799687D01*
X96920958Y-49795205D01*
X97088445Y-49692568D01*
X97097907Y-49682110D01*
X97094124Y-49673334D01*
X96242812Y-48822022D01*
X96228868Y-48814408D01*
X96227035Y-48814539D01*
X96220420Y-48818790D01*
X95368920Y-49670290D01*
X95362160Y-49682670D01*
X92605556Y-49682670D01*
X92615202Y-49676759D01*
X92615208Y-49676755D01*
X92619416Y-49674176D01*
X92799969Y-49519969D01*
X92954176Y-49339416D01*
X92956755Y-49335208D01*
X92956759Y-49335202D01*
X93075654Y-49141183D01*
X93078240Y-49136963D01*
X93080229Y-49132163D01*
X93167211Y-48922167D01*
X93167212Y-48922165D01*
X93169105Y-48917594D01*
X93202732Y-48777529D01*
X93223380Y-48691524D01*
X93223381Y-48691518D01*
X93224535Y-48686711D01*
X93242777Y-48454930D01*
X94717725Y-48454930D01*
X94735572Y-48681699D01*
X94737115Y-48691446D01*
X94790217Y-48912627D01*
X94793266Y-48922012D01*
X94880313Y-49132163D01*
X94884795Y-49140958D01*
X94987432Y-49308445D01*
X94997890Y-49317907D01*
X95006666Y-49314124D01*
X95857978Y-48462812D01*
X95864356Y-48451132D01*
X96594408Y-48451132D01*
X96594539Y-48452965D01*
X96598790Y-48459580D01*
X97450290Y-49311080D01*
X97462670Y-49317840D01*
X97470320Y-49312113D01*
X97575205Y-49140958D01*
X97579687Y-49132163D01*
X97666734Y-48922012D01*
X97669783Y-48912627D01*
X97722885Y-48691446D01*
X97724428Y-48681699D01*
X97742275Y-48454930D01*
X97742275Y-48445070D01*
X97724428Y-48218301D01*
X97722885Y-48208554D01*
X97669783Y-47987373D01*
X97666734Y-47977988D01*
X97579687Y-47767837D01*
X97575205Y-47759042D01*
X97472568Y-47591555D01*
X97462110Y-47582093D01*
X97453334Y-47585876D01*
X96602022Y-48437188D01*
X96594408Y-48451132D01*
X95864356Y-48451132D01*
X95865592Y-48448868D01*
X95865461Y-48447035D01*
X95861210Y-48440420D01*
X95009710Y-47588920D01*
X94997330Y-47582160D01*
X94989680Y-47587887D01*
X94884795Y-47759042D01*
X94880313Y-47767837D01*
X94793266Y-47977988D01*
X94790217Y-47987373D01*
X94737115Y-48208554D01*
X94735572Y-48218301D01*
X94717725Y-48445070D01*
X94717725Y-48454930D01*
X93242777Y-48454930D01*
X93243165Y-48450000D01*
X93224535Y-48213289D01*
X93169105Y-47982406D01*
X93167211Y-47977833D01*
X93080135Y-47767611D01*
X93080133Y-47767607D01*
X93078240Y-47763037D01*
X93064123Y-47740000D01*
X92956759Y-47564798D01*
X92956755Y-47564792D01*
X92954176Y-47560584D01*
X92799969Y-47380031D01*
X92619416Y-47225824D01*
X92615208Y-47223245D01*
X92615202Y-47223241D01*
X92606470Y-47217890D01*
X95362093Y-47217890D01*
X95365876Y-47226666D01*
X96217188Y-48077978D01*
X96231132Y-48085592D01*
X96232965Y-48085461D01*
X96239580Y-48081210D01*
X97091080Y-47229710D01*
X97097840Y-47217330D01*
X97092113Y-47209680D01*
X96920958Y-47104795D01*
X96912163Y-47100313D01*
X96702012Y-47013266D01*
X96692627Y-47010217D01*
X96471446Y-46957115D01*
X96461699Y-46955572D01*
X96234930Y-46937725D01*
X96225070Y-46937725D01*
X95998301Y-46955572D01*
X95988554Y-46957115D01*
X95767373Y-47010217D01*
X95757988Y-47013266D01*
X95547837Y-47100313D01*
X95539042Y-47104795D01*
X95371555Y-47207432D01*
X95362093Y-47217890D01*
X92606470Y-47217890D01*
X92421183Y-47104346D01*
X92416963Y-47101760D01*
X92412393Y-47099867D01*
X92412389Y-47099865D01*
X92202167Y-47012789D01*
X92202165Y-47012788D01*
X92197594Y-47010895D01*
X92105720Y-46988838D01*
X91971524Y-46956620D01*
X91971518Y-46956619D01*
X91966711Y-46955465D01*
X91730000Y-46936835D01*
X91493289Y-46955465D01*
X91488482Y-46956619D01*
X91488476Y-46956620D01*
X91354280Y-46988838D01*
X91262406Y-47010895D01*
X91257835Y-47012788D01*
X91257833Y-47012789D01*
X91047611Y-47099865D01*
X91047607Y-47099867D01*
X91043037Y-47101760D01*
X91038817Y-47104346D01*
X90844798Y-47223241D01*
X90844792Y-47223245D01*
X90840584Y-47225824D01*
X90660031Y-47380031D01*
X90505824Y-47560584D01*
X90503245Y-47564792D01*
X90503241Y-47564798D01*
X90395877Y-47740000D01*
X90381760Y-47763037D01*
X90379867Y-47767607D01*
X90379865Y-47767611D01*
X90292789Y-47977833D01*
X90290895Y-47982406D01*
X90235465Y-48213289D01*
X90216835Y-48450000D01*
X85462760Y-48450000D01*
X85465435Y-48446277D01*
X85468453Y-48442077D01*
X85470870Y-48437188D01*
X85565136Y-48246453D01*
X85565137Y-48246451D01*
X85567430Y-48241811D01*
X85614933Y-48085461D01*
X85630865Y-48033023D01*
X85630865Y-48033021D01*
X85632370Y-48028069D01*
X85661529Y-47806590D01*
X85662476Y-47767837D01*
X85663074Y-47743365D01*
X85663074Y-47743361D01*
X85663156Y-47740000D01*
X85644852Y-47517361D01*
X85590431Y-47300702D01*
X85501354Y-47095840D01*
X85459942Y-47031827D01*
X85382822Y-46912617D01*
X85382820Y-46912614D01*
X85380014Y-46908277D01*
X85376540Y-46904459D01*
X85376533Y-46904450D01*
X85232435Y-46746088D01*
X85201383Y-46682242D01*
X85209779Y-46611744D01*
X85254956Y-46556976D01*
X85281400Y-46543307D01*
X85388052Y-46503325D01*
X85403649Y-46494786D01*
X85505724Y-46418285D01*
X85518285Y-46405724D01*
X85594786Y-46303649D01*
X85603324Y-46288054D01*
X85648478Y-46167606D01*
X85652105Y-46152351D01*
X85657631Y-46101486D01*
X85658000Y-46094672D01*
X85658000Y-45472115D01*
X85653525Y-45456876D01*
X85652135Y-45455671D01*
X85644452Y-45454000D01*
X82960116Y-45454000D01*
X82944877Y-45458475D01*
X82943672Y-45459865D01*
X82942001Y-45467548D01*
X82942001Y-46094669D01*
X82942371Y-46101490D01*
X82947895Y-46152352D01*
X82951521Y-46167604D01*
X82996676Y-46288054D01*
X83005214Y-46303649D01*
X83081715Y-46405724D01*
X83094276Y-46418285D01*
X83196351Y-46494786D01*
X83211946Y-46503324D01*
X83320827Y-46544142D01*
X83377591Y-46586784D01*
X83402291Y-46653345D01*
X83387083Y-46722694D01*
X83367691Y-46749175D01*
X83244200Y-46878401D01*
X83240629Y-46882138D01*
X83237715Y-46886410D01*
X83237714Y-46886411D01*
X83202710Y-46937725D01*
X83114743Y-47066680D01*
X83097259Y-47104346D01*
X83028353Y-47252793D01*
X83020688Y-47269305D01*
X82960989Y-47484570D01*
X82937251Y-47706695D01*
X40686160Y-47706695D01*
X40693307Y-47625000D01*
X40674115Y-47405629D01*
X40617120Y-47192924D01*
X40558252Y-47066680D01*
X40526382Y-46998334D01*
X40526379Y-46998329D01*
X40524056Y-46993347D01*
X40498686Y-46957115D01*
X40400908Y-46817473D01*
X40400906Y-46817470D01*
X40397749Y-46812962D01*
X40242038Y-46657251D01*
X40195260Y-46624496D01*
X40101096Y-46558562D01*
X40061654Y-46530944D01*
X39862076Y-46437880D01*
X39649371Y-46380885D01*
X39430000Y-46361693D01*
X39210629Y-46380885D01*
X38997924Y-46437880D01*
X38904562Y-46481415D01*
X38803334Y-46528618D01*
X38803329Y-46528621D01*
X38798347Y-46530944D01*
X38793840Y-46534100D01*
X38793838Y-46534101D01*
X38622473Y-46654092D01*
X38622470Y-46654094D01*
X38617962Y-46657251D01*
X38462251Y-46812962D01*
X38459094Y-46817470D01*
X38459092Y-46817473D01*
X38361314Y-46957115D01*
X38335944Y-46993347D01*
X38333621Y-46998329D01*
X38333618Y-46998334D01*
X38301748Y-47066680D01*
X38242880Y-47192924D01*
X38185885Y-47405629D01*
X38166693Y-47625000D01*
X37776976Y-47625000D01*
X37748678Y-47512342D01*
X37739184Y-47474544D01*
X37739183Y-47474540D01*
X37737925Y-47469533D01*
X37735866Y-47464797D01*
X37647630Y-47261868D01*
X37647628Y-47261865D01*
X37645570Y-47257131D01*
X37519764Y-47062665D01*
X37474815Y-47013266D01*
X37423721Y-46957115D01*
X37363887Y-46891358D01*
X37359836Y-46888159D01*
X37359832Y-46888155D01*
X37186177Y-46751011D01*
X37186172Y-46751008D01*
X37182123Y-46747810D01*
X37177607Y-46745317D01*
X37177604Y-46745315D01*
X36983879Y-46638373D01*
X36983875Y-46638371D01*
X36979355Y-46635876D01*
X36974486Y-46634152D01*
X36974482Y-46634150D01*
X36765903Y-46560288D01*
X36765899Y-46560287D01*
X36761028Y-46558562D01*
X36755935Y-46557655D01*
X36755932Y-46557654D01*
X36538095Y-46518851D01*
X36538089Y-46518850D01*
X36533006Y-46517945D01*
X36460096Y-46517054D01*
X36306581Y-46515179D01*
X36306579Y-46515179D01*
X36301411Y-46515116D01*
X36072464Y-46550150D01*
X35852314Y-46622106D01*
X35847726Y-46624494D01*
X35847722Y-46624496D01*
X35651461Y-46726663D01*
X35646872Y-46729052D01*
X35642739Y-46732155D01*
X35642736Y-46732157D01*
X35535114Y-46812962D01*
X35461655Y-46868117D01*
X35301639Y-47035564D01*
X35298725Y-47039836D01*
X35298724Y-47039837D01*
X35283332Y-47062401D01*
X35171119Y-47226899D01*
X35073602Y-47436981D01*
X35011707Y-47660169D01*
X34987095Y-47890469D01*
X31066529Y-47890469D01*
X31074862Y-42440469D01*
X34987095Y-42440469D01*
X34987392Y-42445622D01*
X34987392Y-42445625D01*
X34997536Y-42621562D01*
X35000427Y-42671697D01*
X35001564Y-42676743D01*
X35001565Y-42676749D01*
X35024941Y-42780475D01*
X35051346Y-42897642D01*
X35053288Y-42902424D01*
X35053289Y-42902428D01*
X35122318Y-43072425D01*
X35138484Y-43112237D01*
X35259501Y-43309719D01*
X35411147Y-43484784D01*
X35589349Y-43632730D01*
X35789322Y-43749584D01*
X36005694Y-43832209D01*
X36010760Y-43833240D01*
X36010761Y-43833240D01*
X36063846Y-43844040D01*
X36232656Y-43878385D01*
X36363324Y-43883176D01*
X36458949Y-43886683D01*
X36458953Y-43886683D01*
X36464113Y-43886872D01*
X36469233Y-43886216D01*
X36469235Y-43886216D01*
X36542270Y-43876860D01*
X36693847Y-43857442D01*
X36698795Y-43855957D01*
X36698802Y-43855956D01*
X36910747Y-43792369D01*
X36915690Y-43790886D01*
X36944786Y-43776632D01*
X37119049Y-43691262D01*
X37119052Y-43691260D01*
X37123684Y-43688991D01*
X37312243Y-43554494D01*
X37476303Y-43391005D01*
X37611458Y-43202917D01*
X37621742Y-43182110D01*
X37711784Y-42999922D01*
X37711785Y-42999920D01*
X37714078Y-42995280D01*
X37781004Y-42775000D01*
X38166693Y-42775000D01*
X38185885Y-42994371D01*
X38242880Y-43207076D01*
X38245205Y-43212061D01*
X38333618Y-43401666D01*
X38333621Y-43401671D01*
X38335944Y-43406653D01*
X38339100Y-43411160D01*
X38339101Y-43411162D01*
X38441563Y-43557492D01*
X38462251Y-43587038D01*
X38617962Y-43742749D01*
X38622471Y-43745906D01*
X38622473Y-43745908D01*
X38683466Y-43788616D01*
X38798346Y-43869056D01*
X38997924Y-43962120D01*
X39210629Y-44019115D01*
X39430000Y-44038307D01*
X39649371Y-44019115D01*
X39862076Y-43962120D01*
X40061654Y-43869056D01*
X40176534Y-43788616D01*
X40237527Y-43745908D01*
X40237529Y-43745906D01*
X40242038Y-43742749D01*
X40397749Y-43587038D01*
X40418438Y-43557492D01*
X40520899Y-43411162D01*
X40520900Y-43411160D01*
X40524056Y-43406653D01*
X40526379Y-43401671D01*
X40526382Y-43401666D01*
X40614795Y-43212061D01*
X40617120Y-43207076D01*
X40674115Y-42994371D01*
X40693307Y-42775000D01*
X40680332Y-42626695D01*
X82937251Y-42626695D01*
X82937548Y-42631848D01*
X82937548Y-42631851D01*
X82946118Y-42780475D01*
X82950110Y-42849715D01*
X82951247Y-42854761D01*
X82951248Y-42854767D01*
X82971119Y-42942939D01*
X82999222Y-43067639D01*
X83083266Y-43274616D01*
X83098904Y-43300135D01*
X83187327Y-43444428D01*
X83199987Y-43465088D01*
X83346250Y-43633938D01*
X83350225Y-43637238D01*
X83350231Y-43637244D01*
X83355425Y-43641556D01*
X83395059Y-43700460D01*
X83396555Y-43771441D01*
X83359439Y-43831962D01*
X83319168Y-43856480D01*
X83211946Y-43896676D01*
X83196351Y-43905214D01*
X83094276Y-43981715D01*
X83081715Y-43994276D01*
X83005214Y-44096351D01*
X82996676Y-44111946D01*
X82951522Y-44232394D01*
X82947895Y-44247649D01*
X82942369Y-44298514D01*
X82942000Y-44305328D01*
X82942000Y-44927885D01*
X82946475Y-44943124D01*
X82947865Y-44944329D01*
X82955548Y-44946000D01*
X85639884Y-44946000D01*
X85655123Y-44941525D01*
X85656328Y-44940135D01*
X85657999Y-44932452D01*
X85657999Y-44305331D01*
X85657629Y-44298510D01*
X85652105Y-44247648D01*
X85648479Y-44232396D01*
X85603324Y-44111946D01*
X85594786Y-44096351D01*
X85518285Y-43994276D01*
X85505724Y-43981715D01*
X85403649Y-43905214D01*
X85388054Y-43896676D01*
X85277813Y-43855348D01*
X85221049Y-43812706D01*
X85196349Y-43746145D01*
X85211557Y-43676796D01*
X85233104Y-43648115D01*
X85334430Y-43547144D01*
X85334440Y-43547132D01*
X85338096Y-43543489D01*
X85397594Y-43460689D01*
X85465435Y-43366277D01*
X85468453Y-43362077D01*
X85499067Y-43300135D01*
X85565136Y-43166453D01*
X85565137Y-43166451D01*
X85567430Y-43161811D01*
X85632370Y-42948069D01*
X85661529Y-42726590D01*
X85662870Y-42671697D01*
X85663074Y-42663365D01*
X85663074Y-42663361D01*
X85663156Y-42660000D01*
X85644852Y-42437361D01*
X85590431Y-42220702D01*
X85501354Y-42015840D01*
X85460678Y-41952965D01*
X85382822Y-41832617D01*
X85382820Y-41832614D01*
X85380014Y-41828277D01*
X85229670Y-41663051D01*
X85225619Y-41659852D01*
X85225615Y-41659848D01*
X85058414Y-41527800D01*
X85058410Y-41527798D01*
X85054359Y-41524598D01*
X84858789Y-41416638D01*
X84853920Y-41414914D01*
X84853916Y-41414912D01*
X84653087Y-41343795D01*
X84653083Y-41343794D01*
X84648212Y-41342069D01*
X84643119Y-41341162D01*
X84643116Y-41341161D01*
X84433373Y-41303800D01*
X84433367Y-41303799D01*
X84428284Y-41302894D01*
X84354452Y-41301992D01*
X84210081Y-41300228D01*
X84210079Y-41300228D01*
X84204911Y-41300165D01*
X83984091Y-41333955D01*
X83771756Y-41403357D01*
X83743402Y-41418117D01*
X83619905Y-41482406D01*
X83573607Y-41506507D01*
X83569474Y-41509610D01*
X83569471Y-41509612D01*
X83399100Y-41637530D01*
X83394965Y-41640635D01*
X83240629Y-41802138D01*
X83237715Y-41806410D01*
X83237714Y-41806411D01*
X83225404Y-41824457D01*
X83114743Y-41986680D01*
X83099493Y-42019533D01*
X83024219Y-42181699D01*
X83020688Y-42189305D01*
X82960989Y-42404570D01*
X82937251Y-42626695D01*
X40680332Y-42626695D01*
X40674115Y-42555629D01*
X40617120Y-42342924D01*
X40552897Y-42205197D01*
X40526382Y-42148334D01*
X40526379Y-42148329D01*
X40524056Y-42143347D01*
X40520899Y-42138838D01*
X40400908Y-41967473D01*
X40400906Y-41967470D01*
X40397749Y-41962962D01*
X40242038Y-41807251D01*
X40235672Y-41802793D01*
X40115005Y-41718301D01*
X40061654Y-41680944D01*
X39862076Y-41587880D01*
X39649371Y-41530885D01*
X39430000Y-41511693D01*
X39210629Y-41530885D01*
X38997924Y-41587880D01*
X38904562Y-41631415D01*
X38803334Y-41678618D01*
X38803329Y-41678621D01*
X38798347Y-41680944D01*
X38793840Y-41684100D01*
X38793838Y-41684101D01*
X38622473Y-41804092D01*
X38622470Y-41804094D01*
X38617962Y-41807251D01*
X38462251Y-41962962D01*
X38459094Y-41967470D01*
X38459092Y-41967473D01*
X38339101Y-42138838D01*
X38335944Y-42143347D01*
X38333621Y-42148329D01*
X38333618Y-42148334D01*
X38307103Y-42205197D01*
X38242880Y-42342924D01*
X38185885Y-42555629D01*
X38166693Y-42775000D01*
X37781004Y-42775000D01*
X37781408Y-42773671D01*
X37811640Y-42544041D01*
X37813327Y-42475000D01*
X37802905Y-42348235D01*
X37794773Y-42249318D01*
X37794772Y-42249312D01*
X37794349Y-42244167D01*
X37737925Y-42019533D01*
X37734429Y-42011492D01*
X37647630Y-41811868D01*
X37647628Y-41811865D01*
X37645570Y-41807131D01*
X37519764Y-41612665D01*
X37497212Y-41587880D01*
X37437357Y-41522101D01*
X37363887Y-41441358D01*
X37359836Y-41438159D01*
X37359832Y-41438155D01*
X37186177Y-41301011D01*
X37186172Y-41301008D01*
X37182123Y-41297810D01*
X37177607Y-41295317D01*
X37177604Y-41295315D01*
X36983879Y-41188373D01*
X36983875Y-41188371D01*
X36979355Y-41185876D01*
X36974486Y-41184152D01*
X36974482Y-41184150D01*
X36765903Y-41110288D01*
X36765899Y-41110287D01*
X36761028Y-41108562D01*
X36755935Y-41107655D01*
X36755932Y-41107654D01*
X36538095Y-41068851D01*
X36538089Y-41068850D01*
X36533006Y-41067945D01*
X36460096Y-41067054D01*
X36306581Y-41065179D01*
X36306579Y-41065179D01*
X36301411Y-41065116D01*
X36072464Y-41100150D01*
X35852314Y-41172106D01*
X35847726Y-41174494D01*
X35847722Y-41174496D01*
X35668850Y-41267611D01*
X35646872Y-41279052D01*
X35642739Y-41282155D01*
X35642736Y-41282157D01*
X35465790Y-41415012D01*
X35461655Y-41418117D01*
X35446618Y-41433852D01*
X35356840Y-41527800D01*
X35301639Y-41585564D01*
X35298725Y-41589836D01*
X35298724Y-41589837D01*
X35283152Y-41612665D01*
X35171119Y-41776899D01*
X35073602Y-41986981D01*
X35011707Y-42210169D01*
X34987095Y-42440469D01*
X31074862Y-42440469D01*
X31084287Y-36276695D01*
X34907251Y-36276695D01*
X34907548Y-36281848D01*
X34907548Y-36281851D01*
X34913011Y-36376590D01*
X34920110Y-36499715D01*
X34921247Y-36504761D01*
X34921248Y-36504767D01*
X34932031Y-36552614D01*
X34969222Y-36717639D01*
X35028163Y-36862795D01*
X35050631Y-36918126D01*
X35053266Y-36924616D01*
X35090366Y-36985158D01*
X35167291Y-37110688D01*
X35169987Y-37115088D01*
X35316250Y-37283938D01*
X35488126Y-37426632D01*
X35681000Y-37539338D01*
X35889692Y-37619030D01*
X35894760Y-37620061D01*
X35894763Y-37620062D01*
X36002017Y-37641883D01*
X36108597Y-37663567D01*
X36113772Y-37663757D01*
X36113774Y-37663757D01*
X36326673Y-37671564D01*
X36326677Y-37671564D01*
X36331837Y-37671753D01*
X36336957Y-37671097D01*
X36336959Y-37671097D01*
X36548288Y-37644025D01*
X36548289Y-37644025D01*
X36553416Y-37643368D01*
X36558366Y-37641883D01*
X36762429Y-37580661D01*
X36762434Y-37580659D01*
X36767384Y-37579174D01*
X36967994Y-37480896D01*
X37149860Y-37351173D01*
X37308096Y-37193489D01*
X37367594Y-37110689D01*
X37438453Y-37012077D01*
X37439774Y-37013026D01*
X37486663Y-36969849D01*
X37556600Y-36957628D01*
X37622042Y-36985158D01*
X37649874Y-37016995D01*
X37707285Y-37110680D01*
X37707290Y-37110687D01*
X37709987Y-37115088D01*
X37856250Y-37283938D01*
X38028126Y-37426632D01*
X38221000Y-37539338D01*
X38429692Y-37619030D01*
X38434760Y-37620061D01*
X38434763Y-37620062D01*
X38542017Y-37641883D01*
X38648597Y-37663567D01*
X38653772Y-37663757D01*
X38653774Y-37663757D01*
X38866673Y-37671564D01*
X38866677Y-37671564D01*
X38871837Y-37671753D01*
X38876957Y-37671097D01*
X38876959Y-37671097D01*
X39088288Y-37644025D01*
X39088289Y-37644025D01*
X39093416Y-37643368D01*
X39098366Y-37641883D01*
X39302429Y-37580661D01*
X39302434Y-37580659D01*
X39307384Y-37579174D01*
X39507994Y-37480896D01*
X39689860Y-37351173D01*
X39757331Y-37283938D01*
X39798479Y-37242933D01*
X39860851Y-37209017D01*
X39931658Y-37214205D01*
X39988419Y-37256851D01*
X40005401Y-37287954D01*
X40046676Y-37398054D01*
X40055214Y-37413649D01*
X40131715Y-37515724D01*
X40144276Y-37528285D01*
X40246351Y-37604786D01*
X40261946Y-37613324D01*
X40382394Y-37658478D01*
X40397649Y-37662105D01*
X40448514Y-37667631D01*
X40455328Y-37668000D01*
X41077885Y-37668000D01*
X41093124Y-37663525D01*
X41094329Y-37662135D01*
X41096000Y-37654452D01*
X41096000Y-37649884D01*
X41604000Y-37649884D01*
X41608475Y-37665123D01*
X41609865Y-37666328D01*
X41617548Y-37667999D01*
X42244669Y-37667999D01*
X42251490Y-37667629D01*
X42302352Y-37662105D01*
X42317604Y-37658479D01*
X42438054Y-37613324D01*
X42453649Y-37604786D01*
X42555724Y-37528285D01*
X42568285Y-37515724D01*
X42644786Y-37413649D01*
X42653324Y-37398054D01*
X42694225Y-37288952D01*
X42736867Y-37232188D01*
X42803428Y-37207488D01*
X42872777Y-37222696D01*
X42907444Y-37250684D01*
X42932865Y-37280031D01*
X42932869Y-37280035D01*
X42936250Y-37283938D01*
X43108126Y-37426632D01*
X43301000Y-37539338D01*
X43509692Y-37619030D01*
X43514760Y-37620061D01*
X43514763Y-37620062D01*
X43622017Y-37641883D01*
X43728597Y-37663567D01*
X43733772Y-37663757D01*
X43733774Y-37663757D01*
X43946673Y-37671564D01*
X43946677Y-37671564D01*
X43951837Y-37671753D01*
X43956957Y-37671097D01*
X43956959Y-37671097D01*
X44168288Y-37644025D01*
X44168289Y-37644025D01*
X44173416Y-37643368D01*
X44178366Y-37641883D01*
X44382429Y-37580661D01*
X44382434Y-37580659D01*
X44387384Y-37579174D01*
X44587994Y-37480896D01*
X44769860Y-37351173D01*
X44928096Y-37193489D01*
X44987594Y-37110689D01*
X45058453Y-37012077D01*
X45059776Y-37013028D01*
X45106645Y-36969857D01*
X45176580Y-36957625D01*
X45242026Y-36985144D01*
X45269875Y-37016994D01*
X45329987Y-37115088D01*
X45476250Y-37283938D01*
X45648126Y-37426632D01*
X45841000Y-37539338D01*
X46049692Y-37619030D01*
X46054760Y-37620061D01*
X46054763Y-37620062D01*
X46162017Y-37641883D01*
X46268597Y-37663567D01*
X46273772Y-37663757D01*
X46273774Y-37663757D01*
X46486673Y-37671564D01*
X46486677Y-37671564D01*
X46491837Y-37671753D01*
X46496957Y-37671097D01*
X46496959Y-37671097D01*
X46708288Y-37644025D01*
X46708289Y-37644025D01*
X46713416Y-37643368D01*
X46718366Y-37641883D01*
X46922429Y-37580661D01*
X46922434Y-37580659D01*
X46927384Y-37579174D01*
X47127994Y-37480896D01*
X47309860Y-37351173D01*
X47468096Y-37193489D01*
X47527594Y-37110689D01*
X47598453Y-37012077D01*
X47599776Y-37013028D01*
X47646645Y-36969857D01*
X47716580Y-36957625D01*
X47782026Y-36985144D01*
X47809875Y-37016994D01*
X47869987Y-37115088D01*
X48016250Y-37283938D01*
X48188126Y-37426632D01*
X48381000Y-37539338D01*
X48589692Y-37619030D01*
X48594760Y-37620061D01*
X48594763Y-37620062D01*
X48702017Y-37641883D01*
X48808597Y-37663567D01*
X48813772Y-37663757D01*
X48813774Y-37663757D01*
X49026673Y-37671564D01*
X49026677Y-37671564D01*
X49031837Y-37671753D01*
X49036957Y-37671097D01*
X49036959Y-37671097D01*
X49248288Y-37644025D01*
X49248289Y-37644025D01*
X49253416Y-37643368D01*
X49258366Y-37641883D01*
X49462429Y-37580661D01*
X49462434Y-37580659D01*
X49467384Y-37579174D01*
X49667994Y-37480896D01*
X49849860Y-37351173D01*
X50008096Y-37193489D01*
X50067594Y-37110689D01*
X50138453Y-37012077D01*
X50139776Y-37013028D01*
X50186645Y-36969857D01*
X50256580Y-36957625D01*
X50322026Y-36985144D01*
X50349875Y-37016994D01*
X50409987Y-37115088D01*
X50556250Y-37283938D01*
X50728126Y-37426632D01*
X50921000Y-37539338D01*
X51129692Y-37619030D01*
X51134760Y-37620061D01*
X51134763Y-37620062D01*
X51242017Y-37641883D01*
X51348597Y-37663567D01*
X51353772Y-37663757D01*
X51353774Y-37663757D01*
X51566673Y-37671564D01*
X51566677Y-37671564D01*
X51571837Y-37671753D01*
X51576957Y-37671097D01*
X51576959Y-37671097D01*
X51788288Y-37644025D01*
X51788289Y-37644025D01*
X51793416Y-37643368D01*
X51798366Y-37641883D01*
X52002429Y-37580661D01*
X52002434Y-37580659D01*
X52007384Y-37579174D01*
X52207994Y-37480896D01*
X52389860Y-37351173D01*
X52457331Y-37283938D01*
X52498479Y-37242933D01*
X52560851Y-37209017D01*
X52631658Y-37214205D01*
X52688419Y-37256851D01*
X52705401Y-37287954D01*
X52746676Y-37398054D01*
X52755214Y-37413649D01*
X52831715Y-37515724D01*
X52844276Y-37528285D01*
X52946351Y-37604786D01*
X52961946Y-37613324D01*
X53082394Y-37658478D01*
X53097649Y-37662105D01*
X53148514Y-37667631D01*
X53155328Y-37668000D01*
X53777885Y-37668000D01*
X53793124Y-37663525D01*
X53794329Y-37662135D01*
X53796000Y-37654452D01*
X53796000Y-37649884D01*
X54304000Y-37649884D01*
X54308475Y-37665123D01*
X54309865Y-37666328D01*
X54317548Y-37667999D01*
X54944669Y-37667999D01*
X54951490Y-37667629D01*
X55002352Y-37662105D01*
X55017604Y-37658479D01*
X55138054Y-37613324D01*
X55153649Y-37604786D01*
X55255724Y-37528285D01*
X55268285Y-37515724D01*
X55344786Y-37413649D01*
X55353324Y-37398054D01*
X55394225Y-37288952D01*
X55436867Y-37232188D01*
X55503428Y-37207488D01*
X55572777Y-37222696D01*
X55607444Y-37250684D01*
X55632865Y-37280031D01*
X55632869Y-37280035D01*
X55636250Y-37283938D01*
X55808126Y-37426632D01*
X56001000Y-37539338D01*
X56209692Y-37619030D01*
X56214760Y-37620061D01*
X56214763Y-37620062D01*
X56322017Y-37641883D01*
X56428597Y-37663567D01*
X56433772Y-37663757D01*
X56433774Y-37663757D01*
X56646673Y-37671564D01*
X56646677Y-37671564D01*
X56651837Y-37671753D01*
X56656957Y-37671097D01*
X56656959Y-37671097D01*
X56868288Y-37644025D01*
X56868289Y-37644025D01*
X56873416Y-37643368D01*
X56878366Y-37641883D01*
X57082429Y-37580661D01*
X57082434Y-37580659D01*
X57087384Y-37579174D01*
X57287994Y-37480896D01*
X57469860Y-37351173D01*
X57628096Y-37193489D01*
X57687594Y-37110689D01*
X57758453Y-37012077D01*
X57759776Y-37013028D01*
X57806645Y-36969857D01*
X57876580Y-36957625D01*
X57942026Y-36985144D01*
X57969875Y-37016994D01*
X58029987Y-37115088D01*
X58176250Y-37283938D01*
X58348126Y-37426632D01*
X58541000Y-37539338D01*
X58749692Y-37619030D01*
X58754760Y-37620061D01*
X58754763Y-37620062D01*
X58862017Y-37641883D01*
X58968597Y-37663567D01*
X58973772Y-37663757D01*
X58973774Y-37663757D01*
X59186673Y-37671564D01*
X59186677Y-37671564D01*
X59191837Y-37671753D01*
X59196957Y-37671097D01*
X59196959Y-37671097D01*
X59408288Y-37644025D01*
X59408289Y-37644025D01*
X59413416Y-37643368D01*
X59418366Y-37641883D01*
X59622429Y-37580661D01*
X59622434Y-37580659D01*
X59627384Y-37579174D01*
X59827994Y-37480896D01*
X60009860Y-37351173D01*
X60168096Y-37193489D01*
X60227594Y-37110689D01*
X60298453Y-37012077D01*
X60299776Y-37013028D01*
X60346645Y-36969857D01*
X60416580Y-36957625D01*
X60482026Y-36985144D01*
X60509875Y-37016994D01*
X60569987Y-37115088D01*
X60716250Y-37283938D01*
X60888126Y-37426632D01*
X61081000Y-37539338D01*
X61289692Y-37619030D01*
X61294760Y-37620061D01*
X61294763Y-37620062D01*
X61402017Y-37641883D01*
X61508597Y-37663567D01*
X61513772Y-37663757D01*
X61513774Y-37663757D01*
X61726673Y-37671564D01*
X61726677Y-37671564D01*
X61731837Y-37671753D01*
X61736957Y-37671097D01*
X61736959Y-37671097D01*
X61948288Y-37644025D01*
X61948289Y-37644025D01*
X61953416Y-37643368D01*
X61958366Y-37641883D01*
X62162429Y-37580661D01*
X62162434Y-37580659D01*
X62167384Y-37579174D01*
X62367994Y-37480896D01*
X62372199Y-37477896D01*
X62372205Y-37477893D01*
X62484135Y-37398054D01*
X62505811Y-37382593D01*
X62572883Y-37359320D01*
X62641892Y-37376003D01*
X62668073Y-37396077D01*
X63149543Y-37877547D01*
X63157087Y-37885837D01*
X63161200Y-37892318D01*
X63166977Y-37897743D01*
X63210867Y-37938958D01*
X63213709Y-37941713D01*
X63233430Y-37961434D01*
X63236625Y-37963912D01*
X63245647Y-37971618D01*
X63277879Y-38001886D01*
X63284828Y-38005706D01*
X63295632Y-38011646D01*
X63312156Y-38022499D01*
X63328159Y-38034913D01*
X63368743Y-38052476D01*
X63379373Y-38057683D01*
X63418140Y-38078995D01*
X63425817Y-38080966D01*
X63425822Y-38080968D01*
X63437758Y-38084032D01*
X63456466Y-38090437D01*
X63475055Y-38098481D01*
X63482883Y-38099721D01*
X63482890Y-38099723D01*
X63518724Y-38105399D01*
X63530344Y-38107805D01*
X63565489Y-38116828D01*
X63573170Y-38118800D01*
X63593424Y-38118800D01*
X63613134Y-38120351D01*
X63633143Y-38123520D01*
X63641035Y-38122774D01*
X63677161Y-38119359D01*
X63689019Y-38118800D01*
X86950706Y-38118800D01*
X87018827Y-38138802D01*
X87039801Y-38155705D01*
X90255636Y-41371540D01*
X90289662Y-41433852D01*
X90289060Y-41490049D01*
X90243789Y-41678619D01*
X90235465Y-41713289D01*
X90216835Y-41950000D01*
X90235465Y-42186711D01*
X90236619Y-42191518D01*
X90236620Y-42191524D01*
X90266122Y-42314408D01*
X90290895Y-42417594D01*
X90292788Y-42422165D01*
X90292789Y-42422167D01*
X90379772Y-42632163D01*
X90381760Y-42636963D01*
X90384346Y-42641183D01*
X90503241Y-42835202D01*
X90503245Y-42835208D01*
X90505824Y-42839416D01*
X90660031Y-43019969D01*
X90840584Y-43174176D01*
X90844792Y-43176755D01*
X90844798Y-43176759D01*
X91004486Y-43274616D01*
X91043037Y-43298240D01*
X91047607Y-43300133D01*
X91047611Y-43300135D01*
X91257833Y-43387211D01*
X91262406Y-43389105D01*
X91335499Y-43406653D01*
X91488476Y-43443380D01*
X91488482Y-43443381D01*
X91493289Y-43444535D01*
X91730000Y-43463165D01*
X91966711Y-43444535D01*
X91971518Y-43443381D01*
X91971524Y-43443380D01*
X92124501Y-43406653D01*
X92197594Y-43389105D01*
X92202167Y-43387211D01*
X92412389Y-43300135D01*
X92412393Y-43300133D01*
X92416963Y-43298240D01*
X92455514Y-43274616D01*
X92605556Y-43182670D01*
X95362160Y-43182670D01*
X95367887Y-43190320D01*
X95539042Y-43295205D01*
X95547837Y-43299687D01*
X95757988Y-43386734D01*
X95767373Y-43389783D01*
X95988554Y-43442885D01*
X95998301Y-43444428D01*
X96225070Y-43462275D01*
X96234930Y-43462275D01*
X96461699Y-43444428D01*
X96471446Y-43442885D01*
X96692627Y-43389783D01*
X96702012Y-43386734D01*
X96912163Y-43299687D01*
X96920958Y-43295205D01*
X97088445Y-43192568D01*
X97097907Y-43182110D01*
X97094124Y-43173334D01*
X96242812Y-42322022D01*
X96228868Y-42314408D01*
X96227035Y-42314539D01*
X96220420Y-42318790D01*
X95368920Y-43170290D01*
X95362160Y-43182670D01*
X92605556Y-43182670D01*
X92615202Y-43176759D01*
X92615208Y-43176755D01*
X92619416Y-43174176D01*
X92799969Y-43019969D01*
X92954176Y-42839416D01*
X92956755Y-42835208D01*
X92956759Y-42835202D01*
X93075654Y-42641183D01*
X93078240Y-42636963D01*
X93080229Y-42632163D01*
X93167211Y-42422167D01*
X93167212Y-42422165D01*
X93169105Y-42417594D01*
X93193878Y-42314408D01*
X93223380Y-42191524D01*
X93223381Y-42191518D01*
X93224535Y-42186711D01*
X93242777Y-41954930D01*
X94717725Y-41954930D01*
X94735572Y-42181699D01*
X94737115Y-42191446D01*
X94790217Y-42412627D01*
X94793266Y-42422012D01*
X94880313Y-42632163D01*
X94884795Y-42640958D01*
X94987432Y-42808445D01*
X94997890Y-42817907D01*
X95006666Y-42814124D01*
X95857978Y-41962812D01*
X95864356Y-41951132D01*
X96594408Y-41951132D01*
X96594539Y-41952965D01*
X96598790Y-41959580D01*
X97450290Y-42811080D01*
X97462670Y-42817840D01*
X97470320Y-42812113D01*
X97575205Y-42640958D01*
X97579687Y-42632163D01*
X97666734Y-42422012D01*
X97669783Y-42412627D01*
X97722885Y-42191446D01*
X97724428Y-42181699D01*
X97742275Y-41954930D01*
X97742275Y-41945070D01*
X97724428Y-41718301D01*
X97722885Y-41708554D01*
X97669783Y-41487373D01*
X97666734Y-41477988D01*
X97579687Y-41267837D01*
X97575205Y-41259042D01*
X97472568Y-41091555D01*
X97462110Y-41082093D01*
X97453334Y-41085876D01*
X96602022Y-41937188D01*
X96594408Y-41951132D01*
X95864356Y-41951132D01*
X95865592Y-41948868D01*
X95865461Y-41947035D01*
X95861210Y-41940420D01*
X95009710Y-41088920D01*
X94997330Y-41082160D01*
X94989680Y-41087887D01*
X94884795Y-41259042D01*
X94880313Y-41267837D01*
X94793266Y-41477988D01*
X94790217Y-41487373D01*
X94737115Y-41708554D01*
X94735572Y-41718301D01*
X94717725Y-41945070D01*
X94717725Y-41954930D01*
X93242777Y-41954930D01*
X93243165Y-41950000D01*
X93224535Y-41713289D01*
X93216212Y-41678619D01*
X93176136Y-41511693D01*
X93169105Y-41482406D01*
X93153686Y-41445181D01*
X93080135Y-41267611D01*
X93080133Y-41267607D01*
X93078240Y-41263037D01*
X93032486Y-41188373D01*
X92956759Y-41064798D01*
X92956755Y-41064792D01*
X92954176Y-41060584D01*
X92799969Y-40880031D01*
X92619416Y-40725824D01*
X92615208Y-40723245D01*
X92615202Y-40723241D01*
X92606470Y-40717890D01*
X95362093Y-40717890D01*
X95365876Y-40726666D01*
X96217188Y-41577978D01*
X96231132Y-41585592D01*
X96232965Y-41585461D01*
X96239580Y-41581210D01*
X97091080Y-40729710D01*
X97097840Y-40717330D01*
X97092113Y-40709680D01*
X96920958Y-40604795D01*
X96912163Y-40600313D01*
X96702012Y-40513266D01*
X96692627Y-40510217D01*
X96471446Y-40457115D01*
X96461699Y-40455572D01*
X96234930Y-40437725D01*
X96225070Y-40437725D01*
X95998301Y-40455572D01*
X95988554Y-40457115D01*
X95767373Y-40510217D01*
X95757988Y-40513266D01*
X95547837Y-40600313D01*
X95539042Y-40604795D01*
X95371555Y-40707432D01*
X95362093Y-40717890D01*
X92606470Y-40717890D01*
X92421183Y-40604346D01*
X92416963Y-40601760D01*
X92412393Y-40599867D01*
X92412389Y-40599865D01*
X92202167Y-40512789D01*
X92202165Y-40512788D01*
X92197594Y-40510895D01*
X92117391Y-40491640D01*
X91971524Y-40456620D01*
X91971518Y-40456619D01*
X91966711Y-40455465D01*
X91730000Y-40436835D01*
X91493289Y-40455465D01*
X91488482Y-40456619D01*
X91488476Y-40456620D01*
X91322896Y-40496373D01*
X91270049Y-40509060D01*
X91199142Y-40505513D01*
X91151541Y-40475636D01*
X87768952Y-37093047D01*
X87761412Y-37084761D01*
X87757300Y-37078282D01*
X87707648Y-37031656D01*
X87704807Y-37028902D01*
X87685070Y-37009165D01*
X87681873Y-37006685D01*
X87672851Y-36998980D01*
X87646400Y-36974141D01*
X87640621Y-36968714D01*
X87633675Y-36964895D01*
X87633672Y-36964893D01*
X87622866Y-36958952D01*
X87606347Y-36948101D01*
X87600415Y-36943500D01*
X87590341Y-36935686D01*
X87583072Y-36932541D01*
X87583068Y-36932538D01*
X87549763Y-36918126D01*
X87539113Y-36912909D01*
X87500360Y-36891605D01*
X87480737Y-36886567D01*
X87462034Y-36880163D01*
X87450720Y-36875267D01*
X87450719Y-36875267D01*
X87443445Y-36872119D01*
X87435622Y-36870880D01*
X87435612Y-36870877D01*
X87399776Y-36865201D01*
X87388156Y-36862795D01*
X87353011Y-36853772D01*
X87353010Y-36853772D01*
X87345330Y-36851800D01*
X87325076Y-36851800D01*
X87305365Y-36850249D01*
X87293186Y-36848320D01*
X87285357Y-36847080D01*
X87277465Y-36847826D01*
X87241339Y-36851241D01*
X87229481Y-36851800D01*
X85955249Y-36851800D01*
X85887128Y-36831798D01*
X85840635Y-36778142D01*
X85830531Y-36707868D01*
X85834691Y-36689171D01*
X85860865Y-36603023D01*
X85860865Y-36603021D01*
X85862370Y-36598069D01*
X85891529Y-36376590D01*
X85893156Y-36310000D01*
X85874852Y-36087361D01*
X85820431Y-35870702D01*
X85731354Y-35665840D01*
X85610014Y-35478277D01*
X85459670Y-35313051D01*
X85455619Y-35309852D01*
X85455615Y-35309848D01*
X85288414Y-35177800D01*
X85288410Y-35177798D01*
X85284359Y-35174598D01*
X85088789Y-35066638D01*
X85083920Y-35064914D01*
X85083916Y-35064912D01*
X84883087Y-34993795D01*
X84883083Y-34993794D01*
X84878212Y-34992069D01*
X84873119Y-34991162D01*
X84873116Y-34991161D01*
X84663373Y-34953800D01*
X84663367Y-34953799D01*
X84658284Y-34952894D01*
X84584452Y-34951992D01*
X84440081Y-34950228D01*
X84440079Y-34950228D01*
X84434911Y-34950165D01*
X84214091Y-34983955D01*
X84001756Y-35053357D01*
X83803607Y-35156507D01*
X83799474Y-35159610D01*
X83799471Y-35159612D01*
X83716450Y-35221946D01*
X83624965Y-35290635D01*
X83470629Y-35452138D01*
X83363201Y-35609621D01*
X83308293Y-35654621D01*
X83237768Y-35662792D01*
X83174021Y-35631538D01*
X83153324Y-35607054D01*
X83072822Y-35482617D01*
X83072820Y-35482614D01*
X83070014Y-35478277D01*
X82919670Y-35313051D01*
X82915619Y-35309852D01*
X82915615Y-35309848D01*
X82748414Y-35177800D01*
X82748410Y-35177798D01*
X82744359Y-35174598D01*
X82548789Y-35066638D01*
X82543920Y-35064914D01*
X82543916Y-35064912D01*
X82343087Y-34993795D01*
X82343083Y-34993794D01*
X82338212Y-34992069D01*
X82333119Y-34991162D01*
X82333116Y-34991161D01*
X82123373Y-34953800D01*
X82123367Y-34953799D01*
X82118284Y-34952894D01*
X82044452Y-34951992D01*
X81900081Y-34950228D01*
X81900079Y-34950228D01*
X81894911Y-34950165D01*
X81674091Y-34983955D01*
X81461756Y-35053357D01*
X81263607Y-35156507D01*
X81259474Y-35159610D01*
X81259471Y-35159612D01*
X81176450Y-35221946D01*
X81084965Y-35290635D01*
X81081393Y-35294373D01*
X81003898Y-35375466D01*
X80942374Y-35410895D01*
X80871462Y-35407438D01*
X80813676Y-35366192D01*
X80794823Y-35332644D01*
X80753324Y-35221946D01*
X80744786Y-35206351D01*
X80668285Y-35104276D01*
X80655724Y-35091715D01*
X80553649Y-35015214D01*
X80538054Y-35006676D01*
X80417606Y-34961522D01*
X80402351Y-34957895D01*
X80351486Y-34952369D01*
X80344672Y-34952000D01*
X79722115Y-34952000D01*
X79706876Y-34956475D01*
X79705671Y-34957865D01*
X79704000Y-34965548D01*
X79704000Y-36438000D01*
X79683998Y-36506121D01*
X79630342Y-36552614D01*
X79578000Y-36564000D01*
X79322000Y-36564000D01*
X79253879Y-36543998D01*
X79207386Y-36490342D01*
X79196000Y-36438000D01*
X79196000Y-34970116D01*
X79191525Y-34954877D01*
X79190135Y-34953672D01*
X79182452Y-34952001D01*
X78555331Y-34952001D01*
X78548510Y-34952371D01*
X78497648Y-34957895D01*
X78482396Y-34961521D01*
X78361946Y-35006676D01*
X78346351Y-35015214D01*
X78244276Y-35091715D01*
X78231715Y-35104276D01*
X78155214Y-35206351D01*
X78146676Y-35221946D01*
X78105297Y-35332322D01*
X78062655Y-35389087D01*
X77996093Y-35413786D01*
X77926744Y-35398578D01*
X77894121Y-35372891D01*
X77843151Y-35316876D01*
X77843145Y-35316870D01*
X77839670Y-35313051D01*
X77835619Y-35309852D01*
X77835615Y-35309848D01*
X77668414Y-35177800D01*
X77668410Y-35177798D01*
X77664359Y-35174598D01*
X77468789Y-35066638D01*
X77463920Y-35064914D01*
X77463916Y-35064912D01*
X77263087Y-34993795D01*
X77263083Y-34993794D01*
X77258212Y-34992069D01*
X77253119Y-34991162D01*
X77253116Y-34991161D01*
X77043373Y-34953800D01*
X77043367Y-34953799D01*
X77038284Y-34952894D01*
X76964452Y-34951992D01*
X76820081Y-34950228D01*
X76820079Y-34950228D01*
X76814911Y-34950165D01*
X76594091Y-34983955D01*
X76381756Y-35053357D01*
X76183607Y-35156507D01*
X76179474Y-35159610D01*
X76179471Y-35159612D01*
X76096450Y-35221946D01*
X76004965Y-35290635D01*
X75850629Y-35452138D01*
X75743201Y-35609621D01*
X75688293Y-35654621D01*
X75617768Y-35662792D01*
X75554021Y-35631538D01*
X75533324Y-35607054D01*
X75452822Y-35482617D01*
X75452820Y-35482614D01*
X75450014Y-35478277D01*
X75299670Y-35313051D01*
X75295619Y-35309852D01*
X75295615Y-35309848D01*
X75128414Y-35177800D01*
X75128410Y-35177798D01*
X75124359Y-35174598D01*
X74928789Y-35066638D01*
X74923920Y-35064914D01*
X74923916Y-35064912D01*
X74723087Y-34993795D01*
X74723083Y-34993794D01*
X74718212Y-34992069D01*
X74713119Y-34991162D01*
X74713116Y-34991161D01*
X74503373Y-34953800D01*
X74503367Y-34953799D01*
X74498284Y-34952894D01*
X74424452Y-34951992D01*
X74280081Y-34950228D01*
X74280079Y-34950228D01*
X74274911Y-34950165D01*
X74054091Y-34983955D01*
X73841756Y-35053357D01*
X73643607Y-35156507D01*
X73639474Y-35159610D01*
X73639471Y-35159612D01*
X73556450Y-35221946D01*
X73464965Y-35290635D01*
X73310629Y-35452138D01*
X73203201Y-35609621D01*
X73148293Y-35654621D01*
X73077768Y-35662792D01*
X73014021Y-35631538D01*
X72993324Y-35607054D01*
X72912822Y-35482617D01*
X72912820Y-35482614D01*
X72910014Y-35478277D01*
X72759670Y-35313051D01*
X72755619Y-35309852D01*
X72755615Y-35309848D01*
X72588414Y-35177800D01*
X72588410Y-35177798D01*
X72584359Y-35174598D01*
X72388789Y-35066638D01*
X72383920Y-35064914D01*
X72383916Y-35064912D01*
X72183087Y-34993795D01*
X72183083Y-34993794D01*
X72178212Y-34992069D01*
X72173119Y-34991162D01*
X72173116Y-34991161D01*
X71963373Y-34953800D01*
X71963367Y-34953799D01*
X71958284Y-34952894D01*
X71884452Y-34951992D01*
X71740081Y-34950228D01*
X71740079Y-34950228D01*
X71734911Y-34950165D01*
X71514091Y-34983955D01*
X71301756Y-35053357D01*
X71103607Y-35156507D01*
X71099474Y-35159610D01*
X71099471Y-35159612D01*
X71016450Y-35221946D01*
X70924965Y-35290635D01*
X70770629Y-35452138D01*
X70663201Y-35609621D01*
X70608293Y-35654621D01*
X70537768Y-35662792D01*
X70474021Y-35631538D01*
X70453324Y-35607054D01*
X70372822Y-35482617D01*
X70372820Y-35482614D01*
X70370014Y-35478277D01*
X70219670Y-35313051D01*
X70215619Y-35309852D01*
X70215615Y-35309848D01*
X70048414Y-35177800D01*
X70048410Y-35177798D01*
X70044359Y-35174598D01*
X69848789Y-35066638D01*
X69843920Y-35064914D01*
X69843916Y-35064912D01*
X69643087Y-34993795D01*
X69643083Y-34993794D01*
X69638212Y-34992069D01*
X69633119Y-34991162D01*
X69633116Y-34991161D01*
X69423373Y-34953800D01*
X69423367Y-34953799D01*
X69418284Y-34952894D01*
X69344452Y-34951992D01*
X69200081Y-34950228D01*
X69200079Y-34950228D01*
X69194911Y-34950165D01*
X68974091Y-34983955D01*
X68761756Y-35053357D01*
X68563607Y-35156507D01*
X68559474Y-35159610D01*
X68559471Y-35159612D01*
X68476450Y-35221946D01*
X68384965Y-35290635D01*
X68381393Y-35294373D01*
X68303898Y-35375466D01*
X68242374Y-35410895D01*
X68171462Y-35407438D01*
X68113676Y-35366192D01*
X68094823Y-35332644D01*
X68053324Y-35221946D01*
X68044786Y-35206351D01*
X67968285Y-35104276D01*
X67955724Y-35091715D01*
X67853649Y-35015214D01*
X67838054Y-35006676D01*
X67717606Y-34961522D01*
X67702351Y-34957895D01*
X67651486Y-34952369D01*
X67644672Y-34952000D01*
X67022115Y-34952000D01*
X67006876Y-34956475D01*
X67005671Y-34957865D01*
X67004000Y-34965548D01*
X67004000Y-36438000D01*
X66983998Y-36506121D01*
X66930342Y-36552614D01*
X66878000Y-36564000D01*
X66622000Y-36564000D01*
X66553879Y-36543998D01*
X66507386Y-36490342D01*
X66496000Y-36438000D01*
X66496000Y-34970116D01*
X66491525Y-34954877D01*
X66490135Y-34953672D01*
X66482452Y-34952001D01*
X65855331Y-34952001D01*
X65848510Y-34952371D01*
X65797648Y-34957895D01*
X65782396Y-34961521D01*
X65661946Y-35006676D01*
X65646351Y-35015214D01*
X65544276Y-35091715D01*
X65531715Y-35104276D01*
X65455214Y-35206351D01*
X65446676Y-35221946D01*
X65405297Y-35332322D01*
X65362655Y-35389087D01*
X65296093Y-35413786D01*
X65226744Y-35398578D01*
X65194121Y-35372891D01*
X65143151Y-35316876D01*
X65143145Y-35316870D01*
X65139670Y-35313051D01*
X65135619Y-35309852D01*
X65135615Y-35309848D01*
X64968414Y-35177800D01*
X64968410Y-35177798D01*
X64964359Y-35174598D01*
X64768789Y-35066638D01*
X64763920Y-35064914D01*
X64763916Y-35064912D01*
X64563087Y-34993795D01*
X64563083Y-34993794D01*
X64558212Y-34992069D01*
X64553119Y-34991162D01*
X64553116Y-34991161D01*
X64343373Y-34953800D01*
X64343367Y-34953799D01*
X64338284Y-34952894D01*
X64264452Y-34951992D01*
X64120081Y-34950228D01*
X64120079Y-34950228D01*
X64114911Y-34950165D01*
X63894091Y-34983955D01*
X63681756Y-35053357D01*
X63483607Y-35156507D01*
X63479474Y-35159610D01*
X63479471Y-35159612D01*
X63396450Y-35221946D01*
X63304965Y-35290635D01*
X63150629Y-35452138D01*
X63043201Y-35609621D01*
X62988293Y-35654621D01*
X62917768Y-35662792D01*
X62854021Y-35631538D01*
X62833324Y-35607054D01*
X62752822Y-35482617D01*
X62752820Y-35482614D01*
X62750014Y-35478277D01*
X62599670Y-35313051D01*
X62595619Y-35309852D01*
X62595615Y-35309848D01*
X62428414Y-35177800D01*
X62428410Y-35177798D01*
X62424359Y-35174598D01*
X62228789Y-35066638D01*
X62223920Y-35064914D01*
X62223916Y-35064912D01*
X62023087Y-34993795D01*
X62023083Y-34993794D01*
X62018212Y-34992069D01*
X62013119Y-34991162D01*
X62013116Y-34991161D01*
X61803373Y-34953800D01*
X61803367Y-34953799D01*
X61798284Y-34952894D01*
X61724452Y-34951992D01*
X61580081Y-34950228D01*
X61580079Y-34950228D01*
X61574911Y-34950165D01*
X61354091Y-34983955D01*
X61141756Y-35053357D01*
X60943607Y-35156507D01*
X60939474Y-35159610D01*
X60939471Y-35159612D01*
X60856450Y-35221946D01*
X60764965Y-35290635D01*
X60610629Y-35452138D01*
X60503201Y-35609621D01*
X60448293Y-35654621D01*
X60377768Y-35662792D01*
X60314021Y-35631538D01*
X60293324Y-35607054D01*
X60212822Y-35482617D01*
X60212820Y-35482614D01*
X60210014Y-35478277D01*
X60059670Y-35313051D01*
X60055619Y-35309852D01*
X60055615Y-35309848D01*
X59888414Y-35177800D01*
X59888410Y-35177798D01*
X59884359Y-35174598D01*
X59688789Y-35066638D01*
X59683920Y-35064914D01*
X59683916Y-35064912D01*
X59483087Y-34993795D01*
X59483083Y-34993794D01*
X59478212Y-34992069D01*
X59473119Y-34991162D01*
X59473116Y-34991161D01*
X59263373Y-34953800D01*
X59263367Y-34953799D01*
X59258284Y-34952894D01*
X59184452Y-34951992D01*
X59040081Y-34950228D01*
X59040079Y-34950228D01*
X59034911Y-34950165D01*
X58814091Y-34983955D01*
X58601756Y-35053357D01*
X58403607Y-35156507D01*
X58399474Y-35159610D01*
X58399471Y-35159612D01*
X58316450Y-35221946D01*
X58224965Y-35290635D01*
X58070629Y-35452138D01*
X57963201Y-35609621D01*
X57908293Y-35654621D01*
X57837768Y-35662792D01*
X57774021Y-35631538D01*
X57753324Y-35607054D01*
X57672822Y-35482617D01*
X57672820Y-35482614D01*
X57670014Y-35478277D01*
X57519670Y-35313051D01*
X57515619Y-35309852D01*
X57515615Y-35309848D01*
X57348414Y-35177800D01*
X57348410Y-35177798D01*
X57344359Y-35174598D01*
X57148789Y-35066638D01*
X57143920Y-35064914D01*
X57143916Y-35064912D01*
X56943087Y-34993795D01*
X56943083Y-34993794D01*
X56938212Y-34992069D01*
X56933119Y-34991162D01*
X56933116Y-34991161D01*
X56723373Y-34953800D01*
X56723367Y-34953799D01*
X56718284Y-34952894D01*
X56644452Y-34951992D01*
X56500081Y-34950228D01*
X56500079Y-34950228D01*
X56494911Y-34950165D01*
X56274091Y-34983955D01*
X56061756Y-35053357D01*
X55863607Y-35156507D01*
X55859474Y-35159610D01*
X55859471Y-35159612D01*
X55776450Y-35221946D01*
X55684965Y-35290635D01*
X55681393Y-35294373D01*
X55603898Y-35375466D01*
X55542374Y-35410895D01*
X55471462Y-35407438D01*
X55413676Y-35366192D01*
X55394823Y-35332644D01*
X55353324Y-35221946D01*
X55344786Y-35206351D01*
X55268285Y-35104276D01*
X55255724Y-35091715D01*
X55153649Y-35015214D01*
X55138054Y-35006676D01*
X55017606Y-34961522D01*
X55002351Y-34957895D01*
X54951486Y-34952369D01*
X54944672Y-34952000D01*
X54322115Y-34952000D01*
X54306876Y-34956475D01*
X54305671Y-34957865D01*
X54304000Y-34965548D01*
X54304000Y-37649884D01*
X53796000Y-37649884D01*
X53796000Y-34970116D01*
X53791525Y-34954877D01*
X53790135Y-34953672D01*
X53782452Y-34952001D01*
X53155331Y-34952001D01*
X53148510Y-34952371D01*
X53097648Y-34957895D01*
X53082396Y-34961521D01*
X52961946Y-35006676D01*
X52946351Y-35015214D01*
X52844276Y-35091715D01*
X52831715Y-35104276D01*
X52755214Y-35206351D01*
X52746676Y-35221946D01*
X52705297Y-35332322D01*
X52662655Y-35389087D01*
X52596093Y-35413786D01*
X52526744Y-35398578D01*
X52494121Y-35372891D01*
X52443151Y-35316876D01*
X52443145Y-35316870D01*
X52439670Y-35313051D01*
X52435619Y-35309852D01*
X52435615Y-35309848D01*
X52268414Y-35177800D01*
X52268410Y-35177798D01*
X52264359Y-35174598D01*
X52068789Y-35066638D01*
X52063920Y-35064914D01*
X52063916Y-35064912D01*
X51863087Y-34993795D01*
X51863083Y-34993794D01*
X51858212Y-34992069D01*
X51853119Y-34991162D01*
X51853116Y-34991161D01*
X51643373Y-34953800D01*
X51643367Y-34953799D01*
X51638284Y-34952894D01*
X51564452Y-34951992D01*
X51420081Y-34950228D01*
X51420079Y-34950228D01*
X51414911Y-34950165D01*
X51194091Y-34983955D01*
X50981756Y-35053357D01*
X50783607Y-35156507D01*
X50779474Y-35159610D01*
X50779471Y-35159612D01*
X50696450Y-35221946D01*
X50604965Y-35290635D01*
X50450629Y-35452138D01*
X50343201Y-35609621D01*
X50288293Y-35654621D01*
X50217768Y-35662792D01*
X50154021Y-35631538D01*
X50133324Y-35607054D01*
X50052822Y-35482617D01*
X50052820Y-35482614D01*
X50050014Y-35478277D01*
X49899670Y-35313051D01*
X49895619Y-35309852D01*
X49895615Y-35309848D01*
X49728414Y-35177800D01*
X49728410Y-35177798D01*
X49724359Y-35174598D01*
X49528789Y-35066638D01*
X49523920Y-35064914D01*
X49523916Y-35064912D01*
X49323087Y-34993795D01*
X49323083Y-34993794D01*
X49318212Y-34992069D01*
X49313119Y-34991162D01*
X49313116Y-34991161D01*
X49103373Y-34953800D01*
X49103367Y-34953799D01*
X49098284Y-34952894D01*
X49024452Y-34951992D01*
X48880081Y-34950228D01*
X48880079Y-34950228D01*
X48874911Y-34950165D01*
X48654091Y-34983955D01*
X48441756Y-35053357D01*
X48243607Y-35156507D01*
X48239474Y-35159610D01*
X48239471Y-35159612D01*
X48156450Y-35221946D01*
X48064965Y-35290635D01*
X47910629Y-35452138D01*
X47803201Y-35609621D01*
X47748293Y-35654621D01*
X47677768Y-35662792D01*
X47614021Y-35631538D01*
X47593324Y-35607054D01*
X47512822Y-35482617D01*
X47512820Y-35482614D01*
X47510014Y-35478277D01*
X47359670Y-35313051D01*
X47355619Y-35309852D01*
X47355615Y-35309848D01*
X47188414Y-35177800D01*
X47188410Y-35177798D01*
X47184359Y-35174598D01*
X46988789Y-35066638D01*
X46983920Y-35064914D01*
X46983916Y-35064912D01*
X46783087Y-34993795D01*
X46783083Y-34993794D01*
X46778212Y-34992069D01*
X46773119Y-34991162D01*
X46773116Y-34991161D01*
X46563373Y-34953800D01*
X46563367Y-34953799D01*
X46558284Y-34952894D01*
X46484452Y-34951992D01*
X46340081Y-34950228D01*
X46340079Y-34950228D01*
X46334911Y-34950165D01*
X46114091Y-34983955D01*
X45901756Y-35053357D01*
X45703607Y-35156507D01*
X45699474Y-35159610D01*
X45699471Y-35159612D01*
X45616450Y-35221946D01*
X45524965Y-35290635D01*
X45370629Y-35452138D01*
X45263201Y-35609621D01*
X45208293Y-35654621D01*
X45137768Y-35662792D01*
X45074021Y-35631538D01*
X45053324Y-35607054D01*
X44972822Y-35482617D01*
X44972820Y-35482614D01*
X44970014Y-35478277D01*
X44819670Y-35313051D01*
X44815619Y-35309852D01*
X44815615Y-35309848D01*
X44648414Y-35177800D01*
X44648410Y-35177798D01*
X44644359Y-35174598D01*
X44448789Y-35066638D01*
X44443920Y-35064914D01*
X44443916Y-35064912D01*
X44243087Y-34993795D01*
X44243083Y-34993794D01*
X44238212Y-34992069D01*
X44233119Y-34991162D01*
X44233116Y-34991161D01*
X44023373Y-34953800D01*
X44023367Y-34953799D01*
X44018284Y-34952894D01*
X43944452Y-34951992D01*
X43800081Y-34950228D01*
X43800079Y-34950228D01*
X43794911Y-34950165D01*
X43574091Y-34983955D01*
X43361756Y-35053357D01*
X43163607Y-35156507D01*
X43159474Y-35159610D01*
X43159471Y-35159612D01*
X43076450Y-35221946D01*
X42984965Y-35290635D01*
X42981393Y-35294373D01*
X42903898Y-35375466D01*
X42842374Y-35410895D01*
X42771462Y-35407438D01*
X42713676Y-35366192D01*
X42694823Y-35332644D01*
X42653324Y-35221946D01*
X42644786Y-35206351D01*
X42568285Y-35104276D01*
X42555724Y-35091715D01*
X42453649Y-35015214D01*
X42438054Y-35006676D01*
X42317606Y-34961522D01*
X42302351Y-34957895D01*
X42251486Y-34952369D01*
X42244672Y-34952000D01*
X41622115Y-34952000D01*
X41606876Y-34956475D01*
X41605671Y-34957865D01*
X41604000Y-34965548D01*
X41604000Y-37649884D01*
X41096000Y-37649884D01*
X41096000Y-34970116D01*
X41091525Y-34954877D01*
X41090135Y-34953672D01*
X41082452Y-34952001D01*
X40455331Y-34952001D01*
X40448510Y-34952371D01*
X40397648Y-34957895D01*
X40382396Y-34961521D01*
X40261946Y-35006676D01*
X40246351Y-35015214D01*
X40144276Y-35091715D01*
X40131715Y-35104276D01*
X40055214Y-35206351D01*
X40046676Y-35221946D01*
X40005297Y-35332322D01*
X39962655Y-35389087D01*
X39896093Y-35413786D01*
X39826744Y-35398578D01*
X39794121Y-35372891D01*
X39743151Y-35316876D01*
X39743145Y-35316870D01*
X39739670Y-35313051D01*
X39735619Y-35309852D01*
X39735615Y-35309848D01*
X39568414Y-35177800D01*
X39568410Y-35177798D01*
X39564359Y-35174598D01*
X39368789Y-35066638D01*
X39363920Y-35064914D01*
X39363916Y-35064912D01*
X39163087Y-34993795D01*
X39163083Y-34993794D01*
X39158212Y-34992069D01*
X39153119Y-34991162D01*
X39153116Y-34991161D01*
X38943373Y-34953800D01*
X38943367Y-34953799D01*
X38938284Y-34952894D01*
X38864452Y-34951992D01*
X38720081Y-34950228D01*
X38720079Y-34950228D01*
X38714911Y-34950165D01*
X38494091Y-34983955D01*
X38281756Y-35053357D01*
X38083607Y-35156507D01*
X38079474Y-35159610D01*
X38079471Y-35159612D01*
X37996450Y-35221946D01*
X37904965Y-35290635D01*
X37750629Y-35452138D01*
X37643201Y-35609621D01*
X37588293Y-35654621D01*
X37517768Y-35662792D01*
X37454021Y-35631538D01*
X37433324Y-35607054D01*
X37352822Y-35482617D01*
X37352820Y-35482614D01*
X37350014Y-35478277D01*
X37199670Y-35313051D01*
X37195619Y-35309852D01*
X37195615Y-35309848D01*
X37028414Y-35177800D01*
X37028410Y-35177798D01*
X37024359Y-35174598D01*
X36828789Y-35066638D01*
X36823920Y-35064914D01*
X36823916Y-35064912D01*
X36623087Y-34993795D01*
X36623083Y-34993794D01*
X36618212Y-34992069D01*
X36613119Y-34991162D01*
X36613116Y-34991161D01*
X36403373Y-34953800D01*
X36403367Y-34953799D01*
X36398284Y-34952894D01*
X36324452Y-34951992D01*
X36180081Y-34950228D01*
X36180079Y-34950228D01*
X36174911Y-34950165D01*
X35954091Y-34983955D01*
X35741756Y-35053357D01*
X35543607Y-35156507D01*
X35539474Y-35159610D01*
X35539471Y-35159612D01*
X35456450Y-35221946D01*
X35364965Y-35290635D01*
X35210629Y-35452138D01*
X35084743Y-35636680D01*
X34990688Y-35839305D01*
X34930989Y-36054570D01*
X34907251Y-36276695D01*
X31084287Y-36276695D01*
X31091407Y-31620469D01*
X92177095Y-31620469D01*
X92177392Y-31625622D01*
X92177392Y-31625625D01*
X92183067Y-31724041D01*
X92190427Y-31851697D01*
X92191564Y-31856743D01*
X92191565Y-31856749D01*
X92223741Y-31999523D01*
X92241346Y-32077642D01*
X92243288Y-32082424D01*
X92243289Y-32082428D01*
X92326540Y-32287450D01*
X92328484Y-32292237D01*
X92449501Y-32489719D01*
X92601147Y-32664784D01*
X92779349Y-32812730D01*
X92979322Y-32929584D01*
X93195694Y-33012209D01*
X93200760Y-33013240D01*
X93200761Y-33013240D01*
X93253846Y-33024040D01*
X93422656Y-33058385D01*
X93553324Y-33063176D01*
X93648949Y-33066683D01*
X93648953Y-33066683D01*
X93654113Y-33066872D01*
X93659233Y-33066216D01*
X93659235Y-33066216D01*
X93732270Y-33056860D01*
X93883847Y-33037442D01*
X93888795Y-33035957D01*
X93888802Y-33035956D01*
X94100747Y-32972369D01*
X94105690Y-32970886D01*
X94186236Y-32931427D01*
X94309049Y-32871262D01*
X94309052Y-32871260D01*
X94313684Y-32868991D01*
X94502243Y-32734494D01*
X94666303Y-32571005D01*
X94801458Y-32382917D01*
X94848641Y-32287450D01*
X94901784Y-32179922D01*
X94901785Y-32179920D01*
X94904078Y-32175280D01*
X94971408Y-31953671D01*
X95001640Y-31724041D01*
X95003327Y-31655000D01*
X94995098Y-31554912D01*
X94984773Y-31429318D01*
X94984772Y-31429312D01*
X94984349Y-31424167D01*
X94946469Y-31273359D01*
X99341386Y-31273359D01*
X99350099Y-31284879D01*
X99438586Y-31349760D01*
X99446505Y-31354708D01*
X99662877Y-31468547D01*
X99671451Y-31472275D01*
X99902282Y-31552885D01*
X99911291Y-31555299D01*
X100151518Y-31600908D01*
X100160775Y-31601962D01*
X100405107Y-31611563D01*
X100414420Y-31611237D01*
X100657478Y-31584618D01*
X100666655Y-31582917D01*
X100903107Y-31520665D01*
X100911926Y-31517628D01*
X101136584Y-31421107D01*
X101144856Y-31416800D01*
X101352777Y-31288135D01*
X101354620Y-31286796D01*
X101362038Y-31275541D01*
X101355974Y-31265184D01*
X100362812Y-30272022D01*
X100348868Y-30264408D01*
X100347035Y-30264539D01*
X100340420Y-30268790D01*
X99348044Y-31261166D01*
X99341386Y-31273359D01*
X94946469Y-31273359D01*
X94943406Y-31261166D01*
X94929184Y-31204544D01*
X94929183Y-31204540D01*
X94927925Y-31199533D01*
X94925866Y-31194797D01*
X94837630Y-30991868D01*
X94837628Y-30991865D01*
X94835570Y-30987131D01*
X94709764Y-30792665D01*
X94681704Y-30761827D01*
X94619848Y-30693848D01*
X94588796Y-30630002D01*
X94597192Y-30559504D01*
X94642369Y-30504736D01*
X94668812Y-30491067D01*
X94728297Y-30468767D01*
X94736705Y-30465615D01*
X94853261Y-30378261D01*
X94940615Y-30261705D01*
X94991745Y-30125316D01*
X94998500Y-30063134D01*
X94998500Y-29813163D01*
X95018502Y-29745042D01*
X95069379Y-29701842D01*
X95068892Y-29701019D01*
X95073692Y-29698180D01*
X95073693Y-29698179D01*
X95086328Y-29690707D01*
X95104076Y-29682012D01*
X95122917Y-29674552D01*
X95158687Y-29648564D01*
X95168607Y-29642048D01*
X95199835Y-29623580D01*
X95199838Y-29623578D01*
X95206662Y-29619542D01*
X95220983Y-29605221D01*
X95236017Y-29592380D01*
X95245994Y-29585131D01*
X95252407Y-29580472D01*
X95280598Y-29546395D01*
X95288588Y-29537616D01*
X95781099Y-29045105D01*
X95843411Y-29011079D01*
X95870194Y-29008200D01*
X98682321Y-29008200D01*
X98750442Y-29028202D01*
X98796935Y-29081858D01*
X98807039Y-29152132D01*
X98798518Y-29182926D01*
X98727529Y-29352214D01*
X98724572Y-29361052D01*
X98664384Y-29598042D01*
X98662763Y-29607232D01*
X98638267Y-29850510D01*
X98638022Y-29859835D01*
X98649754Y-30104064D01*
X98650891Y-30113324D01*
X98698593Y-30353143D01*
X98701082Y-30362118D01*
X98783708Y-30592250D01*
X98787505Y-30600778D01*
X98903234Y-30816160D01*
X98908245Y-30824027D01*
X98965173Y-30900263D01*
X98976431Y-30908712D01*
X98988850Y-30901940D01*
X100260905Y-29629885D01*
X100323217Y-29595859D01*
X100394032Y-29600924D01*
X100439095Y-29629885D01*
X101713732Y-30904522D01*
X101726112Y-30911282D01*
X101734453Y-30905038D01*
X101852700Y-30721202D01*
X101857147Y-30713011D01*
X101957572Y-30490076D01*
X101960767Y-30481298D01*
X102027135Y-30245973D01*
X102028993Y-30236844D01*
X102060044Y-29992770D01*
X102060525Y-29986483D01*
X102062706Y-29903160D01*
X102062555Y-29896851D01*
X102044321Y-29651486D01*
X102042944Y-29642280D01*
X101988979Y-29403786D01*
X101986255Y-29394875D01*
X101902643Y-29179867D01*
X101896596Y-29109129D01*
X101929752Y-29046350D01*
X101991586Y-29011463D01*
X102020076Y-29008200D01*
X112224806Y-29008200D01*
X112292927Y-29028202D01*
X112313901Y-29045105D01*
X113561048Y-30292253D01*
X113568588Y-30300539D01*
X113572700Y-30307018D01*
X113578477Y-30312443D01*
X113622351Y-30353643D01*
X113625193Y-30356398D01*
X113644930Y-30376135D01*
X113648127Y-30378615D01*
X113657147Y-30386318D01*
X113689379Y-30416586D01*
X113696325Y-30420405D01*
X113696328Y-30420407D01*
X113707134Y-30426348D01*
X113723653Y-30437199D01*
X113739659Y-30449614D01*
X113746928Y-30452759D01*
X113746932Y-30452762D01*
X113780237Y-30467174D01*
X113790887Y-30472391D01*
X113829640Y-30493695D01*
X113837315Y-30495666D01*
X113837316Y-30495666D01*
X113849262Y-30498733D01*
X113867967Y-30505137D01*
X113886555Y-30513181D01*
X113894380Y-30514420D01*
X113894382Y-30514421D01*
X113918856Y-30518297D01*
X113928078Y-30519758D01*
X113992231Y-30550171D01*
X114023388Y-30592839D01*
X114024831Y-30596858D01*
X114027046Y-30600980D01*
X114142666Y-30816160D01*
X114145025Y-30820551D01*
X114147820Y-30824294D01*
X114147822Y-30824297D01*
X114294171Y-31020282D01*
X114294176Y-31020288D01*
X114296963Y-31024020D01*
X114300272Y-31027300D01*
X114300277Y-31027306D01*
X114469237Y-31194797D01*
X114477307Y-31202797D01*
X114481069Y-31205555D01*
X114481072Y-31205558D01*
X114556912Y-31261166D01*
X114682094Y-31352953D01*
X114686229Y-31355129D01*
X114686233Y-31355131D01*
X114752830Y-31390169D01*
X114906827Y-31471191D01*
X115039803Y-31517628D01*
X115140764Y-31552885D01*
X115146568Y-31554912D01*
X115396050Y-31602278D01*
X115516532Y-31607011D01*
X115645125Y-31612064D01*
X115645130Y-31612064D01*
X115649793Y-31612247D01*
X115740821Y-31602278D01*
X115897569Y-31585112D01*
X115897575Y-31585111D01*
X115902222Y-31584602D01*
X116011680Y-31555784D01*
X116143273Y-31521138D01*
X116147793Y-31519948D01*
X116267433Y-31468547D01*
X116376807Y-31421557D01*
X116376810Y-31421555D01*
X116381110Y-31419708D01*
X116385090Y-31417245D01*
X116385094Y-31417243D01*
X116593064Y-31288547D01*
X116593066Y-31288545D01*
X116597047Y-31286082D01*
X116699283Y-31199533D01*
X116787289Y-31125031D01*
X116787291Y-31125029D01*
X116790862Y-31122006D01*
X116958295Y-30931084D01*
X116972686Y-30908712D01*
X117093141Y-30721442D01*
X117095669Y-30717512D01*
X117199967Y-30485980D01*
X117201288Y-30481298D01*
X117232372Y-30371081D01*
X117268896Y-30241575D01*
X117291597Y-30063134D01*
X117300545Y-29992798D01*
X117300545Y-29992792D01*
X117300943Y-29989667D01*
X117301027Y-29986483D01*
X117303208Y-29903160D01*
X117303291Y-29900000D01*
X117289544Y-29715010D01*
X117284818Y-29651411D01*
X117284817Y-29651407D01*
X117284472Y-29646759D01*
X117279228Y-29623580D01*
X117229459Y-29403639D01*
X117228428Y-29399082D01*
X117136391Y-29162409D01*
X117105939Y-29109129D01*
X117012702Y-28945997D01*
X117012700Y-28945995D01*
X117010383Y-28941940D01*
X116853171Y-28742517D01*
X116668209Y-28568523D01*
X116624483Y-28538189D01*
X116463393Y-28426437D01*
X116463390Y-28426435D01*
X116459561Y-28423779D01*
X116455384Y-28421719D01*
X116455377Y-28421715D01*
X116235996Y-28313528D01*
X116235992Y-28313527D01*
X116231810Y-28311464D01*
X115989960Y-28234047D01*
X115985355Y-28233297D01*
X115743935Y-28193980D01*
X115743934Y-28193980D01*
X115739323Y-28193229D01*
X115612365Y-28191567D01*
X115490083Y-28189966D01*
X115490080Y-28189966D01*
X115485406Y-28189905D01*
X115233787Y-28224149D01*
X114989993Y-28295208D01*
X114759380Y-28401522D01*
X114755471Y-28404085D01*
X114550928Y-28538189D01*
X114550923Y-28538193D01*
X114547015Y-28540755D01*
X114357562Y-28709848D01*
X114195183Y-28905087D01*
X114192763Y-28909075D01*
X114192753Y-28909089D01*
X114191797Y-28910665D01*
X114191317Y-28911103D01*
X114190040Y-28912893D01*
X114189656Y-28912619D01*
X114139354Y-28958521D01*
X114069363Y-28970427D01*
X114004046Y-28942603D01*
X113995000Y-28934396D01*
X113043041Y-27982436D01*
X113035512Y-27974162D01*
X113031400Y-27967682D01*
X112981748Y-27921056D01*
X112978907Y-27918302D01*
X112959170Y-27898565D01*
X112955973Y-27896085D01*
X112946951Y-27888380D01*
X112933516Y-27875764D01*
X112914721Y-27858114D01*
X112907775Y-27854295D01*
X112907772Y-27854293D01*
X112896966Y-27848352D01*
X112880447Y-27837501D01*
X112879983Y-27837141D01*
X112864441Y-27825086D01*
X112857172Y-27821941D01*
X112857168Y-27821938D01*
X112823863Y-27807526D01*
X112813213Y-27802309D01*
X112774460Y-27781005D01*
X112754837Y-27775967D01*
X112736134Y-27769563D01*
X112724820Y-27764667D01*
X112724819Y-27764667D01*
X112717545Y-27761519D01*
X112709722Y-27760280D01*
X112709712Y-27760277D01*
X112673876Y-27754601D01*
X112662256Y-27752195D01*
X112627111Y-27743172D01*
X112627110Y-27743172D01*
X112619430Y-27741200D01*
X112599176Y-27741200D01*
X112579465Y-27739649D01*
X112567286Y-27737720D01*
X112559457Y-27736480D01*
X112530186Y-27739247D01*
X112515439Y-27740641D01*
X112503581Y-27741200D01*
X95634367Y-27741200D01*
X95623184Y-27740673D01*
X95615691Y-27738998D01*
X95607765Y-27739247D01*
X95607764Y-27739247D01*
X95547614Y-27741138D01*
X95543655Y-27741200D01*
X95515744Y-27741200D01*
X95511810Y-27741697D01*
X95511809Y-27741697D01*
X95511744Y-27741705D01*
X95499907Y-27742638D01*
X95468090Y-27743638D01*
X95463629Y-27743778D01*
X95455710Y-27744027D01*
X95438054Y-27749156D01*
X95436258Y-27749678D01*
X95416906Y-27753686D01*
X95409835Y-27754580D01*
X95396803Y-27756226D01*
X95389434Y-27759143D01*
X95389432Y-27759144D01*
X95355697Y-27772500D01*
X95344469Y-27776345D01*
X95302007Y-27788682D01*
X95295185Y-27792716D01*
X95295179Y-27792719D01*
X95284568Y-27798994D01*
X95266818Y-27807690D01*
X95255356Y-27812228D01*
X95255351Y-27812231D01*
X95247983Y-27815148D01*
X95230570Y-27827799D01*
X95212225Y-27841127D01*
X95202307Y-27847643D01*
X95191063Y-27854293D01*
X95164237Y-27870158D01*
X95149913Y-27884482D01*
X95134881Y-27897321D01*
X95118493Y-27909228D01*
X95113440Y-27915336D01*
X95103910Y-27926856D01*
X95045077Y-27966594D01*
X94974099Y-27968217D01*
X94913511Y-27931208D01*
X94905999Y-27922107D01*
X94892856Y-27904570D01*
X94853261Y-27851739D01*
X94736705Y-27764385D01*
X94600316Y-27713255D01*
X94538134Y-27706500D01*
X92641866Y-27706500D01*
X92579684Y-27713255D01*
X92443295Y-27764385D01*
X92326739Y-27851739D01*
X92239385Y-27968295D01*
X92188255Y-28104684D01*
X92181500Y-28166866D01*
X92181500Y-30063134D01*
X92188255Y-30125316D01*
X92239385Y-30261705D01*
X92326739Y-30378261D01*
X92443295Y-30465615D01*
X92451704Y-30468767D01*
X92451705Y-30468768D01*
X92511164Y-30491058D01*
X92567929Y-30533699D01*
X92592629Y-30600261D01*
X92577422Y-30669609D01*
X92558029Y-30696091D01*
X92491639Y-30765564D01*
X92488725Y-30769836D01*
X92488724Y-30769837D01*
X92473152Y-30792665D01*
X92361119Y-30956899D01*
X92263602Y-31166981D01*
X92201707Y-31390169D01*
X92177095Y-31620469D01*
X31091407Y-31620469D01*
X31099808Y-26125807D01*
X31119914Y-26057717D01*
X31173641Y-26011306D01*
X31225808Y-26000000D01*
X143196000Y-26000000D01*
X143264121Y-26020002D01*
G37*
%TD.AperFunction*%
%TA.AperFunction,Conductor*%
G36*
X67114585Y-122255185D02*
G01*
X67171421Y-122297732D01*
X67196111Y-122362697D01*
X67203268Y-122447934D01*
X67257783Y-122638050D01*
X67348187Y-122813956D01*
X67352016Y-122818787D01*
X67353839Y-122821088D01*
X67354414Y-122822509D01*
X67355353Y-122823966D01*
X67355076Y-122824144D01*
X67380474Y-122886898D01*
X67367301Y-122956662D01*
X67363846Y-122962474D01*
X67268567Y-123135787D01*
X67266706Y-123141654D01*
X67266705Y-123141656D01*
X67212848Y-123311434D01*
X67208765Y-123324306D01*
X67186719Y-123520851D01*
X67203268Y-123717934D01*
X67204967Y-123723858D01*
X67250909Y-123884077D01*
X67257783Y-123908050D01*
X67348187Y-124083956D01*
X67352016Y-124088787D01*
X67353839Y-124091088D01*
X67354414Y-124092509D01*
X67355353Y-124093966D01*
X67355076Y-124094144D01*
X67380474Y-124156898D01*
X67367301Y-124226662D01*
X67363846Y-124232474D01*
X67268567Y-124405787D01*
X67266706Y-124411654D01*
X67266705Y-124411656D01*
X67224778Y-124543828D01*
X67208765Y-124594306D01*
X67186719Y-124790851D01*
X67187235Y-124796995D01*
X67201931Y-124972009D01*
X67203268Y-124987934D01*
X67204967Y-124993858D01*
X67251640Y-125156626D01*
X67257783Y-125178050D01*
X67348187Y-125353956D01*
X67352016Y-125358787D01*
X67353839Y-125361088D01*
X67354414Y-125362509D01*
X67355353Y-125363966D01*
X67355076Y-125364144D01*
X67380474Y-125426898D01*
X67367301Y-125496662D01*
X67363846Y-125502474D01*
X67268567Y-125675787D01*
X67266706Y-125681654D01*
X67266705Y-125681656D01*
X67212848Y-125851434D01*
X67208765Y-125864306D01*
X67186719Y-126060851D01*
X67203268Y-126257934D01*
X67204967Y-126263858D01*
X67254226Y-126435645D01*
X67257783Y-126448050D01*
X67348187Y-126623956D01*
X67471035Y-126778953D01*
X67569048Y-126862368D01*
X67607960Y-126921749D01*
X67608591Y-126992743D01*
X67576479Y-127047416D01*
X63964300Y-130659595D01*
X63901988Y-130693621D01*
X63875205Y-130696500D01*
X55852129Y-130696500D01*
X55784008Y-130676498D01*
X55752167Y-130647204D01*
X55638866Y-130499548D01*
X55635451Y-130495097D01*
X55631306Y-130491326D01*
X55631303Y-130491322D01*
X55477405Y-130351286D01*
X55473252Y-130347507D01*
X55287482Y-130230974D01*
X55282272Y-130228880D01*
X55282267Y-130228877D01*
X55157706Y-130178804D01*
X55101961Y-130134838D01*
X55078836Y-130067713D01*
X55095673Y-129998741D01*
X55147125Y-129949821D01*
X55160781Y-129943800D01*
X55162339Y-129943221D01*
X55350068Y-129853678D01*
X55359683Y-129847992D01*
X55528585Y-129726624D01*
X55537051Y-129719316D01*
X55681784Y-129569962D01*
X55688827Y-129561265D01*
X55804824Y-129388645D01*
X55810210Y-129378848D01*
X55893809Y-129188402D01*
X55897374Y-129177810D01*
X55925270Y-129061615D01*
X55924565Y-129047530D01*
X55915686Y-129044000D01*
X52979310Y-129044000D01*
X52965328Y-129048106D01*
X52964218Y-129055252D01*
X53024286Y-129250502D01*
X53028507Y-129260848D01*
X53123902Y-129445672D01*
X53129887Y-129455103D01*
X53256504Y-129620113D01*
X53264070Y-129628342D01*
X53417898Y-129768314D01*
X53426809Y-129775077D01*
X53602990Y-129885596D01*
X53612956Y-129890673D01*
X53737300Y-129940659D01*
X53793045Y-129984625D01*
X53816170Y-130051750D01*
X53799333Y-130120721D01*
X53747881Y-130169641D01*
X53739355Y-130173401D01*
X53737548Y-130173895D01*
X53539615Y-130268304D01*
X53361528Y-130396272D01*
X53208917Y-130553755D01*
X53086606Y-130735773D01*
X52998460Y-130936575D01*
X52947266Y-131149812D01*
X52934643Y-131368744D01*
X52960988Y-131586452D01*
X53025470Y-131796054D01*
X53126050Y-131990924D01*
X53259549Y-132164903D01*
X53263694Y-132168674D01*
X53263697Y-132168678D01*
X53363725Y-132259696D01*
X53421748Y-132312493D01*
X53607518Y-132429026D01*
X53612728Y-132431120D01*
X53612733Y-132431123D01*
X53736603Y-132480918D01*
X53792348Y-132524884D01*
X53815473Y-132592009D01*
X53798636Y-132660981D01*
X53747184Y-132709901D01*
X53739070Y-132713479D01*
X53737548Y-132713895D01*
X53539615Y-132808304D01*
X53361528Y-132936272D01*
X53208917Y-133093755D01*
X53086606Y-133275773D01*
X52998460Y-133476575D01*
X52947266Y-133689812D01*
X52934643Y-133908744D01*
X52960988Y-134126452D01*
X53025470Y-134336054D01*
X53126050Y-134530924D01*
X53259549Y-134704903D01*
X53263694Y-134708674D01*
X53263697Y-134708678D01*
X53274596Y-134718595D01*
X53421748Y-134852493D01*
X53607518Y-134969026D01*
X53612728Y-134971120D01*
X53612733Y-134971123D01*
X53736603Y-135020918D01*
X53792348Y-135064884D01*
X53815473Y-135132009D01*
X53798636Y-135200981D01*
X53747184Y-135249901D01*
X53739070Y-135253479D01*
X53737548Y-135253895D01*
X53539615Y-135348304D01*
X53361528Y-135476272D01*
X53208917Y-135633755D01*
X53086606Y-135815773D01*
X52998460Y-136016575D01*
X52947266Y-136229812D01*
X52946943Y-136235417D01*
X52936122Y-136423100D01*
X52934643Y-136448744D01*
X52960988Y-136666452D01*
X53025470Y-136876054D01*
X53126050Y-137070924D01*
X53259549Y-137244903D01*
X53263694Y-137248674D01*
X53263697Y-137248678D01*
X53274596Y-137258595D01*
X53421748Y-137392493D01*
X53607518Y-137509026D01*
X53612728Y-137511120D01*
X53612733Y-137511123D01*
X53736603Y-137560918D01*
X53792348Y-137604884D01*
X53815473Y-137672009D01*
X53798636Y-137740981D01*
X53747184Y-137789901D01*
X53739070Y-137793479D01*
X53737548Y-137793895D01*
X53539615Y-137888304D01*
X53361528Y-138016272D01*
X53208917Y-138173755D01*
X53086606Y-138355773D01*
X52998460Y-138556575D01*
X52947266Y-138769812D01*
X52934643Y-138988744D01*
X52960988Y-139206452D01*
X53025470Y-139416054D01*
X53126050Y-139610924D01*
X53259549Y-139784903D01*
X53263694Y-139788674D01*
X53263697Y-139788678D01*
X53274596Y-139798595D01*
X53421748Y-139932493D01*
X53607518Y-140049026D01*
X53612728Y-140051120D01*
X53612733Y-140051123D01*
X53737294Y-140101196D01*
X53793039Y-140145162D01*
X53816164Y-140212287D01*
X53799327Y-140281259D01*
X53747875Y-140330179D01*
X53734219Y-140336200D01*
X53732661Y-140336779D01*
X53544932Y-140426322D01*
X53535317Y-140432008D01*
X53366415Y-140553376D01*
X53357949Y-140560684D01*
X53213216Y-140710038D01*
X53206173Y-140718735D01*
X53090176Y-140891355D01*
X53084790Y-140901152D01*
X53001191Y-141091598D01*
X52997626Y-141102190D01*
X52969730Y-141218385D01*
X52970435Y-141232470D01*
X52979314Y-141236000D01*
X54575500Y-141236000D01*
X54643621Y-141256002D01*
X54690114Y-141309658D01*
X54701500Y-141362000D01*
X54701500Y-141618000D01*
X54681498Y-141686121D01*
X54627842Y-141732614D01*
X54575500Y-141744000D01*
X52979310Y-141744000D01*
X52965328Y-141748106D01*
X52964218Y-141755252D01*
X53024286Y-141950502D01*
X53028507Y-141960848D01*
X53123902Y-142145672D01*
X53129887Y-142155103D01*
X53256504Y-142320113D01*
X53264070Y-142328342D01*
X53417898Y-142468314D01*
X53426809Y-142475077D01*
X53602990Y-142585596D01*
X53612956Y-142590673D01*
X53737300Y-142640659D01*
X53793045Y-142684625D01*
X53816170Y-142751750D01*
X53799333Y-142820721D01*
X53747881Y-142869641D01*
X53739355Y-142873401D01*
X53737548Y-142873895D01*
X53539615Y-142968304D01*
X53361528Y-143096272D01*
X53208917Y-143253755D01*
X53086606Y-143435773D01*
X52998460Y-143636575D01*
X52947266Y-143849812D01*
X52934643Y-144068744D01*
X52960988Y-144286452D01*
X53025470Y-144496054D01*
X53126050Y-144690924D01*
X53259549Y-144864903D01*
X53263694Y-144868674D01*
X53263697Y-144868678D01*
X53363725Y-144959696D01*
X53421748Y-145012493D01*
X53607518Y-145129026D01*
X53612728Y-145131120D01*
X53612733Y-145131123D01*
X53736603Y-145180918D01*
X53792348Y-145224884D01*
X53815473Y-145292009D01*
X53798636Y-145360981D01*
X53747184Y-145409901D01*
X53739070Y-145413479D01*
X53737548Y-145413895D01*
X53539615Y-145508304D01*
X53361528Y-145636272D01*
X53208917Y-145793755D01*
X53086606Y-145975773D01*
X52998460Y-146176575D01*
X52947266Y-146389812D01*
X52934643Y-146608744D01*
X52960988Y-146826452D01*
X52962127Y-146830155D01*
X52956764Y-146900399D01*
X52913945Y-146957030D01*
X52847306Y-146981521D01*
X52838921Y-146981800D01*
X40811959Y-146981800D01*
X40743838Y-146961798D01*
X40697345Y-146908142D01*
X40687241Y-146837868D01*
X40689441Y-146826385D01*
X40706423Y-146755653D01*
X40706425Y-146755642D01*
X40707734Y-146750188D01*
X40720357Y-146531256D01*
X40694012Y-146313548D01*
X40629530Y-146103946D01*
X40528950Y-145909076D01*
X40395451Y-145735097D01*
X40391306Y-145731326D01*
X40391303Y-145731322D01*
X40237405Y-145591286D01*
X40233252Y-145587507D01*
X40047482Y-145470974D01*
X40042272Y-145468880D01*
X40042267Y-145468877D01*
X39918397Y-145419082D01*
X39862652Y-145375116D01*
X39839527Y-145307991D01*
X39856364Y-145239019D01*
X39907816Y-145190099D01*
X39915930Y-145186521D01*
X39917452Y-145186105D01*
X40115385Y-145091696D01*
X40293472Y-144963728D01*
X40446083Y-144806245D01*
X40568394Y-144624227D01*
X40656540Y-144423425D01*
X40707734Y-144210188D01*
X40720357Y-143991256D01*
X40694012Y-143773548D01*
X40629530Y-143563946D01*
X40608022Y-143522274D01*
X40531521Y-143374057D01*
X40531520Y-143374056D01*
X40528950Y-143369076D01*
X40395451Y-143195097D01*
X40391305Y-143191325D01*
X40391301Y-143191320D01*
X40384007Y-143184683D01*
X40347084Y-143124043D01*
X40348807Y-143053067D01*
X40379711Y-143002393D01*
X40697480Y-142684625D01*
X41094358Y-142287747D01*
X41102637Y-142280213D01*
X41109118Y-142276100D01*
X41155744Y-142226448D01*
X41158498Y-142223607D01*
X41178235Y-142203870D01*
X41180715Y-142200673D01*
X41188420Y-142191651D01*
X41213259Y-142165200D01*
X41218686Y-142159421D01*
X41222505Y-142152475D01*
X41222507Y-142152472D01*
X41228448Y-142141666D01*
X41239299Y-142125147D01*
X41246858Y-142115401D01*
X41251714Y-142109141D01*
X41254859Y-142101872D01*
X41254862Y-142101868D01*
X41269274Y-142068563D01*
X41274491Y-142057913D01*
X41295795Y-142019160D01*
X41300833Y-141999537D01*
X41307237Y-141980834D01*
X41312133Y-141969520D01*
X41312133Y-141969519D01*
X41315281Y-141962245D01*
X41316520Y-141954422D01*
X41316523Y-141954412D01*
X41322199Y-141918576D01*
X41324605Y-141906956D01*
X41333628Y-141871811D01*
X41333628Y-141871810D01*
X41335600Y-141864130D01*
X41335600Y-141843876D01*
X41337151Y-141824165D01*
X41339080Y-141811986D01*
X41340320Y-141804157D01*
X41336159Y-141760138D01*
X41335600Y-141748281D01*
X41335600Y-138482194D01*
X41355602Y-138414073D01*
X41372505Y-138393099D01*
X52911711Y-126853894D01*
X52974023Y-126819868D01*
X53044838Y-126824933D01*
X53101674Y-126867480D01*
X53112771Y-126885198D01*
X53123476Y-126905938D01*
X53123479Y-126905943D01*
X53126050Y-126910924D01*
X53259549Y-127084903D01*
X53263694Y-127088674D01*
X53263697Y-127088678D01*
X53356041Y-127172704D01*
X53421748Y-127232493D01*
X53607518Y-127349026D01*
X53612728Y-127351120D01*
X53612733Y-127351123D01*
X53737294Y-127401196D01*
X53793039Y-127445162D01*
X53816164Y-127512287D01*
X53799327Y-127581259D01*
X53747875Y-127630179D01*
X53734219Y-127636200D01*
X53732661Y-127636779D01*
X53544932Y-127726322D01*
X53535317Y-127732008D01*
X53366415Y-127853376D01*
X53357949Y-127860684D01*
X53213216Y-128010038D01*
X53206173Y-128018735D01*
X53090176Y-128191355D01*
X53084790Y-128201152D01*
X53001191Y-128391598D01*
X52997626Y-128402190D01*
X52969730Y-128518385D01*
X52970435Y-128532470D01*
X52979314Y-128536000D01*
X55915690Y-128536000D01*
X55929672Y-128531894D01*
X55930782Y-128524748D01*
X55870714Y-128329498D01*
X55866493Y-128319152D01*
X55771098Y-128134328D01*
X55765113Y-128124897D01*
X55638496Y-127959887D01*
X55630930Y-127951658D01*
X55477102Y-127811686D01*
X55468191Y-127804923D01*
X55292010Y-127694404D01*
X55282044Y-127689327D01*
X55157700Y-127639341D01*
X55101955Y-127595375D01*
X55078830Y-127528250D01*
X55095667Y-127459279D01*
X55147119Y-127410359D01*
X55155645Y-127406599D01*
X55157452Y-127406105D01*
X55355385Y-127311696D01*
X55533472Y-127183728D01*
X55686083Y-127026245D01*
X55744559Y-126939224D01*
X55799155Y-126893839D01*
X55849140Y-126883500D01*
X62040933Y-126883500D01*
X62052116Y-126884027D01*
X62059609Y-126885702D01*
X62067535Y-126885453D01*
X62067536Y-126885453D01*
X62127686Y-126883562D01*
X62131645Y-126883500D01*
X62159556Y-126883500D01*
X62163491Y-126883003D01*
X62163556Y-126882995D01*
X62175393Y-126882062D01*
X62207651Y-126881048D01*
X62211670Y-126880922D01*
X62219589Y-126880673D01*
X62239043Y-126875021D01*
X62258400Y-126871013D01*
X62270630Y-126869468D01*
X62270631Y-126869468D01*
X62278497Y-126868474D01*
X62285868Y-126865555D01*
X62285870Y-126865555D01*
X62319612Y-126852196D01*
X62330842Y-126848351D01*
X62365683Y-126838229D01*
X62365684Y-126838229D01*
X62373293Y-126836018D01*
X62380112Y-126831985D01*
X62380117Y-126831983D01*
X62390728Y-126825707D01*
X62408476Y-126817012D01*
X62427317Y-126809552D01*
X62463087Y-126783564D01*
X62473007Y-126777048D01*
X62504235Y-126758580D01*
X62504238Y-126758578D01*
X62511062Y-126754542D01*
X62525383Y-126740221D01*
X62540417Y-126727380D01*
X62550394Y-126720131D01*
X62556807Y-126715472D01*
X62584998Y-126681395D01*
X62592988Y-126672616D01*
X66981458Y-122284146D01*
X67043770Y-122250120D01*
X67114585Y-122255185D01*
G37*
%TD.AperFunction*%
%TA.AperFunction,Conductor*%
G36*
X66879226Y-106408502D02*
G01*
X66925719Y-106462158D01*
X66935823Y-106532432D01*
X66906329Y-106597012D01*
X66900200Y-106603595D01*
X56814200Y-116689595D01*
X56751888Y-116723621D01*
X56725105Y-116726500D01*
X55982207Y-116726500D01*
X55914086Y-116706498D01*
X55867593Y-116652842D01*
X55857489Y-116582568D01*
X55866834Y-116549855D01*
X55893806Y-116488412D01*
X55897374Y-116477810D01*
X55925270Y-116361615D01*
X55924565Y-116347530D01*
X55915686Y-116344000D01*
X54319500Y-116344000D01*
X54251379Y-116323998D01*
X54204886Y-116270342D01*
X54193500Y-116218000D01*
X54193500Y-115962000D01*
X54213502Y-115893879D01*
X54267158Y-115847386D01*
X54319500Y-115836000D01*
X55915690Y-115836000D01*
X55929672Y-115831894D01*
X55930782Y-115824748D01*
X55870715Y-115629499D01*
X55869738Y-115627105D01*
X55869618Y-115625935D01*
X55869065Y-115624136D01*
X55869423Y-115624026D01*
X55862520Y-115556477D01*
X55894633Y-115493158D01*
X55955881Y-115457252D01*
X55986399Y-115453500D01*
X56386933Y-115453500D01*
X56398116Y-115454027D01*
X56405609Y-115455702D01*
X56413535Y-115455453D01*
X56413536Y-115455453D01*
X56473686Y-115453562D01*
X56477645Y-115453500D01*
X56505556Y-115453500D01*
X56509491Y-115453003D01*
X56509556Y-115452995D01*
X56521393Y-115452062D01*
X56553651Y-115451048D01*
X56557670Y-115450922D01*
X56565589Y-115450673D01*
X56585043Y-115445021D01*
X56604400Y-115441013D01*
X56616630Y-115439468D01*
X56616631Y-115439468D01*
X56624497Y-115438474D01*
X56631868Y-115435555D01*
X56631870Y-115435555D01*
X56665612Y-115422196D01*
X56676842Y-115418351D01*
X56711683Y-115408229D01*
X56711684Y-115408229D01*
X56719293Y-115406018D01*
X56726112Y-115401985D01*
X56726117Y-115401983D01*
X56736728Y-115395707D01*
X56754476Y-115387012D01*
X56773317Y-115379552D01*
X56809087Y-115353564D01*
X56819007Y-115347048D01*
X56850235Y-115328580D01*
X56850238Y-115328578D01*
X56857062Y-115324542D01*
X56871383Y-115310221D01*
X56886417Y-115297380D01*
X56896394Y-115290131D01*
X56902807Y-115285472D01*
X56930998Y-115251395D01*
X56938988Y-115242616D01*
X65756200Y-106425405D01*
X65818512Y-106391379D01*
X65845295Y-106388500D01*
X66811105Y-106388500D01*
X66879226Y-106408502D01*
G37*
%TD.AperFunction*%
%TA.AperFunction,Conductor*%
G36*
X52980914Y-102773502D02*
G01*
X53027407Y-102827158D01*
X53037511Y-102897432D01*
X53028166Y-102930145D01*
X53001194Y-102991588D01*
X52997626Y-103002190D01*
X52969730Y-103118385D01*
X52970435Y-103132470D01*
X52979314Y-103136000D01*
X54575500Y-103136000D01*
X54643621Y-103156002D01*
X54690114Y-103209658D01*
X54701500Y-103262000D01*
X54701500Y-103518000D01*
X54681498Y-103586121D01*
X54627842Y-103632614D01*
X54575500Y-103644000D01*
X52979310Y-103644000D01*
X52965328Y-103648106D01*
X52964218Y-103655252D01*
X53024286Y-103850502D01*
X53028509Y-103860853D01*
X53040300Y-103883697D01*
X53053769Y-103953404D01*
X53027413Y-104019327D01*
X52963488Y-104062483D01*
X52923907Y-104073982D01*
X52917088Y-104078015D01*
X52917083Y-104078017D01*
X52906472Y-104084293D01*
X52888724Y-104092988D01*
X52869883Y-104100448D01*
X52863467Y-104105110D01*
X52863466Y-104105110D01*
X52834113Y-104126436D01*
X52824193Y-104132952D01*
X52792965Y-104151420D01*
X52792962Y-104151422D01*
X52786138Y-104155458D01*
X52771817Y-104169779D01*
X52756784Y-104182619D01*
X52740393Y-104194528D01*
X52735342Y-104200634D01*
X52712202Y-104228605D01*
X52704212Y-104237384D01*
X40921335Y-116020260D01*
X40859023Y-116054286D01*
X40788208Y-116049221D01*
X40731372Y-116006674D01*
X40707153Y-115946302D01*
X40694195Y-115839224D01*
X40691871Y-115828290D01*
X40630714Y-115629498D01*
X40626493Y-115619152D01*
X40531098Y-115434328D01*
X40525113Y-115424897D01*
X40398496Y-115259887D01*
X40390930Y-115251658D01*
X40237102Y-115111686D01*
X40228191Y-115104923D01*
X40052010Y-114994404D01*
X40042044Y-114989327D01*
X39917700Y-114939341D01*
X39861955Y-114895375D01*
X39838830Y-114828250D01*
X39855667Y-114759279D01*
X39907119Y-114710359D01*
X39915645Y-114706599D01*
X39917452Y-114706105D01*
X40115385Y-114611696D01*
X40293472Y-114483728D01*
X40446083Y-114326245D01*
X40568394Y-114144227D01*
X40656540Y-113943425D01*
X40707734Y-113730188D01*
X40720357Y-113511256D01*
X40694012Y-113293548D01*
X40638428Y-113112869D01*
X40637516Y-113041879D01*
X40675128Y-112981665D01*
X40682740Y-112975539D01*
X40683492Y-112974833D01*
X40689907Y-112970172D01*
X40718098Y-112936095D01*
X40726088Y-112927316D01*
X50862999Y-102790405D01*
X50925311Y-102756379D01*
X50952094Y-102753500D01*
X52912793Y-102753500D01*
X52980914Y-102773502D01*
G37*
%TD.AperFunction*%
%TD*%
M02*
