%TF.GenerationSoftware,KiCad,Pcbnew,6.0.2+dfsg-1*%
%TF.CreationDate,2023-02-26T16:07:04-08:00*%
%TF.ProjectId,pico-devboard,7069636f-2d64-4657-9662-6f6172642e6b,rev?*%
%TF.SameCoordinates,Original*%
%TF.FileFunction,Soldermask,Bot*%
%TF.FilePolarity,Negative*%
%FSLAX46Y46*%
G04 Gerber Fmt 4.6, Leading zero omitted, Abs format (unit mm)*
G04 Created by KiCad (PCBNEW 6.0.2+dfsg-1) date 2023-02-26 16:07:04*
%MOMM*%
%LPD*%
G01*
G04 APERTURE LIST*
%ADD10C,2.000000*%
%ADD11C,2.400000*%
%ADD12O,2.400000X2.400000*%
%ADD13O,1.000000X1.000000*%
%ADD14R,1.000000X1.000000*%
%ADD15R,1.800000X1.800000*%
%ADD16C,1.800000*%
%ADD17R,2.000000X1.440000*%
%ADD18O,2.000000X1.440000*%
%ADD19O,1.800000X1.800000*%
%ADD20O,1.500000X1.500000*%
%ADD21O,1.700000X1.700000*%
%ADD22R,1.700000X1.700000*%
G04 APERTURE END LIST*
D10*
%TO.C,SW1*%
X91730000Y-48450000D03*
X91730000Y-41950000D03*
X96230000Y-48450000D03*
X96230000Y-41950000D03*
%TD*%
D11*
%TO.C,R1*%
X100350000Y-29900000D03*
D12*
X115590000Y-29900000D03*
%TD*%
D13*
%TO.C,J3*%
X139445000Y-115805000D03*
X138175000Y-115805000D03*
X139445000Y-114535000D03*
X138175000Y-114535000D03*
X139445000Y-113265000D03*
X138175000Y-113265000D03*
X139445000Y-111995000D03*
X138175000Y-111995000D03*
X139445000Y-110725000D03*
X138175000Y-110725000D03*
X139445000Y-109455000D03*
X138175000Y-109455000D03*
X139445000Y-108185000D03*
X138175000Y-108185000D03*
X139445000Y-106915000D03*
X138175000Y-106915000D03*
X139445000Y-105645000D03*
X138175000Y-105645000D03*
X139445000Y-104375000D03*
D14*
X138175000Y-104375000D03*
%TD*%
D15*
%TO.C,D1*%
X93590000Y-29115000D03*
D16*
X93590000Y-31655000D03*
%TD*%
D14*
%TO.C,J5*%
X64270000Y-152300000D03*
D13*
X63000000Y-152300000D03*
X61730000Y-152300000D03*
%TD*%
D17*
%TO.C,J4*%
X39207500Y-98310000D03*
D18*
X39207500Y-100850000D03*
X39207500Y-103390000D03*
X39207500Y-105930000D03*
X39207500Y-108470000D03*
X39207500Y-111010000D03*
X39207500Y-113550000D03*
X39207500Y-116090000D03*
X39207500Y-118630000D03*
X39207500Y-121170000D03*
X39207500Y-123710000D03*
X39207500Y-126250000D03*
X39207500Y-128790000D03*
X39207500Y-131330000D03*
X39207500Y-133870000D03*
X39207500Y-136410000D03*
X39207500Y-138950000D03*
X39207500Y-141490000D03*
X39207500Y-144030000D03*
X39207500Y-146570000D03*
X54447500Y-146570000D03*
X54447500Y-144030000D03*
X54447500Y-141490000D03*
X54447500Y-138950000D03*
X54447500Y-136410000D03*
X54447500Y-133870000D03*
X54447500Y-131330000D03*
X54447500Y-128790000D03*
X54447500Y-126250000D03*
X54447500Y-123710000D03*
X54447500Y-121170000D03*
X54447500Y-118630000D03*
X54447500Y-116090000D03*
X54447500Y-113550000D03*
X54447500Y-111010000D03*
X54447500Y-108470000D03*
X54447500Y-105930000D03*
X54447500Y-103390000D03*
X54447500Y-100850000D03*
X54447500Y-98310000D03*
%TD*%
D14*
%TO.C,J2*%
X68200000Y-94325000D03*
D13*
X68200000Y-95595000D03*
X68200000Y-96865000D03*
X68200000Y-98135000D03*
X68200000Y-99405000D03*
X68200000Y-100675000D03*
X68200000Y-101945000D03*
X68200000Y-103215000D03*
X68200000Y-104485000D03*
X68200000Y-105755000D03*
X68200000Y-107025000D03*
X68200000Y-108295000D03*
X68200000Y-109565000D03*
X68200000Y-110835000D03*
X68200000Y-112105000D03*
X68200000Y-113375000D03*
X68200000Y-114645000D03*
X68200000Y-115915000D03*
X68200000Y-117185000D03*
X68200000Y-118455000D03*
X68200000Y-119725000D03*
X68200000Y-120995000D03*
X68200000Y-122265000D03*
X68200000Y-123535000D03*
X68200000Y-124805000D03*
X68200000Y-126075000D03*
%TD*%
%TO.C,J1*%
X104275000Y-64600000D03*
X103005000Y-64600000D03*
D14*
X101735000Y-64600000D03*
%TD*%
D19*
%TO.C,U1*%
X36400000Y-47925000D03*
D20*
X39430000Y-42775000D03*
D19*
X36400000Y-42475000D03*
D20*
X39430000Y-47625000D03*
D21*
X36270000Y-54090000D03*
X38810000Y-54090000D03*
D22*
X41350000Y-54090000D03*
D21*
X43890000Y-54090000D03*
X46430000Y-54090000D03*
X48970000Y-54090000D03*
X51510000Y-54090000D03*
D22*
X54050000Y-54090000D03*
D21*
X56590000Y-54090000D03*
X59130000Y-54090000D03*
X61670000Y-54090000D03*
X64210000Y-54090000D03*
D22*
X66750000Y-54090000D03*
D21*
X69290000Y-54090000D03*
X71830000Y-54090000D03*
X74370000Y-54090000D03*
X76910000Y-54090000D03*
D22*
X79450000Y-54090000D03*
D21*
X81990000Y-54090000D03*
X84530000Y-54090000D03*
X84530000Y-36310000D03*
X81990000Y-36310000D03*
D22*
X79450000Y-36310000D03*
D21*
X76910000Y-36310000D03*
X74370000Y-36310000D03*
X71830000Y-36310000D03*
X69290000Y-36310000D03*
D22*
X66750000Y-36310000D03*
D21*
X64210000Y-36310000D03*
X61670000Y-36310000D03*
X59130000Y-36310000D03*
X56590000Y-36310000D03*
D22*
X54050000Y-36310000D03*
D21*
X51510000Y-36310000D03*
X48970000Y-36310000D03*
X46430000Y-36310000D03*
X43890000Y-36310000D03*
D22*
X41350000Y-36310000D03*
D21*
X38810000Y-36310000D03*
X36270000Y-36310000D03*
X84300000Y-47740000D03*
D22*
X84300000Y-45200000D03*
D21*
X84300000Y-42660000D03*
%TD*%
M02*
